<svg id="OBJECTS" xmlns="http://www.w3.org/2000/svg" viewBox="0 0 516.2 697.01"><defs><style>.cls-1{fill:gray;}.cls-2{fill:#ffd893;}.cls-3{fill:#e6e7e8;}.cls-4{fill:#d4d6d7;}.cls-5{fill:#6d6e70;}.cls-6{fill:#faaf40;}.cls-7{fill:#fcc38c;}.cls-8{fill:#716558;}.cls-9{fill:#f69d7d;}.cls-10{fill:#fff;}.cls-11{fill:#f69a8b;}.cls-12{fill:#404041;}.cls-13{fill:#f1654a;}.cls-14{fill:#ef4846;}.cls-15{fill:#f9ec31;}.cls-16{fill:#fff100;}.cls-17{fill:#da5c43;}.cls-18{fill:#c5523c;}.cls-19{fill:#ffd48a;}</style></defs><title>boy</title><path class="cls-1" d="M318.78,720.29a45.58,45.58,0,0,1-7.39,19.89c-6.55,9.57-19.62,6.17-21.21,37.73,0,0,1.39,3.83,7.49,7.6s32.62,11.84,41.38-3,12.7-25.61,13-20.87,9.6-2.11,10.42-8.48-3.42-25.35-4-35.29S319.18,703.73,318.78,720.29Z" transform="translate(-168.14 -94.1)"/><path class="cls-2" d="M321.56,642.09S320.15,703.32,323,710s29.36,9.56,31,2.77,6.41-67.23,6.41-67.23Z" transform="translate(-168.14 -94.1)"/><path class="cls-3" d="M359.33,693.87c-5.11-2.51-8.38,2.55-20.88,1.43s-14.82-6.69-20.29-5.12-6.79,22.76-.61,29,18.21,6.09,18.21,6.09,11.81,2.29,19-2.76S364.43,696.39,359.33,693.87Z" transform="translate(-168.14 -94.1)"/><path class="cls-3" d="M301.43,748.6c-5.29,4.12-10.3,10.52-11.25,29.31,0,0,1.39,3.83,7.49,7.6,5.7,3.52,29.23,10.79,39.44-.35C340.5,747.25,308.78,748.59,301.43,748.6Z" transform="translate(-168.14 -94.1)"/><path class="cls-4" d="M339.05,782.53c8.76-14.82,12.7-25.61,13-20.87s9.6-2.11,10.42-8.48a30.25,30.25,0,0,0-.1-5.7c-7.76,12.46-10.32,5.88-13.15,7-3.08,1.21-10.19,28.06-29.19,30.07-15.64,1.66-26.13-8.95-29.36-12.77-.22,1.89-.4,3.92-.51,6.14,0,0,1.39,3.83,7.49,7.6S330.29,797.35,339.05,782.53Z" transform="translate(-168.14 -94.1)"/><path class="cls-1" d="M443,720.29a45.58,45.58,0,0,0,7.39,19.89c6.55,9.57,19.62,6.17,21.21,37.73,0,0-1.39,3.83-7.49,7.6s-32.62,11.84-41.38-3-12.7-25.61-13-20.87-9.6-2.11-10.42-8.48,3.42-25.35,4-35.29S442.56,703.73,443,720.29Z" transform="translate(-168.14 -94.1)"/><path class="cls-2" d="M440.18,642.09s1.41,61.23-1.45,67.93-29.36,9.56-31,2.77-6.41-67.23-6.41-67.23Z" transform="translate(-168.14 -94.1)"/><path class="cls-3" d="M402.41,693.87c5.11-2.51,8.38,2.55,20.88,1.43s14.82-6.69,20.29-5.12,6.79,22.76.61,29S426,725.28,426,725.28s-11.81,2.29-19-2.76S397.31,696.39,402.41,693.87Z" transform="translate(-168.14 -94.1)"/><path class="cls-3" d="M460.31,748.6c5.29,4.12,10.3,10.52,11.25,29.31,0,0-1.39,3.83-7.49,7.6-5.7,3.52-29.23,10.79-39.44-.35C421.24,747.25,453,748.59,460.31,748.6Z" transform="translate(-168.14 -94.1)"/><path class="cls-4" d="M422.69,782.53c-8.76-14.82-12.7-25.61-13-20.87s-9.6-2.11-10.42-8.48a30.25,30.25,0,0,1,.1-5.7c7.76,12.46,10.32,5.88,13.15,7,3.08,1.21,10.19,28.06,29.19,30.07,15.64,1.66,26.13-8.95,29.36-12.77.22,1.89.4,3.92.51,6.14,0,0-1.39,3.83-7.49,7.6S431.45,797.35,422.69,782.53Z" transform="translate(-168.14 -94.1)"/><path class="cls-5" d="M455.34,559.24l-74,4.61-74-4.61s-3.94,25.65-2.63,43.41.66,49.34,9.21,53.29,31.57,9.2,44.07,9.86,19.72-3.94,23.35-38.81c3.62,34.87,10.84,39.47,23.34,38.81s35.52-5.92,44.07-9.86,7.89-35.53,9.21-53.29S455.34,559.24,455.34,559.24Z" transform="translate(-168.14 -94.1)"/><path class="cls-2" d="M543.06,327.21S538,309.93,555.3,299.87s46.54-.62,46.1,19.31-27.65,36.56-27.65,36.56S537.63,349.13,543.06,327.21Z" transform="translate(-168.14 -94.1)"/><path class="cls-2" d="M473.93,369.7s27-6.58,34.87-9.36,37.75-38.57,40.9-41.6,30.36,5.56,27.95,25.48-35.31,51.16-45.83,59.88-50,18.49-50,18.49Z" transform="translate(-168.14 -94.1)"/><path class="cls-6" d="M423.79,374.62s57.88-15.71,69.72-19.8l17.5,66.1s-51.89,17.6-67.42,18.76S423.79,374.62,423.79,374.62Z" transform="translate(-168.14 -94.1)"/><path class="cls-6" d="M463.11,562.22c-3.85-8.88-13.9-79.93-18.38-114.46s-20.94-73.14-20.94-73.14l-43.4-3.16L337,374.62s-16.45,38.61-20.93,73.14-12.56,105.58-16.42,114.46,8.48,22.69,80.76,22.69S467,571.1,463.11,562.22Z" transform="translate(-168.14 -94.1)"/><path class="cls-7" d="M413.69,377.59l-33.3-13.7-33.3,13.7s-1.81,31.2,33.3,31.2S413.69,377.59,413.69,377.59Z" transform="translate(-168.14 -94.1)"/><path class="cls-2" d="M256.86,461.43s-46.28,69.34-50.47,75.05,22.47,26.54,32.18,17.65,48.7-49.62,57.31-72.6Z" transform="translate(-168.14 -94.1)"/><path class="cls-2" d="M215.67,522.61s-15.31,8-23.74,7.34-26.5,2.46-23.45,11.5,22.74,6.38,22.74,6.38-21.82,24-20.77,29.48,8.7,8.9,17.1,2.54A50.75,50.75,0,0,0,200.19,566s-11.51,22-11,26,5.2,7.92,9.85,6.32,16.91-25,16.91-25-3.82,19-4.82,24.05a4.84,4.84,0,0,0,8.81,3.55c3.29-4.46,7.37-20.54,7.37-20.54s-.26,12.42-.55,15.78,6.18,7.11,8.56-.61,3.15-19.63,5.53-25.07,11.8-21.3,6.43-30.56S219.83,520.62,215.67,522.61Z" transform="translate(-168.14 -94.1)"/><path class="cls-8" d="M532,237.15c-3.58-22.42-22.17-25.5-22.17-25.5s13.52-4.88,8.39-23.69S499,169.28,499,169.28s10.31-8.86-.53-25-28-7.78-28-7.78,6.11-15.25-11.28-24.7-32.7,7.67-32.7,7.67-4.22-22.17-23.75-21-23.89,14.79-23.89,14.79a33.77,33.77,0,0,0-63.62,8.23s-7.68-12.08-26.87-8.22-17.61,26.37-17.61,26.37-19.16-12.66-33.58.9-4.62,26.76-4.62,26.76-18.67-3.69-25.06,14.64,5.84,24.28,5.84,24.28-13.71,3.46-13.88,23S213.62,250,213.62,250s-17.19,7.71-14.94,30.3S215.86,303,215.86,303,205.37,326.82,231,337.4c0,0-3.74,26.88,31.28,22.29,0,0,2.89,24.65,37,13.25s76.39-34.77,76.39-34.77,46.88,11.84,82.73,14.19,32.37-22.23,32.37-22.23c35-4.47,24.58-29.52,24.58-29.52,22.09-16.75,5.88-37.15,5.88-37.15S535.6,259.57,532,237.15Z" transform="translate(-168.14 -94.1)"/><path class="cls-7" d="M523,253.87c1.17,9-6.36,17.39-16.81,18.74s-19.86-4.85-21-13.85S491.54,241.37,502,240,521.85,244.87,523,253.87Z" transform="translate(-168.14 -94.1)"/><path class="cls-7" d="M254.9,288.56c1.16,9-6.37,17.39-16.81,18.74s-19.87-4.85-21-13.85,6.36-17.39,16.81-18.74S253.73,279.56,254.9,288.56Z" transform="translate(-168.14 -94.1)"/><ellipse class="cls-2" cx="369.86" cy="272.3" rx="135.18" ry="113.96" transform="translate(-200.02 -44.39) rotate(-7.37)"/><path class="cls-9" d="M369.33,270.73a21.08,21.08,0,0,0,1.05,1.91,26.66,26.66,0,0,0,3.28,4.39,20.37,20.37,0,0,0,2.62,2.29,17.54,17.54,0,0,0,3.26,1.85c.6.25,1.23.44,1.85.65l1,.21.49.13.75.21,1.11.34a4.81,4.81,0,0,1,.59.21l.76.41a9.18,9.18,0,0,1,1.43.92c.39.37.77.76,1.14,1.16a8.8,8.8,0,0,1,1.68,5.93,11.47,11.47,0,0,1-1.8,5.12,13.77,13.77,0,0,1-6.91,5.61l-.88.34-.88.19c-.58.1-1.11.23-1.62.28a18.23,18.23,0,0,1-2.61,0c-1.43-.25-2.19-.44-2.19-.44s.81-.2,2.12-.47c.66-.14,1.41-.51,2.27-.76.42-.17.84-.43,1.28-.65l.68-.34.65-.46a14.6,14.6,0,0,0,2.56-2.22,12.21,12.21,0,0,0,2-3,9,9,0,0,0,.91-3.43,4.39,4.39,0,0,0-.86-2.84,4.79,4.79,0,0,1-.48-.53c-.17-.17-.37-.22-.53-.37l-.24-.21a2.39,2.39,0,0,0-.49-.19l-1.1-.38-.27-.1h0l.21.06h0l-.08,0-.15-.05-.62-.18-1.22-.4c-.78-.35-1.55-.68-2.28-1.08a15.56,15.56,0,0,1-3.72-2.9,16,16,0,0,1-2.48-3.29,17.45,17.45,0,0,1-2-5.62A11.36,11.36,0,0,1,369.33,270.73Z" transform="translate(-168.14 -94.1)"/><path class="cls-9" d="M373.61,322.55l63.12-8.16c-2.29,51.53-57.17,54.15-57.17,54.15S325.83,380,310.5,330.72Z" transform="translate(-168.14 -94.1)"/><path class="cls-10" d="M325.44,340.48c-2.69.34-4.68.35-5.67-1.51-.65-1.24-1.77-6.05-2.45-9.13l56.29-7.29,56.29-7.28c.14,3.15.28,8.09,0,9.46-.48,2-2.41,2.55-5.1,2.9l-49.66,6.42Z" transform="translate(-168.14 -94.1)"/><path class="cls-11" d="M424.39,272.65c.74,5.73,10,9.25,20.65,7.87s18.72-7.14,18-12.87-10-9.25-20.66-7.87S423.65,266.92,424.39,272.65Z" transform="translate(-168.14 -94.1)"/><path class="cls-11" d="M285.67,290.6c.74,5.73,10,9.25,20.66,7.87s18.71-7.14,18-12.87-10-9.25-20.66-7.87S284.93,284.87,285.67,290.6Z" transform="translate(-168.14 -94.1)"/><path class="cls-12" d="M295.44,263l-3.81-1c.23-.84,5.7-20.7,18.25-22.88,7.79-1.38,16.23,4.4,25.07,17.12l-3.24,2.25c-7.78-11.18-15.1-16.54-21.15-15.49C300.48,244.67,295.49,262.76,295.44,263Z" transform="translate(-168.14 -94.1)"/><path class="cls-12" d="M402.69,249.43,399,248.08c5.32-14.56,12-22.28,19.89-23,12.67-1.06,23,16.73,23.47,17.49l-3.42,2c-.09-.16-9.49-16.3-19.72-15.51C413.07,229.59,407.37,236.63,402.69,249.43Z" transform="translate(-168.14 -94.1)"/><path class="cls-8" d="M353.29,144.26S193,182.17,241,310.65c0,0,22.63-15.74,4.67-41.81,0,0,30.56-4.73,19.51-33.7,0,0,28.74-3.5,25.64-37.64,0,0,26.31,8.49,32.64-16.87,0,0,22.46,15.76,33.22-10.55,17.11,22.71,34.82,1.75,34.82,1.75,12.58,22.91,35.85,8,35.85,8,5.7,33.8,34.38,29.87,34.38,29.87-3.31,30.82,27.45,27.62,27.45,27.62-10.74,29.78,15.16,39.25,15.16,39.25C517.93,140.14,353.29,144.26,353.29,144.26Z" transform="translate(-168.14 -94.1)"/><path class="cls-3" d="M570.08,257s22-14.77,11.46-33.83l10.86-9.53s29,30.34-8,60.5Z" transform="translate(-168.14 -94.1)"/><path class="cls-13" d="M575.78,204.72h17.36a5.83,5.83,0,0,1,5.83,5.83v13.77a5.82,5.82,0,0,1-5.82,5.82H575.78a5.83,5.83,0,0,1-5.83-5.83V210.55A5.83,5.83,0,0,1,575.78,204.72Z" transform="translate(999.12 -98.54) rotate(138.75)"/><rect class="cls-14" x="556.45" y="281.78" width="41.08" height="40.03" transform="translate(-223.94 361.21) rotate(-41.25)"/><rect class="cls-3" x="534.91" y="262.51" width="26.57" height="13.28" rx="3.04" transform="translate(-209.56 334.13) rotate(-41.25)"/><rect class="cls-14" x="507.27" y="259.14" width="12.06" height="15.21" rx="2.76" transform="translate(-216.64 310.47) rotate(-41.24)"/><rect class="cls-14" x="544.34" y="226.64" width="12.06" height="15.21" rx="2.76" transform="translate(-185.98 326.96) rotate(-41.26)"/><rect class="cls-15" x="502.73" y="230.14" width="6.82" height="16.96" rx="1.56" transform="translate(-199.8 299.04) rotate(-41.27)"/><rect class="cls-15" x="520.01" y="214.98" width="6.82" height="16.96" rx="1.56" transform="translate(-185.59 306.44) rotate(-41.25)"/><rect class="cls-13" x="507.62" y="229.27" width="49.29" height="43.42" rx="5" transform="translate(-201.53 319.12) rotate(-41.25)"/><rect class="cls-16" x="514.22" y="249.16" width="15.03" height="12.24" rx="2.25" transform="translate(-206.98 313.25) rotate(-41.25)"/><rect class="cls-16" x="530.38" y="234.98" width="15.03" height="12.24" rx="2.25" transform="translate(-193.62 320.39) rotate(-41.25)"/><rect class="cls-3" x="521.52" y="255.8" width="36.53" height="7.52" rx="1.72" transform="translate(-205.32 326.2) rotate(-41.25)"/><rect class="cls-13" x="537.1" y="276.04" width="24.65" height="26.39" rx="3.57" transform="translate(-222.5 339.92) rotate(-41.25)"/><rect class="cls-13" x="555.63" y="259.79" width="24.65" height="26.39" rx="3.57" transform="matrix(0.75, -0.66, 0.66, 0.75, -207.19, 348.11)"/><rect class="cls-13" x="563.88" y="301.74" width="50.34" height="26.39" rx="3.57" transform="translate(-229.61 372.42) rotate(-41.25)"/><path class="cls-4" d="M597.45,325.12s11.5,25.05,27.68,42.71l-4.74,6.26s-28.56-26.2-25.51-46.85Z" transform="translate(-168.14 -94.1)"/><path class="cls-3" d="M580.26,339.3s3.16,22.33,22.73,47l17.4-12.23s-26-29.44-25.51-46.85Z" transform="translate(-168.14 -94.1)"/><polygon class="cls-13" points="434.85 292.22 441.68 315.3 452.56 307.38 452.25 279.99 434.85 292.22"/><polygon class="cls-17" points="441.68 315.3 446.63 320.95 457.63 313.16 452.56 307.38 441.68 315.3"/><polygon class="cls-18" points="457.63 313.16 464.14 281.88 457 273.73 452.25 279.99 452.56 307.38 457.63 313.16"/><path class="cls-4" d="M597.45,325.12s23.33,14.68,38.72,33l6.82-3.89s-22.24-31.73-43.11-31.4Z" transform="translate(-168.14 -94.1)"/><path class="cls-3" d="M613.74,309.93s21.73,6.06,43.66,28.68L643,354.26s-25.78-29.66-43.11-31.4Z" transform="translate(-168.14 -94.1)"/><polygon class="cls-13" points="489.26 244.51 511.25 254.29 501.98 264.05 474.86 260.16 489.26 244.51"/><polygon class="cls-17" points="511.25 254.29 516.2 259.94 507.05 269.83 501.98 264.05 511.25 254.29"/><polygon class="cls-18" points="507.05 269.83 475.18 272.2 468.04 264.05 474.86 260.16 501.98 264.05 507.05 269.83"/><path class="cls-3" d="M533.6,288.77s-17.51,19.85-35,6.94l-10.87,9.52s26.29,32.74,61-.05Z" transform="translate(-168.14 -94.1)"/><rect class="cls-13" x="477.96" y="285.14" width="29.01" height="25.42" rx="5.83" transform="translate(-242.31 304.52) rotate(-41.25)"/><path class="cls-2" d="M590.69,271.19c-12-5-21.31,3-24.93,13.08s3,23.75,21.28,33.88,28.28,3.93,34.22-7.27S621.65,284.06,590.69,271.19Z" transform="translate(-168.14 -94.1)"/><path class="cls-2" d="M543.37,314.33s-1.91-30.18,8.27-30.06,13.9,19.7,11.18,37S541.77,326.29,543.37,314.33Z" transform="translate(-168.14 -94.1)"/><path class="cls-6" d="M333.33,383.83s-44.4,18.18-68.08,47.95-44.4,40.34-41.44,46.4,39.54,37.15,61.81,35.67,31.7-55.31,31.7-55.31Z" transform="translate(-168.14 -94.1)"/><path class="cls-19" d="M452.83,505.82c-.6-4-1.19-8-1.77-12.05-10.73,4-30.57,8.41-66.09,8.41-42.84,0-64.68-4.14-74.85-7.11-.5,4-1,8-1.52,11.89C321,510.32,343.9,514,385,514,419,514,439.94,510.18,452.83,505.82Z" transform="translate(-168.14 -94.1)"/><path class="cls-19" d="M307.64,514.37c-.27,2-.53,4-.8,6C318,523.72,340.9,528,385,528c36.7,0,57.83-4.52,69.85-9.12-.31-2-.63-4-.94-6.11-10.8,4.39-31.28,9.31-68.91,9.31C339.69,522.11,317.5,517.5,307.64,514.37Z" transform="translate(-168.14 -94.1)"/><path class="cls-19" d="M311.9,480.82q-.36,3-.74,5.95c11.93,3.26,34.58,7,75.79,7,30.64,0,50.42-3.15,63.12-6.86q-.44-3-.85-6c-11.9,3.63-31.26,7-62.27,7C344.88,487.87,322.75,483.9,311.9,480.82Z" transform="translate(-168.14 -94.1)"/></svg>