<svg id="Layer_1" data-name="Layer 1" xmlns="http://www.w3.org/2000/svg" xmlns:xlink="http://www.w3.org/1999/xlink" viewBox="0 0 242.93 138.5"><defs><style>.cls-1{fill:none;}.cls-2{clip-path:url(#clip-path);}.cls-3,.cls-4{fill:#fff;}.cls-4{opacity:0.7;}</style><clipPath id="clip-path" transform="translate(-44.67 -17.1)"><rect class="cls-1" width="350.74" height="229.42"/></clipPath></defs><title>clouds_park</title><g class="cls-2"><path class="cls-3" d="M81.69,55a8.71,8.71,0,0,0-4.24.09l0,0c.26-.67-.28-1.11-.8-1.49a3.25,3.25,0,0,0-3.32.08,3.39,3.39,0,0,0-.76-4.3c-1.33-1-3.38-.78-4.93-.56a10.74,10.74,0,0,0-5.84,2.7,8.67,8.67,0,0,0-.86,1,3.43,3.43,0,0,0-.71-.08,5.8,5.8,0,0,0-3.11,1A2.25,2.25,0,0,0,56,55.22l-.12,0a12.43,12.43,0,0,0-1.83,0,25.84,25.84,0,0,0-4.37.7,19.51,19.51,0,0,0-3.79,1.23c-.47.22-1.44.88-1.16,1.53s1.93.52,2.5.48a15.45,15.45,0,0,0,3.61-1,.93.93,0,0,0,0,.72c.21.75,1.36.8,1.95.83a5.26,5.26,0,0,0,1.05-.09l1.08.38a3.05,3.05,0,0,0,1.37.48,14.93,14.93,0,0,0,6.1-.24,16,16,0,0,0,3-.91,3.51,3.51,0,0,0,1.38-1.5c.43.41.61.86,1.22,1.08a7.85,7.85,0,0,0,2.32.28,9.47,9.47,0,0,0,4.17-.74,5.06,5.06,0,0,0,.8-.44A14.76,14.76,0,0,0,77,57.84c1-.1,1.93-.14,2.89-.25a4.92,4.92,0,0,0,2.3-.56c.3-.21.68-.52.72-.9C83,55.45,82.23,55.19,81.69,55Z" transform="translate(-44.67 -17.1)"/><path class="cls-3" d="M285.92,62.06a12.57,12.57,0,0,0-6.09.13l0-.06c.38-1-.41-1.59-1.14-2.14a4.68,4.68,0,0,0-4.76.12,4.87,4.87,0,0,0-1.1-6.17c-1.9-1.47-4.84-1.11-7.06-.79A15.3,15.3,0,0,0,257.43,57a11.45,11.45,0,0,0-1.23,1.37,6,6,0,0,0-1-.12,8.26,8.26,0,0,0-4.45,1.44,3.28,3.28,0,0,0-1.66,2.61l-.17,0a16.38,16.38,0,0,0-2.62,0,36.07,36.07,0,0,0-6.27,1A27.06,27.06,0,0,0,234.59,65c-.68.31-2.07,1.25-1.67,2.18s2.77.75,3.59.69a22.15,22.15,0,0,0,5.17-1.42,1.32,1.32,0,0,0-.08,1c.31,1.06,2,1.15,2.81,1.19a8.36,8.36,0,0,0,1.5-.13l1.54.54a4.45,4.45,0,0,0,2,.69,21.28,21.28,0,0,0,8.74-.34,23.72,23.72,0,0,0,4.22-1.31,4.9,4.9,0,0,0,2-2.16c.61.6.86,1.24,1.75,1.56a11.24,11.24,0,0,0,3.32.4,13.41,13.41,0,0,0,6-1.06,8.13,8.13,0,0,0,1.15-.64,21,21,0,0,0,2.55-.17c1.38-.15,2.77-.2,4.15-.36a7,7,0,0,0,3.29-.81,2.14,2.14,0,0,0,1-1.3C287.71,62.64,286.69,62.27,285.92,62.06Z" transform="translate(-44.67 -17.1)"/><path class="cls-3" d="M282.61,112.32a6.51,6.51,0,0,0-3.13.07s0,0,0,0c.2-.49-.2-.82-.58-1.1a2.42,2.42,0,0,0-2.45.06,2.49,2.49,0,0,0-.56-3.17c-1-.76-2.49-.57-3.63-.41a7.86,7.86,0,0,0-4.3,2,5.33,5.33,0,0,0-.63.71,3.35,3.35,0,0,0-.53-.07,4.16,4.16,0,0,0-2.28.75,1.67,1.67,0,0,0-.86,1.33h-.09a7.5,7.5,0,0,0-1.34,0,18.45,18.45,0,0,0-3.22.51,14.45,14.45,0,0,0-2.79.91c-.35.16-1.06.65-.85,1.12s1.42.39,1.84.36a12.34,12.34,0,0,0,2.66-.73.64.64,0,0,0-.05.53c.16.55,1,.59,1.45.61a4,4,0,0,0,.77-.06l.79.28a2.35,2.35,0,0,0,1,.35,11,11,0,0,0,4.5-.18,11.74,11.74,0,0,0,2.16-.67,2.5,2.5,0,0,0,1-1.11c.32.31.45.64.9.8a5.81,5.81,0,0,0,1.71.21,6.89,6.89,0,0,0,3.07-.55,3,3,0,0,0,.59-.33,11,11,0,0,0,1.31-.08c.71-.08,1.43-.11,2.13-.19a3.68,3.68,0,0,0,1.7-.41,1.14,1.14,0,0,0,.53-.67C283.53,112.62,283,112.43,282.61,112.32Z" transform="translate(-44.67 -17.1)"/><path class="cls-4" d="M209.73,31.57a18.13,18.13,0,0,0-8.91-.17l0-.08c.62-1.39-.49-2.36-1.54-3.2-1.75-1.39-4.88-1.26-7-.1,1.63-2.95,1.54-6.76-1.25-9.1s-7-1.92-10.29-1.57a22.3,22.3,0,0,0-12.47,5.18,17.32,17.32,0,0,0-1.9,1.93,7.68,7.68,0,0,0-1.49-.23,11.85,11.85,0,0,0-6.59,1.85,4.77,4.77,0,0,0-2.58,3.72l-.25-.06a23.31,23.31,0,0,0-3.83-.21,53.23,53.23,0,0,0-9.24,1.1,40.92,40.92,0,0,0-8,2.27c-1,.43-3.09,1.73-2.56,3.1.61,1.59,4,1.27,5.2,1.22,2.68-.1,5.13-1.06,7.66-1.78a2,2,0,0,0-.18,1.53c.39,1.57,2.79,1.78,4,1.9a13.63,13.63,0,0,0,2.21-.1l2.24.88a6.44,6.44,0,0,0,2.82,1.12,31.28,31.28,0,0,0,12.82,0,33.57,33.57,0,0,0,6.26-1.66,7.34,7.34,0,0,0,3-3c.87.9,1.2,1.85,2.47,2.38a16.19,16.19,0,0,0,4.85.78A19.64,19.64,0,0,0,194.07,38a9.59,9.59,0,0,0,1.72-.87,33,33,0,0,0,3.75-.1c2-.14,4.06-.14,6.1-.29,1.61-.11,3.44-.09,4.86-1a3.18,3.18,0,0,0,1.6-1.84C212.33,32.52,210.86,31.92,209.73,31.57Z" transform="translate(-44.67 -17.1)"/><path class="cls-4" d="M165.9,74.36a3.58,3.58,0,0,0-1.75,0v0c.11-.27-.12-.45-.33-.61a1.35,1.35,0,0,0-1.37,0,1.4,1.4,0,0,0-.31-1.77,2.79,2.79,0,0,0-2-.23,4.45,4.45,0,0,0-2.41,1.12,2.57,2.57,0,0,0-.35.39l-.29,0a2.33,2.33,0,0,0-1.28.42.93.93,0,0,0-.48.75h-.05a4.7,4.7,0,0,0-.75,0,9.93,9.93,0,0,0-1.8.29,7.48,7.48,0,0,0-1.56.5c-.2.1-.6.36-.48.63s.79.22,1,.2a6.46,6.46,0,0,0,1.49-.41.39.39,0,0,0,0,.3c.09.31.56.33.81.34a3,3,0,0,0,.43,0l.44.15a1.3,1.3,0,0,0,.57.2,6.07,6.07,0,0,0,2.51-.1,6.63,6.63,0,0,0,1.22-.38,1.49,1.49,0,0,0,.57-.62c.17.17.25.36.5.45a3.06,3.06,0,0,0,.95.12,3.9,3.9,0,0,0,1.72-.31,1.55,1.55,0,0,0,.33-.18c.25,0,.5,0,.73,0l1.19-.1a2.06,2.06,0,0,0,1-.24.61.61,0,0,0,.3-.37C166.42,74.52,166.12,74.41,165.9,74.36Z" transform="translate(-44.67 -17.1)"/><path class="cls-3" d="M105.38,151a7,7,0,0,0-3.47.07l0,0c.22-.55-.23-.92-.65-1.22a2.66,2.66,0,0,0-2.72.06,2.78,2.78,0,0,0-.62-3.52c-1.09-.83-2.77-.63-4-.45a8.64,8.64,0,0,0-4.77,2.21,6.57,6.57,0,0,0-.71.78,3.83,3.83,0,0,0-.58-.07,4.82,4.82,0,0,0-2.54.82,1.89,1.89,0,0,0-.94,1.49h-.1a8.24,8.24,0,0,0-1.49,0,21.7,21.7,0,0,0-3.58.57,15.74,15.74,0,0,0-3.09,1c-.39.18-1.18.72-1,1.24s1.58.44,2,.4a12.53,12.53,0,0,0,3-.81.76.76,0,0,0,0,.6c.17.6,1.11.65,1.6.67a4.8,4.8,0,0,0,.85-.07l.89.31a2.55,2.55,0,0,0,1.12.39,12.12,12.12,0,0,0,5-.2,12.45,12.45,0,0,0,2.41-.74,2.87,2.87,0,0,0,1.13-1.23c.35.34.5.7,1,.89a6.39,6.39,0,0,0,1.9.23,7.61,7.61,0,0,0,3.4-.61,3.41,3.41,0,0,0,.65-.37,11.45,11.45,0,0,0,1.46-.09c.79-.09,1.58-.12,2.37-.21a4.05,4.05,0,0,0,1.88-.46,1.24,1.24,0,0,0,.59-.74C106.41,151.35,105.83,151.13,105.38,151Z" transform="translate(-44.67 -17.1)"/></g></svg>