<svg xmlns="http://www.w3.org/2000/svg" version="1.1" xmlns:xlink="http://www.w3.org/1999/xlink" xmlns:svgjs="http://svgjs.com/svgjs" width="1440" height="560" preserveAspectRatio="none" viewBox="0 0 1440 560"><g mask="url(&quot;#SvgjsMask1090&quot;)" fill="none"><path d="M1464 560L0 560 L0 309.4Q39.49 276.89, 72 316.38Q150.69 275.06, 192 353.75Q224.11 265.86, 312 297.96Q389.36 255.32, 432 332.68Q474.51 303.19, 504 345.71Q509.27 278.98, 576 284.25Q643.09 279.34, 648 346.43Q698.67 277.1, 768 327.77Q821.92 261.69, 888 315.62Q938.27 293.89, 960 344.17Q1025.59 289.75, 1080 355.34Q1116 271.34, 1200 307.34Q1273.49 260.82, 1320 334.31Q1347.9 290.21, 1392 318.11Q1443.88 298, 1464 349.88z" fill="rgba(255, 255, 255, 0.21)"></path><path d="M1560 560L0 560 L0 358.27Q55.53 293.8, 120 349.34Q205.28 314.62, 240 399.89Q281.86 321.75, 360 363.6Q413.22 296.82, 480 350.04Q528.86 326.9, 552 375.76Q620.83 324.59, 672 393.41Q691.89 341.3, 744 361.19Q810.11 307.29, 864 373.4Q885.45 322.85, 936 344.29Q977.92 314.21, 1008 356.13Q1073.22 301.35, 1128 366.57Q1151.13 317.69, 1200 340.82Q1267.08 287.9, 1320 354.98Q1394.34 309.32, 1440 383.66Q1513.54 337.2, 1560 410.74z" fill="rgba(255, 255, 255, 0.17)"></path><path d="M1488 560L0 560 L0 433.49Q35.04 396.53, 72 431.57Q99.96 387.53, 144 415.5Q222.65 374.15, 264 452.81Q275.06 391.87, 336 402.93Q407.05 353.98, 456 425.03Q507.12 404.15, 528 455.27Q557.06 364.33, 648 393.39Q697.82 371.2, 720 421.02Q790.47 371.49, 840 441.96Q882.19 364.15, 960 406.34Q1007.33 381.67, 1032 429Q1080.05 405.04, 1104 453.09Q1133.36 410.44, 1176 439.8Q1230.57 374.37, 1296 428.93Q1352.23 413.16, 1368 469.39Q1395.42 376.81, 1488 404.24z" fill="rgba(255, 255, 255, 0.42)"></path><path d="M1464 560L0 560 L0 484.94Q20.79 433.73, 72 454.52Q159.54 422.06, 192 509.6Q240.83 438.44, 312 487.27Q361.26 416.53, 432 465.8Q462.51 424.31, 504 454.82Q559.02 437.84, 576 492.85Q622.5 419.35, 696 465.85Q780.3 430.15, 816 514.45Q866.92 445.38, 936 496.3Q951.78 440.08, 1008 455.85Q1055.09 430.94, 1080 478.03Q1128.13 454.16, 1152 502.3Q1187.55 417.85, 1272 453.4Q1337.16 398.56, 1392 463.73Q1448.1 447.83, 1464 503.93z" fill="rgba(255, 255, 255, 0.56)"></path><path d="M1464 560L0 560 L0 519.96Q36.12 484.08, 72 520.19Q154.4 482.59, 192 564.99Q218.46 519.45, 264 545.92Q309.46 471.38, 384 516.83Q467.91 480.74, 504 564.65Q548.22 488.87, 624 533.09Q650.8 487.89, 696 514.7Q746.55 493.25, 768 543.81Q821.46 525.26, 840 578.72Q852 518.72, 912 530.72Q940.87 487.59, 984 516.46Q1063.43 475.89, 1104 555.33Q1148.57 527.9, 1176 572.47Q1181.04 505.51, 1248 510.56Q1300.28 490.84, 1320 543.11Q1374.15 525.26, 1392 579.42Q1422.47 537.89, 1464 568.36z" fill="white"></path></g><defs><mask id="SvgjsMask1090"><rect width="1440" height="560" fill="#ffffff"></rect></mask></defs></svg>