<svg id="OBJECTS" xmlns="http://www.w3.org/2000/svg" viewBox="0 0 582.44 776.19"><defs><style>.cls-1{fill:#bc72ae;}.cls-2{fill:#ffd893;}.cls-3{fill:#e6e7e8;}.cls-4{fill:#d4a9ce;}.cls-5{fill:#d393c0;}.cls-6{fill:#bbbdbf;}.cls-7{fill:#8a5d3b;}.cls-8{fill:#f1f1f2;}.cls-9{fill:#fcc38c;}.cls-10{fill:#404041;}.cls-11{fill:#fff;}.cls-12{fill:#f69d7d;}.cls-13{fill:#f69a8b;}.cls-14{fill:#f38c9d;}.cls-15{fill:#f7aaac;}.cls-16{fill:#61b2d3;}.cls-17{fill:#71cff5;}.cls-18{fill:#bfc820;}.cls-19{fill:#d6de23;}.cls-20{fill:#cb7685;}</style></defs><title>girl</title><path class="cls-1" d="M396.55,721.86s-7.33,39.41-1.74,43,12.17,5.59,13.49-1.65c0,0,2.3,8.88,24.67,19.74s33.87,6.24,37.16,4.93,12.17-30.59-3.62-44.07c-12.55-10.73-30.91,1-35.19-27.93C431.32,715.91,398.76,707.8,396.55,721.86Z" transform="translate(-186.02 -16.75)"/><path class="cls-2" d="M429,652.13s2,47.65-.8,55.57-29.27,11.58-30.93,3.6-7.06-54.66-7.06-54.66Z" transform="translate(-186.02 -16.75)"/><path class="cls-3" d="M391.73,693.25c5.08-2.56,8.4,2.48,20.89,1.25s14.76-6.83,20.25-5.3,7,22.69.86,29-18.15,6.25-18.15,6.25-11.79,2.41-19-2.58S386.65,695.82,391.73,693.25Z" transform="translate(-186.02 -16.75)"/><path class="cls-1" d="M326.56,722.39A45.66,45.66,0,0,1,321,742.86c-5.67,10.11-19,7.89-17.76,39.47,0,0,1.73,3.7,8.14,6.9s33.55,8.88,40.95-6.66,10.36-26.64,11.1-22,9.37-3,9.62-9.37-5.67-24.94-7.15-34.8S325.48,705.86,326.56,722.39Z" transform="translate(-186.02 -16.75)"/><path class="cls-2" d="M324.43,655.68s2,47.66,5.43,55.21,30.09,8.14,31.08,0,2.47-55.21,2.47-55.21Z" transform="translate(-186.02 -16.75)"/><path class="cls-3" d="M364.59,692.46c-5.31-2.05-8.12,3.29-20.67,3.29s-15.36-5.34-20.67-3.29-4.72,23.27,2,28.94,18.68,4.44,18.68,4.44,12,1.23,18.68-4.44S369.9,694.51,364.59,692.46Z" transform="translate(-186.02 -16.75)"/><path class="cls-4" d="M311.81,752.13c-4.9,4.58-9.32,11.4-8.59,30.2,0,0,1.73,3.7,8.14,6.9,6,3,30.07,8.14,39.24-3.87C350.6,747.3,319.12,751.47,311.81,752.13Z" transform="translate(-186.02 -16.75)"/><path class="cls-4" d="M466.51,743.84c-.25-.22-.51-.41-.77-.61-10.13,1.74-27,9.33-32.94,39.66l.17.09c22.36,10.85,33.87,6.24,37.16,4.93S482.3,757.32,466.51,743.84Z" transform="translate(-186.02 -16.75)"/><path class="cls-3" d="M352.31,782.57c7.4-15.54,10.36-26.64,11.1-22s9.37-3,9.62-9.37a29,29,0,0,0-.61-5.67c-6.61,13.1-9.75,6.77-12.47,8.13-3,1.48-7.64,28.86-26.39,32.56-15.43,3.05-26.82-6.58-30.38-10.1-.05,1.9-.05,3.94,0,6.16,0,0,1.73,3.7,8.14,6.9S344.91,798.11,352.31,782.57Z" transform="translate(-186.02 -16.75)"/><path class="cls-3" d="M448.92,781.58c-34.54-6.17-37.74-32.81-42.92-23.93-3.6,6.16-9.81.56-13.28-3.44-.08,5.39.44,9.61,2.09,10.68,5.6,3.61,12.17,5.59,13.49-1.65,0,0,2.3,8.88,24.67,19.74s33.87,6.24,37.16,4.93c1-.39,2.4-3.17,3.56-7.24C467.87,782.7,459.88,783.54,448.92,781.58Z" transform="translate(-186.02 -16.75)"/><path class="cls-5" d="M298.52,566.52s-28.28,65.12-29.6,75,21.37,5.92,40.61,19.73,29.78,20.39,50.17,9.87,35.52-13.16,53.94-2.63,32.89.66,42.09-8.55,21.51-4.61,35.75-4.61-16.67-75.64-24.89-88.8S298.52,566.52,298.52,566.52Z" transform="translate(-186.02 -16.75)"/><path class="cls-6" d="M553.23,509.36l-2-.08c0-1.21,5.12-121.21,5.61-134.59S541.75,213.49,541.59,212l2-.21c.65,6.1,15.78,149.51,15.29,163S553.28,508.15,553.23,509.36Z" transform="translate(-186.02 -16.75)"/><path class="cls-6" d="M562.05,513.21c0-1.13-5.18-113.87-5.18-138.49S582,203.41,583,197.18l2,.33c-.26,1.53-26.13,152.69-26.13,177.21S564,512,564,513.12Z" transform="translate(-186.02 -16.75)"/><path class="cls-6" d="M579.1,495.8c-.91-3.93-22.23-96.3-22.17-115.35.06-19.23,74.43-132.59,77.6-137.41l1.65,1.09c-.77,1.17-77.22,117.68-77.28,136.32,0,18.83,21.9,113.94,22.12,114.9Z" transform="translate(-186.02 -16.75)"/><path class="cls-2" d="M487.8,402.07s13.32,5.43,17.27,5.92,32.07-27.94,34.53-27.53,18.26,9.28,18.26,19.15-36,55-55.26,51.2a161.79,161.79,0,0,1-36-12.23Z" transform="translate(-186.02 -16.75)"/><path class="cls-7" d="M434.93,146.24s-18.22-32.66-64.84-29.67S248.33,135.71,221.91,221.45c-20.44,66.36,16,122.72,37.12,151.15s10,40.92-3.79,39.77c0,0,35.71,40,126.76-11.42,0,0,70.87,39.14,126.26-12,0,0-20.52,4.54-15.93-16.25s32.62-50.09,22-123.62S467.44,140.59,434.93,146.24Z" transform="translate(-186.02 -16.75)"/><path class="cls-8" d="M401.7,385.2C412,365,478,392.74,491.48,395.55c0,0-.08,37.4-23.1,55.26C468.38,450.81,380.84,426.07,401.7,385.2Z" transform="translate(-186.02 -16.75)"/><path class="cls-1" d="M475.1,565.48c-3.85-8.88-24.76-79.92-29.24-114.46s-20.94-73.14-20.94-73.14l-43.4-3.16-43.4,3.16S321.66,416.49,317.18,451,291.79,556.6,287.94,565.48s21.3,22.69,93.58,22.69S479,574.36,475.1,565.48Z" transform="translate(-186.02 -16.75)"/><path class="cls-9" d="M414.82,380.85l-33.3-13.7-33.3,13.7s-1.81,31.2,33.3,31.2S414.82,380.85,414.82,380.85Z" transform="translate(-186.02 -16.75)"/><path class="cls-9" d="M530.6,252.76c1.28,9-6.14,17.47-16.57,19s-19.92-4.58-21.2-13.57,6.13-17.47,16.56-19S529.31,243.78,530.6,252.76Z" transform="translate(-186.02 -16.75)"/><path class="cls-9" d="M263,291c1.28,9-6.13,17.47-16.56,19s-19.93-4.58-21.21-13.56,6.13-17.47,16.56-19S261.68,282,263,291Z" transform="translate(-186.02 -16.75)"/><ellipse class="cls-2" cx="377.7" cy="273.21" rx="135.18" ry="113.96" transform="translate(-220.86 39.4) rotate(-8.13)"/><path class="cls-10" d="M329.36,248.79c1.5,10.51-2.64,19.81-9.25,20.75s-13.18-6.82-14.69-17.34,2.64-19.81,9.25-20.75S327.85,238.27,329.36,248.79Z" transform="translate(-186.02 -16.75)"/><path class="cls-11" d="M324.3,243.47c.51,3.57-.59,6.69-2.47,6.95s-3.81-2.41-4.32-6,.6-6.68,2.48-6.95S323.79,239.9,324.3,243.47Z" transform="translate(-186.02 -16.75)"/><path class="cls-10" d="M450.48,231.49c1.5,10.52-2.64,19.81-9.25,20.75s-13.18-6.82-14.69-17.34,2.64-19.81,9.25-20.75S449,221,450.48,231.49Z" transform="translate(-186.02 -16.75)"/><path class="cls-11" d="M444.86,225.46c.51,3.58-.6,6.69-2.47,7s-3.81-2.41-4.32-6,.6-6.68,2.47-7S444.35,221.89,444.86,225.46Z" transform="translate(-186.02 -16.75)"/><path class="cls-12" d="M379.18,269.51a19.16,19.16,0,0,0,1.07,1.89,26.92,26.92,0,0,0,3.33,4.35,22.23,22.23,0,0,0,2.66,2.26,17.63,17.63,0,0,0,3.29,1.8c.59.24,1.23.43,1.85.63l1,.2.49.11.76.21,1.11.33a2.8,2.8,0,0,1,.6.2l.76.39a10,10,0,0,1,1.44.9c.39.37.78.76,1.16,1.15a8.77,8.77,0,0,1,1.75,5.91,11.41,11.41,0,0,1-1.72,5.14,12.94,12.94,0,0,1-3.19,3.62,12.46,12.46,0,0,1-3.66,2.08L391,301l-.88.21c-.57.1-1.1.24-1.61.29a17.51,17.51,0,0,1-2.61,0c-1.44-.23-2.2-.41-2.2-.41s.81-.21,2.12-.5c.65-.15,1.4-.52,2.26-.79.41-.18.83-.44,1.27-.67l.67-.35.65-.46a14.65,14.65,0,0,0,2.53-2.25,12.73,12.73,0,0,0,2-3,9,9,0,0,0,.86-3.44,4.29,4.29,0,0,0-.9-2.83c-.17-.17-.33-.34-.49-.53s-.36-.22-.52-.36l-.25-.2a1.87,1.87,0,0,0-.5-.19l-1.1-.37-.27-.09h0l.21.05h0l-.08,0-.15-.05-.62-.17-1.23-.39c-.78-.34-1.56-.66-2.29-1.05a16.59,16.59,0,0,1-6.28-6.11,17.51,17.51,0,0,1-2.1-5.59A11.54,11.54,0,0,1,379.18,269.51Z" transform="translate(-186.02 -16.75)"/><path class="cls-13" d="M331.56,285.37c.82,5.71-7.15,11.58-17.8,13.1s-19.94-1.88-20.75-7.6,7.15-11.58,17.8-13.1S330.75,279.65,331.56,285.37Z" transform="translate(-186.02 -16.75)"/><path class="cls-13" d="M470,265.59c.82,5.72-7.15,11.59-17.8,13.11s-19.94-1.88-20.75-7.6,7.15-11.59,17.8-13.11S469.22,259.87,470,265.59Z" transform="translate(-186.02 -16.75)"/><path class="cls-12" d="M386.73,349.28c-34,0-49-23.6-49.21-23.87a2.28,2.28,0,0,1,3.88-2.4c.68,1.09,17,26.49,55.91,20.93s46.61-34.35,46.92-35.57a2.28,2.28,0,0,1,4.43,1.12c-.08.33-8.76,33-50.71,39A78.36,78.36,0,0,1,386.73,349.28Z" transform="translate(-186.02 -16.75)"/><path class="cls-7" d="M257.38,331.33s29.95-76.62,10.24-120.5c0,0,64.44-2.07,95.75-34.45,0,0,49.07,27.94,104.36,8.22,0,0,6.57,78.06,41.54,108,0,0,24.18-62.82-43.38-120.94s-168.06-3.91-194.24,24.42S221.87,269.55,257.38,331.33Z" transform="translate(-186.02 -16.75)"/><path class="cls-14" d="M251.92,147.33s-47-3.65-49,19.41,26.82,31.15,32.72,35.76,19.6,21.42,30.3,2.77,2.29-32.47,2.29-32.47Z" transform="translate(-186.02 -16.75)"/><path class="cls-14" d="M264.24,139.44s16.4-44.25,38.17-36.37,17,37.4,18.76,44.69S332.4,174.54,311,176.43s-30.44-11.51-30.44-11.51Z" transform="translate(-186.02 -16.75)"/><path class="cls-15" d="M282.1,150.17c6.53,10.21,5.58,22.49-2.13,27.42s-19.25.66-25.79-9.56-5.58-22.49,2.13-27.42S275.56,140,282.1,150.17Z" transform="translate(-186.02 -16.75)"/><path class="cls-2" d="M280.1,444.5s-17.76,29.11-21.21,34-29.6,28.12-33,33.06,12.33,28.61,23.18,22.69,36.51-29.6,41.44-33.06,29.11-32.56,29.11-32.56Z" transform="translate(-186.02 -16.75)"/><path class="cls-8" d="M335.1,381.58c-20.28-10.15-57,51.29-66.18,61.56,0,0,22.23,30.07,51.37,30.81C320.29,474,376.12,402.13,335.1,381.58Z" transform="translate(-186.02 -16.75)"/><path class="cls-2" d="M240.4,500.11a47.15,47.15,0,0,0-15.17,7.83c-7.81,6-27.52,4.84-32.73,7.07s-5.57,9.94,3.35,11.85a89.61,89.61,0,0,0,16.74,1.91S192.88,545.51,188,548.85s-.18,9.86,5.58,6.7,13.57-8.37,13.57-8.37-8.36,8.18-11.34,11.53,1.68,8.92,8.18,5.39,14.32-11,14.32-11-7.65,10.26-9.88,12.67,1.12,6.7,5.95,3.35,15.83-13.23,15.83-13.23-6.94,8.6-8.11,10.11c-3.16,4.09,1.18,8.93,6.88,3.48,6.75-6.46,24.29-27,28.94-33.12a36.86,36.86,0,0,0,6.11-13.22Z" transform="translate(-186.02 -16.75)"/><path class="cls-2" d="M535,383s4.57-12.1,9.51-19.67,12.17-14.14,18.09-15.46,19.73,6.25,23.68,11.52,8.88,15.83-1.32,28-19.64,17.81-29.72,20.57S535,383,535,383Z" transform="translate(-186.02 -16.75)"/><path class="cls-16" d="M633.54,237.08s-21,5.82-5.24,16.7S641,242.27,641,242.27Z" transform="translate(-186.02 -16.75)"/><path class="cls-17" d="M736.37,97.57c-39.26-27.16-74-14.27-96.53,18.22C615.06,151.62,601.3,220,635.36,243.58s93.21-13.43,118-49.26C775.83,161.83,775.63,124.73,736.37,97.57Z" transform="translate(-186.02 -16.75)"/><path class="cls-11" d="M690.15,118.77c-11.33,5.44-22.74,5.21-25.49-.52s4.2-14.78,15.53-20.22,22.73-5.2,25.48.52S701.47,113.33,690.15,118.77Z" transform="translate(-186.02 -16.75)"/><path class="cls-18" d="M534.05,215.15s-7.06,20.58,10.81,13.76-2.29-17-2.29-17Z" transform="translate(-186.02 -16.75)"/><path class="cls-19" d="M477.16,51.44c-44.61,17-53.65,53-39.57,89.91,15.53,40.7,64.16,90.73,102.85,76s41.64-84.48,26.12-125.18C552.47,55.24,521.77,34.43,477.16,51.44Z" transform="translate(-186.02 -16.75)"/><path class="cls-11" d="M468.5,101.54c-1.92,12.42-8.56,21.7-14.84,20.73s-9.81-11.82-7.9-24.24,8.57-21.7,14.85-20.73S470.42,89.13,468.5,101.54Z" transform="translate(-186.02 -16.75)"/><path class="cls-20" d="M580.58,188.58s-16.1,14.63,2.83,17.28,6.2-16,6.2-16Z" transform="translate(-186.02 -16.75)"/><path class="cls-14" d="M609.72,17.74c-47.28-6.61-72.56,20.54-78,59.67-6,43.14,12.43,110.43,53.44,116.16s77.22-53.9,83.26-97C673.86,57.4,657,24.35,609.72,17.74Z" transform="translate(-186.02 -16.75)"/><path class="cls-11" d="M578,57.45c-7.67,10-18,14.87-23,11s-2.89-15.09,4.78-25.05,18-14.87,23-11S585.63,47.5,578,57.45Z" transform="translate(-186.02 -16.75)"/></svg>