<svg xmlns="http://www.w3.org/2000/svg" xmlns:xlink="http://www.w3.org/1999/xlink" viewBox="0 0 370.88 52.51"><defs><style>.cls-1{fill:none;}.cls-2{isolation:isolate;}.cls-3{clip-path:url(#clip-path);}.cls-4,.cls-5,.cls-6{fill:#5ba72b;}.cls-11,.cls-14,.cls-22,.cls-25,.cls-29,.cls-30,.cls-31,.cls-5,.cls-8{mix-blend-mode:multiply;}.cls-16,.cls-6{mix-blend-mode:color-dodge;}.cls-7,.cls-8{fill:#83c240;}.cls-9{fill:#bfd731;}.cls-10{fill:#40661a;}.cls-11,.cls-35{opacity:0.6;}.cls-12{fill:#a8cf38;}.cls-13,.cls-15{fill:#135548;}.cls-14{fill:#0f443a;}.cls-14,.cls-22{opacity:0.4;}.cls-15,.cls-16,.cls-31{opacity:0.7;}.cls-15,.cls-21,.cls-35,.cls-36{mix-blend-mode:screen;}.cls-16{fill:#1f8447;}.cls-17{fill:#218f4f;}.cls-18{fill:#995336;}.cls-19{fill:#ba6644;}.cls-20,.cls-21{fill:#9c5e39;}.cls-22{fill:#9fb63a;}.cls-23{fill:#fff;}.cls-24{fill:#f8c95c;}.cls-25{fill:#bbd431;opacity:0.9;}.cls-26,.cls-30,.cls-31,.cls-35,.cls-36{fill:#ba864d;}.cls-27{fill:#905a2a;}.cls-28,.cls-29{fill:#d9c7a8;}.cls-30{opacity:0.5;}.cls-32{fill:#3d9919;}.cls-33{fill:#729e07;}.cls-34{fill:#99bb16;}</style><clipPath id="clip-path" transform="translate(9.31 -188.04)"><rect class="cls-1" width="350.74" height="229.42"/></clipPath></defs><title>ground_park</title><g class="cls-2"><g id="Layer_1" data-name="Layer 1"><g class="cls-3"><path class="cls-4" d="M329.62,212.16a3.94,3.94,0,0,0,2-2.5,3,3,0,0,0-1-2.67,6.86,6.86,0,0,0-.86-.67,1.66,1.66,0,0,0-.09-1.54,2.55,2.55,0,0,0-.48-.65c2-.82,3.75-2.34,2.88-4.15a5.42,5.42,0,0,0-3.7-2.79,4.83,4.83,0,0,0-2.11,0,2.71,2.71,0,0,0,.51-2,1.69,1.69,0,0,0-1.78-1.05l.07-.22a2.92,2.92,0,0,0-.65-3c-1.51-1.21-3.11-.47-4.34.89a9,9,0,0,0,0-.93c-.24-2.3-3.22-2.53-4.91-1.89a3.32,3.32,0,0,0-1.15.75l-.05.06a6.15,6.15,0,0,0-1.25,1.94c-.82-2.06-2.36-3.7-4.41-2.74a2.94,2.94,0,0,0-1.34,2.78c0,.07,0,.15,0,.22a1.67,1.67,0,0,0-2,.61,2.65,2.65,0,0,0,0,2.1,4.94,4.94,0,0,0-2.07-.46,5.47,5.47,0,0,0-4.25,1.85c-1.27,1.56,0,3.43,1.82,4.71a2.55,2.55,0,0,0-.61.52,1.65,1.65,0,0,0-.45,1.48,6.23,6.23,0,0,0-1,.44,3,3,0,0,0-1.61,2.36,4,4,0,0,0,1.34,2.9,4.23,4.23,0,0,0-2.14,3.83,2.5,2.5,0,0,0,1.92,2.16,1.58,1.58,0,0,0-.23,1c.08.66,1,.63,1.46.53h0c-.79.85-1.46,1.9-1,2.94.68,1.49,2.5,1.37,3.76.83-.32.65-.38,1.26.18,1.65.8.56,2.21.1,3.14-.33a4.07,4.07,0,0,0,2.27,1.27A4.27,4.27,0,0,0,310,222a1.53,1.53,0,0,0,.59.66c1.11.7,2.76.08,3.85-.46a4.28,4.28,0,0,0,2.76,1.31,4.1,4.1,0,0,0,2.5-.7c.81.63,2.07,1.41,3,1.05.63-.25.72-.85.56-1.56,1.1.81,2.85,1.36,3.85.08.72-.91.31-2.08-.26-3.09h0c.42.2,1.31.44,1.54-.17a1.64,1.64,0,0,0,0-1.05,2.53,2.53,0,0,0,2.37-1.65A4.25,4.25,0,0,0,329.62,212.16Z" transform="translate(9.31 -188.04)"/><path class="cls-5" d="M329.62,212.16a3.94,3.94,0,0,0,2-2.5,3,3,0,0,0-1-2.67,6.86,6.86,0,0,0-.86-.67,1.66,1.66,0,0,0-.09-1.54,2.55,2.55,0,0,0-.48-.65c2-.82,3.75-2.34,2.88-4.15a5.42,5.42,0,0,0-3.7-2.79,4.83,4.83,0,0,0-2.11,0,2.71,2.71,0,0,0,.51-2,1.69,1.69,0,0,0-1.78-1.05l.07-.22a2.92,2.92,0,0,0-.65-3c-1.51-1.21-3.11-.47-4.34.89a9,9,0,0,0,0-.93c-.24-2.3-3.22-2.53-4.91-1.89a3.32,3.32,0,0,0-1.15.75l-.05.06a6.15,6.15,0,0,0-1.25,1.94c-.82-2.06-2.36-3.7-4.41-2.74a2.94,2.94,0,0,0-1.34,2.78c0,.07,0,.15,0,.22a1.67,1.67,0,0,0-2,.61,2.65,2.65,0,0,0,0,2.1,4.94,4.94,0,0,0-2.07-.46,5.47,5.47,0,0,0-4.25,1.85c-1.27,1.56,0,3.43,1.82,4.71a2.55,2.55,0,0,0-.61.52,1.65,1.65,0,0,0-.45,1.48,6.23,6.23,0,0,0-1,.44,3,3,0,0,0-1.61,2.36,4,4,0,0,0,1.34,2.9,4.23,4.23,0,0,0-2.14,3.83,2.5,2.5,0,0,0,1.92,2.16,1.58,1.58,0,0,0-.23,1c.08.66,1,.63,1.46.53h0c-.79.85-1.46,1.9-1,2.94.68,1.49,2.5,1.37,3.76.83-.32.65-.38,1.26.18,1.65.8.56,2.21.1,3.14-.33a4.07,4.07,0,0,0,2.27,1.27A4.27,4.27,0,0,0,310,222a1.53,1.53,0,0,0,.59.66c1.11.7,2.76.08,3.85-.46a4.28,4.28,0,0,0,2.76,1.31,4.1,4.1,0,0,0,2.5-.7c.81.63,2.07,1.41,3,1.05.63-.25.72-.85.56-1.56,1.1.81,2.85,1.36,3.85.08.72-.91.31-2.08-.26-3.09h0c.42.2,1.31.44,1.54-.17a1.64,1.64,0,0,0,0-1.05,2.53,2.53,0,0,0,2.37-1.65A4.25,4.25,0,0,0,329.62,212.16Zm-4.38-5.25a3,3,0,0,1-1.15,4.24,5,5,0,0,1-5.71-.45,5.51,5.51,0,0,1-.76-.85,2.42,2.42,0,0,1-2.79,1.75,3.26,3.26,0,0,1-2.71-2.91,5.48,5.48,0,0,1-4.18,3,2.72,2.72,0,0,1-2.91-1.44,2.36,2.36,0,0,1,.1-1.69c-.81.57-1.77.9-2.24-.1a.94.94,0,0,1-.07-.3c-1.6.81-3.4,1-4.13-.92-.62-1.63.8-3,2.41-3.67a.8.8,0,0,1-.46-.3,1.15,1.15,0,0,1,.23-1.38,3.67,3.67,0,0,1,1.87-1c-1.54-1-2.94-2.63-1.76-4.14,1.39-1.76,3-1.4,4.25-.29a1.71,1.71,0,0,1,.13-.34c.45-.93,1.12-.83,1.71-.37a4.72,4.72,0,0,1,.23-2.62c.5-1.16,1.87-2.14,3.15-1.47a4,4,0,0,1,1.78,3.19,6.86,6.86,0,0,1,2-2.31c1-.72,2.7-1,3.5.23a4.18,4.18,0,0,1,.6,1.77,1.72,1.72,0,0,1,1.39-.34,1.32,1.32,0,0,1,1,1.8,4.48,4.48,0,0,1,2.13-.62,1.68,1.68,0,0,1,1.79,1.65,5.91,5.91,0,0,1-1.4,3.1c1.41-.33,3.18-.48,4,.69,1.52,2.2-.92,4.3-2.84,5.25A3.18,3.18,0,0,1,325.24,206.91Z" transform="translate(9.31 -188.04)"/><path class="cls-5" d="M329.62,212.16a3.94,3.94,0,0,0,2-2.5,3,3,0,0,0-1-2.67,6.26,6.26,0,0,0-.49-.41l-.28,0a3.79,3.79,0,0,1,.54,2.74,3.66,3.66,0,0,1-2.36,2.45,6,6,0,0,1-1.43.27c.88.69,2.08,1.84,1.61,3s-1.89,1.33-3.32.89a1.16,1.16,0,0,1-.44,1.53c-.89.56-1.84,0-2.65-.86a5.09,5.09,0,0,1-.1,1.18,2.39,2.39,0,0,1-2.16,2c-2.2,0-3.21-1.83-3.88-3.73-.11,1.25-.48,2.7-1.68,2.44s-1.57-1.46-1.72-2.71c-.83,1.41-2.28,2.53-3.63,2.28a2,2,0,0,1-1.61-2,5.42,5.42,0,0,1-1.76,1.71c-.8.45-2.21.54-2.61-.54a2.28,2.28,0,0,1,.2-1.89c-.88.57-1.89,1-2.31.16a2,2,0,0,1,.08-2,4.13,4.13,0,0,1-1.95.21,2.11,2.11,0,0,1-1.71-2.25,3.92,3.92,0,0,1,1.53-3.21l-.33.12h0a4.23,4.23,0,0,0-2.14,3.83,2.5,2.5,0,0,0,1.92,2.16,1.58,1.58,0,0,0-.23,1c.08.66,1,.63,1.46.53h0c-.79.85-1.46,1.9-1,2.94.68,1.49,2.5,1.37,3.76.83-.32.65-.38,1.26.18,1.65.8.56,2.21.1,3.14-.33a4.07,4.07,0,0,0,2.27,1.27A4.27,4.27,0,0,0,310,222a1.53,1.53,0,0,0,.59.66c1.11.7,2.76.08,3.85-.46a4.28,4.28,0,0,0,2.76,1.31,4.1,4.1,0,0,0,2.5-.7c.81.63,2.07,1.41,3,1.05.63-.25.72-.85.56-1.56,1.1.81,2.85,1.36,3.85.08.72-.91.31-2.08-.26-3.09h0c.42.2,1.31.44,1.54-.17a1.64,1.64,0,0,0,0-1.05,2.53,2.53,0,0,0,2.37-1.65A4.25,4.25,0,0,0,329.62,212.16Z" transform="translate(9.31 -188.04)"/><path class="cls-6" d="M304.32,197.05c-.13-.43-.52-.69-1.28-.5-1,.24-1.79,1.7-1.11,2.59C302.9,200.4,304.61,198.06,304.32,197.05Z" transform="translate(9.31 -188.04)"/><path class="cls-6" d="M302,206c-.07-.23-.28-.37-.69-.27a1,1,0,0,0-.6,1.41C301.27,207.81,302.2,206.54,302,206Z" transform="translate(9.31 -188.04)"/><path class="cls-6" d="M305.63,215.13c-.06-.23-.27-.37-.69-.26s-1,.91-.6,1.39C304.87,217,305.79,215.68,305.63,215.13Z" transform="translate(9.31 -188.04)"/><path class="cls-6" d="M302.7,212.61c0-.09-.1-.14-.25-.1a.36.36,0,0,0-.22.51C302.42,213.27,302.76,212.8,302.7,212.61Z" transform="translate(9.31 -188.04)"/><path class="cls-6" d="M311.86,205c-1.12-.73-2.52.93-2.8,1.86-.36,1.18.44,1.87,1.56,1.35C311.45,207.85,313.1,205.84,311.86,205Z" transform="translate(9.31 -188.04)"/><path class="cls-6" d="M325.09,214c-.43-.28-1,.36-1.08.71s.18.72.61.52S325.57,214.33,325.09,214Z" transform="translate(9.31 -188.04)"/><path class="cls-6" d="M322.37,197.09c-.78-.51-1.75.64-1.94,1.28-.25.82.3,1.3,1.08.94C322.08,199.05,323.23,197.65,322.37,197.09Z" transform="translate(9.31 -188.04)"/><path class="cls-7" d="M355.58,217.51a3.56,3.56,0,0,0,1.79-2.18,2.65,2.65,0,0,0-.85-2.39,5.55,5.55,0,0,0-.75-.61,1.45,1.45,0,0,0,0-1.37,2.43,2.43,0,0,0-.41-.58c1.83-.7,3.36-2,2.62-3.64a4.83,4.83,0,0,0-3.24-2.54,4.33,4.33,0,0,0-1.87-.07,2.37,2.37,0,0,0,.49-1.8,1.5,1.5,0,0,0-1.56-1,1.39,1.39,0,0,0,.06-.19,2.58,2.58,0,0,0-.52-2.68c-1.32-1.1-2.75-.48-3.87.71a7.42,7.42,0,0,0,0-.83c-.17-2-2.81-2.29-4.32-1.76a3.1,3.1,0,0,0-1,.65l-.05.05a5.35,5.35,0,0,0-1.14,1.7c-.7-1.83-2-3.32-3.87-2.5a2.6,2.6,0,0,0-1.24,2.44,1.27,1.27,0,0,1,0,.2,1.47,1.47,0,0,0-1.76.51,2.38,2.38,0,0,0,0,1.86,4.13,4.13,0,0,0-1.82-.44,4.83,4.83,0,0,0-3.81,1.57c-1.15,1.36,0,3,1.54,4.21a2.37,2.37,0,0,0-.55.44,1.48,1.48,0,0,0-.43,1.31,6.26,6.26,0,0,0-.89.38,2.7,2.7,0,0,0-1.46,2.07,3.55,3.55,0,0,0,1.13,2.59,3.78,3.78,0,0,0-2,3.37A2.21,2.21,0,0,0,327.4,219a1.37,1.37,0,0,0-.22.91c.06.58.87.58,1.28.49h0c-.71.75-1.33,1.66-.92,2.6.58,1.33,2.2,1.25,3.33.8-.3.57-.36,1.11.12,1.46.71.51,2,.13,2.8-.23a3.56,3.56,0,0,0,2,1.16,3.69,3.69,0,0,0,2.23-.27,1.46,1.46,0,0,0,.52.6c1,.64,2.45.12,3.42-.34a3.86,3.86,0,0,0,2.43,1.21,3.79,3.79,0,0,0,2.24-.58c.7.57,1.8,1.28,2.62,1,.57-.21.65-.74.52-1.37,1,.74,2.51,1.26,3.42.13.65-.79.31-1.84-.18-2.74h0c.37.19,1.15.41,1.37-.13a1.42,1.42,0,0,0,0-.93,2.23,2.23,0,0,0,2.13-1.42A3.77,3.77,0,0,0,355.58,217.51Z" transform="translate(9.31 -188.04)"/><path class="cls-8" d="M355.58,217.51a3.56,3.56,0,0,0,1.79-2.18,2.65,2.65,0,0,0-.85-2.39,5.55,5.55,0,0,0-.75-.61,1.45,1.45,0,0,0,0-1.37,2.43,2.43,0,0,0-.41-.58c1.83-.7,3.36-2,2.62-3.64a4.83,4.83,0,0,0-3.24-2.54,4.33,4.33,0,0,0-1.87-.07,2.37,2.37,0,0,0,.49-1.8,1.5,1.5,0,0,0-1.56-1,1.39,1.39,0,0,0,.06-.19,2.58,2.58,0,0,0-.52-2.68c-1.32-1.1-2.75-.48-3.87.71a7.42,7.42,0,0,0,0-.83c-.17-2-2.81-2.29-4.32-1.76a3.1,3.1,0,0,0-1,.65l-.05.05a5.35,5.35,0,0,0-1.14,1.7c-.7-1.83-2-3.32-3.87-2.5a2.6,2.6,0,0,0-1.24,2.44,1.27,1.27,0,0,1,0,.2,1.47,1.47,0,0,0-1.76.51,2.38,2.38,0,0,0,0,1.86,4.13,4.13,0,0,0-1.82-.44,4.83,4.83,0,0,0-3.81,1.57c-1.15,1.36,0,3,1.54,4.21a2.37,2.37,0,0,0-.55.44,1.48,1.48,0,0,0-.43,1.31,6.26,6.26,0,0,0-.89.38,2.7,2.7,0,0,0-1.46,2.07,3.55,3.55,0,0,0,1.13,2.59,3.78,3.78,0,0,0-2,3.37A2.21,2.21,0,0,0,327.4,219a1.37,1.37,0,0,0-.22.91c.06.58.87.58,1.28.49h0c-.71.75-1.33,1.66-.92,2.6.58,1.33,2.2,1.25,3.33.8-.3.57-.36,1.11.12,1.46.71.51,2,.13,2.8-.23a3.56,3.56,0,0,0,2,1.16,3.69,3.69,0,0,0,2.23-.27,1.46,1.46,0,0,0,.52.6c1,.64,2.45.12,3.42-.34a3.86,3.86,0,0,0,2.43,1.21,3.79,3.79,0,0,0,2.24-.58c.7.57,1.8,1.28,2.62,1,.57-.21.65-.74.52-1.37,1,.74,2.51,1.26,3.42.13.65-.79.31-1.84-.18-2.74h0c.37.19,1.15.41,1.37-.13a1.42,1.42,0,0,0,0-.93,2.23,2.23,0,0,0,2.13-1.42A3.77,3.77,0,0,0,355.58,217.51Zm-3.81-4.74a2.63,2.63,0,0,1-1.08,3.75,4.41,4.41,0,0,1-5.07-.5,4.73,4.73,0,0,1-.66-.76,2.15,2.15,0,0,1-2.5,1.5,2.9,2.9,0,0,1-2.36-2.63,4.88,4.88,0,0,1-3.76,2.56,2.41,2.41,0,0,1-2.56-1.33,2.12,2.12,0,0,1,.12-1.5c-.73.49-1.59.77-2-.12a.89.89,0,0,1-.07-.28c-1.43.7-3,.86-3.65-.89-.52-1.45.76-2.62,2.21-3.21a.7.7,0,0,1-.4-.27,1,1,0,0,1,.22-1.22,3.26,3.26,0,0,1,1.68-.86c-1.35-.92-2.57-2.38-1.49-3.7,1.26-1.54,2.68-1.19,3.78-.19a2.09,2.09,0,0,1,.11-.3.89.89,0,0,1,1.53-.3,4.11,4.11,0,0,1,.25-2.32,2.13,2.13,0,0,1,2.82-1.25,3.52,3.52,0,0,1,1.53,2.86,6,6,0,0,1,1.79-2c.94-.63,2.42-.86,3.11.26a3.77,3.77,0,0,1,.5,1.58,1.53,1.53,0,0,1,1.23-.28c.84.19,1,.91.83,1.62a4,4,0,0,1,1.9-.52,1.49,1.49,0,0,1,1.56,1.5,5.28,5.28,0,0,1-1.29,2.73c1.26-.27,2.83-.37,3.53.68,1.31,2-.9,3.8-2.62,4.61A2.7,2.7,0,0,1,351.77,212.77Z" transform="translate(9.31 -188.04)"/><path class="cls-5" d="M355.58,217.51a3.56,3.56,0,0,0,1.79-2.18,2.65,2.65,0,0,0-.85-2.39,3,3,0,0,0-.43-.37l-.24,0a3.32,3.32,0,0,1,.43,2.44,3.26,3.26,0,0,1-2.14,2.13,5.13,5.13,0,0,1-1.27.22c.77.62,1.81,1.66,1.37,2.73s-1.69,1.15-2.95.74a1,1,0,0,1-.43,1.34c-.8.49-1.63-.05-2.33-.8a4.48,4.48,0,0,1-.11,1,2.13,2.13,0,0,1-2,1.74c-1.94,0-2.81-1.68-3.37-3.38-.12,1.11-.48,2.39-1.53,2.14s-1.38-1.32-1.48-2.44c-.76,1.24-2.08,2.21-3.27,2a1.78,1.78,0,0,1-1.39-1.78,5,5,0,0,1-1.59,1.49c-.72.38-2,.43-2.31-.53a2,2,0,0,1,.21-1.67c-.79.48-1.69.83-2.06.1a1.82,1.82,0,0,1,.11-1.78,3.69,3.69,0,0,1-1.73.15,1.87,1.87,0,0,1-1.48-2,3.48,3.48,0,0,1,1.41-2.82l-.29.1h0a3.78,3.78,0,0,0-2,3.37A2.21,2.21,0,0,0,327.4,219a1.37,1.37,0,0,0-.22.91c.06.58.87.58,1.28.49h0c-.71.75-1.33,1.66-.92,2.6.58,1.33,2.2,1.25,3.33.8-.3.57-.36,1.11.12,1.46.71.51,2,.13,2.8-.23a3.56,3.56,0,0,0,2,1.16,3.69,3.69,0,0,0,2.23-.27,1.46,1.46,0,0,0,.52.6c1,.64,2.45.12,3.42-.34a3.86,3.86,0,0,0,2.43,1.21,3.79,3.79,0,0,0,2.24-.58c.7.57,1.8,1.28,2.62,1,.57-.21.65-.74.52-1.37,1,.74,2.51,1.26,3.42.13.65-.79.31-1.84-.18-2.74h0c.37.19,1.15.41,1.37-.13a1.42,1.42,0,0,0,0-.93,2.23,2.23,0,0,0,2.13-1.42A3.77,3.77,0,0,0,355.58,217.51Z" transform="translate(9.31 -188.04)"/><path class="cls-6" d="M333.37,203.66c-.1-.38-.44-.62-1.12-.46a1.62,1.62,0,0,0-1,2.28C332.06,206.61,333.61,204.56,333.37,203.66Z" transform="translate(9.31 -188.04)"/><path class="cls-6" d="M331.2,211.56c-.06-.2-.24-.33-.61-.25s-.88.8-.56,1.24C330.49,213.16,331.33,212.05,331.2,211.56Z" transform="translate(9.31 -188.04)"/><path class="cls-6" d="M334.23,219.74c-.05-.21-.24-.34-.61-.25s-.88.8-.55,1.23C333.52,221.34,334.36,220.23,334.23,219.74Z" transform="translate(9.31 -188.04)"/><path class="cls-6" d="M331.67,217.45c0-.08-.09-.13-.22-.1s-.32.29-.2.45S331.72,217.62,331.67,217.45Z" transform="translate(9.31 -188.04)"/><path class="cls-6" d="M339.93,210.87c-1-.67-2.25.78-2.52,1.6-.34,1,.36,1.67,1.37,1.23C339.52,213.38,341,211.62,339.93,210.87Z" transform="translate(9.31 -188.04)"/><path class="cls-6" d="M351.52,219.08c-.37-.26-.86.3-1,.61s.15.64.53.47S351.94,219.37,351.52,219.08Z" transform="translate(9.31 -188.04)"/><path class="cls-6" d="M349.39,204c-.67-.46-1.56.54-1.74,1.1-.23.73.25,1.16,1,.85C349.11,205.74,350.15,204.53,349.39,204Z" transform="translate(9.31 -188.04)"/><path class="cls-4" d="M299,215.44a2,2,0,0,0,1-1.27,1.49,1.49,0,0,0-.51-1.35,2.79,2.79,0,0,0-.43-.34.84.84,0,0,0-.05-.78,1.27,1.27,0,0,0-.24-.33c1-.42,1.9-1.19,1.46-2.1a2.73,2.73,0,0,0-1.88-1.42,2.4,2.4,0,0,0-1.07,0,1.34,1.34,0,0,0,.26-1,.86.86,0,0,0-.9-.54l0-.11a1.46,1.46,0,0,0-.32-1.52c-.77-.62-1.58-.25-2.21.45a2.46,2.46,0,0,0,0-.48c-.12-1.16-1.63-1.28-2.49-1a1.85,1.85,0,0,0-.58.39s0,0,0,0a3,3,0,0,0-.64,1c-.42-1-1.2-1.88-2.23-1.39a1.47,1.47,0,0,0-.68,1.41.45.45,0,0,0,0,.11.85.85,0,0,0-1,.31,1.31,1.31,0,0,0,0,1.07,2.47,2.47,0,0,0-1.05-.24,2.8,2.8,0,0,0-2.16.94c-.64.79,0,1.74.93,2.39a1.13,1.13,0,0,0-.31.26.82.82,0,0,0-.23.75,3.22,3.22,0,0,0-.5.23,1.53,1.53,0,0,0-.82,1.19,2,2,0,0,0,.68,1.48,2.15,2.15,0,0,0-1.09,1.94,1.29,1.29,0,0,0,1,1.09.79.79,0,0,0-.12.52c0,.33.51.32.74.27h0c-.4.43-.74,1-.5,1.49.35.76,1.27.69,1.91.42-.16.33-.19.64.09.83s1.12.06,1.6-.16a2,2,0,0,0,1.15.64,2.09,2.09,0,0,0,1.27-.18.83.83,0,0,0,.31.34c.55.35,1.39,0,1.94-.23a2.24,2.24,0,0,0,1.4.66,2,2,0,0,0,1.27-.36c.41.32,1.05.72,1.52.54.31-.13.36-.43.27-.79.56.41,1.45.69,2,0a1.4,1.4,0,0,0-.13-1.57h0c.21.1.66.23.78-.09a.8.8,0,0,0,0-.53,1.28,1.28,0,0,0,1.2-.84A2.15,2.15,0,0,0,299,215.44Z" transform="translate(9.31 -188.04)"/><path class="cls-5" d="M299,215.44a2,2,0,0,0,1-1.27,1.49,1.49,0,0,0-.51-1.35,2.79,2.79,0,0,0-.43-.34.84.84,0,0,0-.05-.78,1.27,1.27,0,0,0-.24-.33c1-.42,1.9-1.19,1.46-2.1a2.73,2.73,0,0,0-1.88-1.42,2.4,2.4,0,0,0-1.07,0,1.34,1.34,0,0,0,.26-1,.86.86,0,0,0-.9-.54l0-.11a1.46,1.46,0,0,0-.32-1.52c-.77-.62-1.58-.25-2.21.45a2.46,2.46,0,0,0,0-.48c-.12-1.16-1.63-1.28-2.49-1a1.85,1.85,0,0,0-.58.39s0,0,0,0a3,3,0,0,0-.64,1c-.42-1-1.2-1.88-2.23-1.39a1.47,1.47,0,0,0-.68,1.41.45.45,0,0,0,0,.11.85.85,0,0,0-1,.31,1.31,1.31,0,0,0,0,1.07,2.47,2.47,0,0,0-1.05-.24,2.8,2.8,0,0,0-2.16.94c-.64.79,0,1.74.93,2.39a1.13,1.13,0,0,0-.31.26.82.82,0,0,0-.23.75,3.22,3.22,0,0,0-.5.23,1.53,1.53,0,0,0-.82,1.19,2,2,0,0,0,.68,1.48,2.15,2.15,0,0,0-1.09,1.94,1.29,1.29,0,0,0,1,1.09.79.79,0,0,0-.12.52c0,.33.51.32.74.27h0c-.4.43-.74,1-.5,1.49.35.76,1.27.69,1.91.42-.16.33-.19.64.09.83s1.12.06,1.6-.16a2,2,0,0,0,1.15.64,2.09,2.09,0,0,0,1.27-.18.83.83,0,0,0,.31.34c.55.35,1.39,0,1.94-.23a2.24,2.24,0,0,0,1.4.66,2,2,0,0,0,1.27-.36c.41.32,1.05.72,1.52.54.31-.13.36-.43.27-.79.56.41,1.45.69,2,0a1.4,1.4,0,0,0-.13-1.57h0c.21.1.66.23.78-.09a.8.8,0,0,0,0-.53,1.28,1.28,0,0,0,1.2-.84A2.15,2.15,0,0,0,299,215.44Zm-2.22-2.66a1.5,1.5,0,0,1-.58,2.15,2.52,2.52,0,0,1-2.9-.23,2.55,2.55,0,0,1-.38-.43,1.23,1.23,0,0,1-1.42.88,1.65,1.65,0,0,1-1.37-1.47,2.79,2.79,0,0,1-2.12,1.5,1.38,1.38,0,0,1-1.48-.73,1.19,1.19,0,0,1,0-.85c-.41.28-.89.45-1.13,0a.94.94,0,0,1,0-.16c-.81.41-1.72.53-2.09-.47-.32-.82.4-1.51,1.22-1.85a.38.38,0,0,1-.23-.16.58.58,0,0,1,.11-.7,2,2,0,0,1,.95-.51c-.78-.5-1.49-1.33-.89-2.09a1.35,1.35,0,0,1,2.16-.15.58.58,0,0,1,.92-.36,2.47,2.47,0,0,1,.12-1.33,1.22,1.22,0,0,1,1.6-.74,2,2,0,0,1,.9,1.61,3.64,3.64,0,0,1,1-1.17,1.24,1.24,0,0,1,1.78.12,2.1,2.1,0,0,1,.31.89.89.89,0,0,1,.7-.17.67.67,0,0,1,.49.92,2.22,2.22,0,0,1,1.08-.32.86.86,0,0,1,.91.84,3.07,3.07,0,0,1-.71,1.57c.71-.17,1.61-.24,2,.35.77,1.12-.47,2.18-1.44,2.66A1.64,1.64,0,0,1,296.79,212.78Z" transform="translate(9.31 -188.04)"/><path class="cls-5" d="M299,215.44a2,2,0,0,0,1-1.27,1.49,1.49,0,0,0-.51-1.35,2.52,2.52,0,0,0-.25-.21h-.14a1.92,1.92,0,0,1,.28,1.39,1.86,1.86,0,0,1-1.2,1.24,3.06,3.06,0,0,1-.72.14c.44.35,1,.93.81,1.54s-.95.68-1.68.46a.58.58,0,0,1-.23.77c-.45.29-.93,0-1.34-.43a2.39,2.39,0,0,1,0,.6,1.2,1.2,0,0,1-1.1,1c-1.11,0-1.62-.93-2-1.89-.06.63-.25,1.37-.85,1.24s-.8-.74-.88-1.38a2,2,0,0,1-1.84,1.16,1,1,0,0,1-.81-1,3,3,0,0,1-.89.87c-.41.23-1.13.27-1.33-.27a1.19,1.19,0,0,1,.1-1c-.45.28-1,.49-1.17.08a1,1,0,0,1,0-1,2,2,0,0,1-1,.1,1.06,1.06,0,0,1-.87-1.13,2,2,0,0,1,.78-1.63l-.16.06h0a2.15,2.15,0,0,0-1.09,1.94,1.29,1.29,0,0,0,1,1.09.79.79,0,0,0-.12.52c0,.33.51.32.74.27h0c-.4.43-.74,1-.5,1.49.35.76,1.27.69,1.91.42-.16.33-.19.64.09.83s1.12.06,1.6-.16a2,2,0,0,0,1.15.64,2.09,2.09,0,0,0,1.27-.18.83.83,0,0,0,.31.34c.55.35,1.39,0,1.94-.23a2.24,2.24,0,0,0,1.4.66,2,2,0,0,0,1.27-.36c.41.32,1.05.72,1.52.54.31-.13.36-.43.27-.79.56.41,1.45.69,2,0a1.4,1.4,0,0,0-.13-1.57h0c.21.1.66.23.78-.09a.8.8,0,0,0,0-.53,1.28,1.28,0,0,0,1.2-.84A2.15,2.15,0,0,0,299,215.44Z" transform="translate(9.31 -188.04)"/><path class="cls-6" d="M286.18,207.78c-.06-.22-.26-.35-.65-.26a.93.93,0,0,0-.56,1.32C285.46,209.48,286.33,208.29,286.18,207.78Z" transform="translate(9.31 -188.04)"/><path class="cls-6" d="M285,212.31c0-.11-.15-.18-.35-.13a.5.5,0,0,0-.31.71C284.64,213.23,285.11,212.59,285,212.31Z" transform="translate(9.31 -188.04)"/><path class="cls-6" d="M286.85,217c0-.12-.14-.19-.35-.14s-.5.47-.3.71S286.93,217.22,286.85,217Z" transform="translate(9.31 -188.04)"/><path class="cls-6" d="M285.36,215.67s-.05-.07-.13,0a.19.19,0,0,0-.11.26C285.22,216,285.39,215.77,285.36,215.67Z" transform="translate(9.31 -188.04)"/><path class="cls-6" d="M290,211.82c-.57-.37-1.28.47-1.43.94s.23,1,.8.69C289.79,213.26,290.64,212.23,290,211.82Z" transform="translate(9.31 -188.04)"/><path class="cls-6" d="M296.72,216.38c-.22-.14-.49.18-.55.36s.09.36.3.26S297,216.54,296.72,216.38Z" transform="translate(9.31 -188.04)"/><path class="cls-6" d="M295.33,207.8c-.39-.26-.88.32-1,.65s.16.66.55.48S295.77,208.08,295.33,207.8Z" transform="translate(9.31 -188.04)"/><path class="cls-4" d="M30.6,215.29A2.52,2.52,0,0,0,32.9,217a1.64,1.64,0,0,0,0,1.05c.21.63,1.11.42,1.53.23h0c-.6,1-1,2.14-.38,3.08,1,1.32,2.73.83,3.86.06-.19.71-.12,1.31.5,1.58.9.39,2.18-.33,3-.94a4.12,4.12,0,0,0,2.48.8,4.34,4.34,0,0,0,2.81-1.2c1.07.58,2.69,1.26,3.82.6a1.61,1.61,0,0,0,.63-.64,4.22,4.22,0,0,0,2.49.45A4.08,4.08,0,0,0,56,220.92c.92.46,2.31,1,3.13.44.57-.37.54-1,.23-1.64,1.25.58,3.07.78,3.8-.68.52-1-.11-2.1-.87-3h0c.46.12,1.37.18,1.48-.47a1.62,1.62,0,0,0-.19-1,2.5,2.5,0,0,0,2-2.08,4.24,4.24,0,0,0-2-3.91A4,4,0,0,0,65,205.72a3,3,0,0,0-1.52-2.42,6.24,6.24,0,0,0-1-.48,1.69,1.69,0,0,0-.39-1.5,2.58,2.58,0,0,0-.6-.54c1.84-1.21,3.21-3,2-4.64a5.47,5.47,0,0,0-4.18-2,4.78,4.78,0,0,0-2.08.39,2.68,2.68,0,0,0,.1-2.1,1.69,1.69,0,0,0-2-.69l0-.22a2.93,2.93,0,0,0-1.24-2.82c-2-1-3.61.54-4.51,2.56a6,6,0,0,0-1.17-2l0-.06a3.49,3.49,0,0,0-1.12-.8c-1.67-.7-4.65-.58-5,1.71,0,.27-.06.59-.07.93-1.18-1.41-2.75-2.21-4.31-1.05a2.93,2.93,0,0,0-.76,3l.06.22a1.66,1.66,0,0,0-1.81,1,2.7,2.7,0,0,0,.43,2.06,4.71,4.71,0,0,0-2.11,0,5.4,5.4,0,0,0-3.8,2.65c-.94,1.78.7,3.36,2.71,4.26a2.83,2.83,0,0,0-.5.63,1.68,1.68,0,0,0-.15,1.54,6.47,6.47,0,0,0-.88.63,3,3,0,0,0-1.1,2.63,3.94,3.94,0,0,0,1.87,2.57A4.22,4.22,0,0,0,30.6,215.29Z" transform="translate(9.31 -188.04)"/><path class="cls-5" d="M30.6,215.29A2.52,2.52,0,0,0,32.9,217a1.64,1.64,0,0,0,0,1.05c.21.63,1.11.42,1.53.23h0c-.6,1-1,2.14-.38,3.08,1,1.32,2.73.83,3.86.06-.19.71-.12,1.31.5,1.58.9.39,2.18-.33,3-.94a4.12,4.12,0,0,0,2.48.8,4.34,4.34,0,0,0,2.81-1.2c1.07.58,2.69,1.26,3.82.6a1.61,1.61,0,0,0,.63-.64,4.22,4.22,0,0,0,2.49.45A4.08,4.08,0,0,0,56,220.92c.92.46,2.31,1,3.13.44.57-.37.54-1,.23-1.64,1.25.58,3.07.78,3.8-.68.52-1-.11-2.1-.87-3h0c.46.12,1.37.18,1.48-.47a1.62,1.62,0,0,0-.19-1,2.5,2.5,0,0,0,2-2.08,4.24,4.24,0,0,0-2-3.91A4,4,0,0,0,65,205.72a3,3,0,0,0-1.52-2.42,6.24,6.24,0,0,0-1-.48,1.69,1.69,0,0,0-.39-1.5,2.58,2.58,0,0,0-.6-.54c1.84-1.21,3.21-3,2-4.64a5.47,5.47,0,0,0-4.18-2,4.78,4.78,0,0,0-2.08.39,2.68,2.68,0,0,0,.1-2.1,1.69,1.69,0,0,0-2-.69l0-.22a2.93,2.93,0,0,0-1.24-2.82c-2-1-3.61.54-4.51,2.56a6,6,0,0,0-1.17-2l0-.06a3.49,3.49,0,0,0-1.12-.8c-1.67-.7-4.65-.58-5,1.71,0,.27-.06.59-.07.93-1.18-1.41-2.75-2.21-4.31-1.05a2.93,2.93,0,0,0-.76,3l.06.22a1.66,1.66,0,0,0-1.81,1,2.7,2.7,0,0,0,.43,2.06,4.71,4.71,0,0,0-2.11,0,5.4,5.4,0,0,0-3.8,2.65c-.94,1.78.7,3.36,2.71,4.26a2.83,2.83,0,0,0-.5.63,1.68,1.68,0,0,0-.15,1.54,6.47,6.47,0,0,0-.88.63,3,3,0,0,0-1.1,2.63,3.94,3.94,0,0,0,1.87,2.57A4.22,4.22,0,0,0,30.6,215.29Zm6.85-10.1c-1.88-1-4.24-3.22-2.64-5.36.85-1.13,2.62-.92,4-.53a6.09,6.09,0,0,1-1.28-3.15,1.69,1.69,0,0,1,1.85-1.59,4.39,4.39,0,0,1,2.1.71c-.15-.81.09-1.61,1-1.78a1.77,1.77,0,0,1,1.37.4,4.16,4.16,0,0,1,.66-1.74c.86-1.22,2.5-.87,3.52-.1A6.7,6.7,0,0,1,50,194.43a4,4,0,0,1,1.9-3.12c1.31-.62,2.64.41,3.1,1.59a4.64,4.64,0,0,1,.13,2.62,1,1,0,0,1,1.7.44,2.72,2.72,0,0,1,.11.34c1.3-1.06,2.91-1.36,4.23.46,1.13,1.55-.33,3.12-1.91,4.06a3.71,3.71,0,0,1,1.83,1.07,1.16,1.16,0,0,1,.18,1.4.81.81,0,0,1-.47.27c1.59.75,3,2.15,2.27,3.76-.81,1.93-2.59,1.64-4.16.76a.85.85,0,0,1-.09.31c-.5,1-1.45.61-2.24,0a2.35,2.35,0,0,1,0,1.69,2.7,2.7,0,0,1-3,1.33,5.49,5.49,0,0,1-4.07-3.12,3.25,3.25,0,0,1-2.81,2.81A2.42,2.42,0,0,1,44,209.26a5.62,5.62,0,0,1-.8.82,5,5,0,0,1-5.72.23,3,3,0,0,1-1-4.28A3.28,3.28,0,0,1,37.45,205.19Z" transform="translate(9.31 -188.04)"/><path class="cls-5" d="M31.93,211.11a3.94,3.94,0,0,1-1.87-2.57,3,3,0,0,1,1.1-2.63,6.26,6.26,0,0,1,.51-.39H32a3.76,3.76,0,0,0-.65,2.72,3.65,3.65,0,0,0,2.27,2.53,6,6,0,0,0,1.41.33c-.9.65-2.14,1.76-1.71,3s1.83,1.4,3.27,1a1.16,1.16,0,0,0,.4,1.55c.86.59,1.83,0,2.67-.76a4.63,4.63,0,0,0,.06,1.18,2.38,2.38,0,0,0,2.08,2.08c2.2.1,3.28-1.71,4-3.58.06,1.25.38,2.72,1.58,2.5s1.63-1.4,1.82-2.65c.78,1.45,2.19,2.62,3.55,2.42a2,2,0,0,0,1.67-1.92,5.58,5.58,0,0,0,1.7,1.78c.79.47,2.2.62,2.63-.45a2.28,2.28,0,0,0-.12-1.89c.85.6,1.85,1,2.3.25a2,2,0,0,0,0-2,4.15,4.15,0,0,0,1.94.29,2.13,2.13,0,0,0,1.8-2.19,3.92,3.92,0,0,0-1.41-3.26l.32.13h0a4.24,4.24,0,0,1,2,3.91,2.5,2.5,0,0,1-2,2.08,1.62,1.62,0,0,1,.19,1c-.11.65-1,.59-1.48.47h0c.76.88,1.39,1.95.87,3-.73,1.46-2.55,1.26-3.8.68.31.67.34,1.27-.23,1.64-.82.53-2.21,0-3.13-.44a4.08,4.08,0,0,1-2.32,1.18,4.22,4.22,0,0,1-2.49-.45,1.61,1.61,0,0,1-.63.64c-1.13.66-2.75,0-3.82-.6a4.34,4.34,0,0,1-2.81,1.2,4.12,4.12,0,0,1-2.48-.8c-.83.61-2.11,1.33-3,.94-.62-.27-.69-.87-.5-1.58-1.13.77-2.9,1.26-3.86-.06-.67-.94-.22-2.09.38-3.08h0c-.42.19-1.32.4-1.53-.23a1.64,1.64,0,0,1,0-1.05,2.52,2.52,0,0,1-2.3-1.74A4.22,4.22,0,0,1,31.93,211.11Z" transform="translate(9.31 -188.04)"/><path class="cls-6" d="M57.79,197c.14-.41.54-.66,1.29-.44,1,.27,1.73,1.76,1,2.62C59.08,200.37,57.46,198,57.79,197Z" transform="translate(9.31 -188.04)"/><path class="cls-6" d="M59.73,206c.07-.23.29-.36.7-.25a1,1,0,0,1,.54,1.43C60.43,207.83,59.55,206.53,59.73,206Z" transform="translate(9.31 -188.04)"/><path class="cls-6" d="M55.79,215c.08-.23.29-.36.7-.25s.94,1,.55,1.43C56.49,216.83,55.61,215.53,55.79,215Z" transform="translate(9.31 -188.04)"/><path class="cls-6" d="M58.82,212.57c0-.08.1-.13.25-.09s.34.35.2.52S58.75,212.77,58.82,212.57Z" transform="translate(9.31 -188.04)"/><path class="cls-6" d="M50,204.65c1.15-.69,2.49,1,2.73,2,.32,1.19-.51,1.85-1.62,1.29C50.26,207.49,48.68,205.42,50,204.65Z" transform="translate(9.31 -188.04)"/><path class="cls-6" d="M36.39,213.13c.44-.26,1,.39,1,.75s-.2.72-.62.5S35.9,213.43,36.39,213.13Z" transform="translate(9.31 -188.04)"/><path class="cls-6" d="M39.75,196.33c.79-.48,1.72.7,1.89,1.35.22.83-.36,1.28-1.12.89C40,198.3,38.87,196.86,39.75,196.33Z" transform="translate(9.31 -188.04)"/><path class="cls-7" d="M4.68,219.22a2.23,2.23,0,0,0,2.08,1.5,1.35,1.35,0,0,0,0,.93c.2.55,1,.35,1.36.18h0c-.52.89-.9,1.92-.28,2.73.87,1.16,2.43.7,3.42,0-.16.63-.09,1.16.47,1.39.8.34,1.93-.33,2.66-.88a3.63,3.63,0,0,0,2.22.66,3.83,3.83,0,0,0,2.46-1.11c1,.49,2.42,1.07,3.41.46a1.33,1.33,0,0,0,.54-.57,3.86,3.86,0,0,0,2.22.36,3.62,3.62,0,0,0,2-1.1c.83.4,2.07.83,2.79.34.5-.33.46-.87.18-1.46,1.11.5,2.73.64,3.35-.67.45-.92-.13-1.86-.81-2.63h0c.4.1,1.21.14,1.3-.44a1.45,1.45,0,0,0-.19-.92,2.22,2.22,0,0,0,1.74-1.88,3.77,3.77,0,0,0-1.84-3.44A3.57,3.57,0,0,0,35,210.13,2.71,2.71,0,0,0,33.65,208a6.9,6.9,0,0,0-.87-.41,1.48,1.48,0,0,0-.38-1.32,2.23,2.23,0,0,0-.54-.47c1.62-1.1,2.8-2.74,1.7-4.15a4.87,4.87,0,0,0-3.75-1.71,4.3,4.3,0,0,0-1.84.37,2.41,2.41,0,0,0,.06-1.86,1.49,1.49,0,0,0-1.75-.57,1.5,1.5,0,0,0,0-.2,2.57,2.57,0,0,0-1.14-2.48c-1.8-.89-3.2.54-4,2.35a5.32,5.32,0,0,0-1.07-1.74l-.05-.05a3,3,0,0,0-1-.69c-1.49-.59-4.14-.44-4.39,1.59a7.21,7.21,0,0,0,0,.83c-1.08-1.23-2.49-1.91-3.85-.85a2.58,2.58,0,0,0-.62,2.66,1.05,1.05,0,0,1,.05.19,1.48,1.48,0,0,0-1.59.91,2.4,2.4,0,0,0,.42,1.81,4.37,4.37,0,0,0-1.87,0,4.84,4.84,0,0,0-3.33,2.42c-.8,1.6.68,3,2.48,3.73a2.37,2.37,0,0,0-.43.57,1.5,1.5,0,0,0-.11,1.37,6,6,0,0,0-.77.58,2.7,2.7,0,0,0-.94,2.35,3.51,3.51,0,0,0,1.72,2.25A3.76,3.76,0,0,0,4.68,219.22Z" transform="translate(9.31 -188.04)"/><path class="cls-8" d="M4.68,219.22a2.23,2.23,0,0,0,2.08,1.5,1.35,1.35,0,0,0,0,.93c.2.55,1,.35,1.36.18h0c-.52.89-.9,1.92-.28,2.73.87,1.16,2.43.7,3.42,0-.16.63-.09,1.16.47,1.39.8.34,1.93-.33,2.66-.88a3.63,3.63,0,0,0,2.22.66,3.83,3.83,0,0,0,2.46-1.11c1,.49,2.42,1.07,3.41.46a1.33,1.33,0,0,0,.54-.57,3.86,3.86,0,0,0,2.22.36,3.62,3.62,0,0,0,2-1.1c.83.4,2.07.83,2.79.34.5-.33.46-.87.18-1.46,1.11.5,2.73.64,3.35-.67.45-.92-.13-1.86-.81-2.63h0c.4.1,1.21.14,1.3-.44a1.45,1.45,0,0,0-.19-.92,2.22,2.22,0,0,0,1.74-1.88,3.77,3.77,0,0,0-1.84-3.44A3.57,3.57,0,0,0,35,210.13,2.71,2.71,0,0,0,33.65,208a6.9,6.9,0,0,0-.87-.41,1.48,1.48,0,0,0-.38-1.32,2.23,2.23,0,0,0-.54-.47c1.62-1.1,2.8-2.74,1.7-4.15a4.87,4.87,0,0,0-3.75-1.71,4.3,4.3,0,0,0-1.84.37,2.41,2.41,0,0,0,.06-1.86,1.49,1.49,0,0,0-1.75-.57,1.5,1.5,0,0,0,0-.2,2.57,2.57,0,0,0-1.14-2.48c-1.8-.89-3.2.54-4,2.35a5.32,5.32,0,0,0-1.07-1.74l-.05-.05a3,3,0,0,0-1-.69c-1.49-.59-4.14-.44-4.39,1.59a7.21,7.21,0,0,0,0,.83c-1.08-1.23-2.49-1.91-3.85-.85a2.58,2.58,0,0,0-.62,2.66,1.05,1.05,0,0,1,.05.19,1.48,1.48,0,0,0-1.59.91,2.4,2.4,0,0,0,.42,1.81,4.37,4.37,0,0,0-1.87,0,4.84,4.84,0,0,0-3.33,2.42c-.8,1.6.68,3,2.48,3.73a2.37,2.37,0,0,0-.43.57,1.5,1.5,0,0,0-.11,1.37,6,6,0,0,0-.77.58,2.7,2.7,0,0,0-.94,2.35,3.51,3.51,0,0,0,1.72,2.25A3.76,3.76,0,0,0,4.68,219.22Zm5.91-9.09c-1.68-.88-3.82-2.78-2.43-4.71.73-1,2.3-.86,3.55-.54a5.29,5.29,0,0,1-1.19-2.78,1.49,1.49,0,0,1,1.61-1.44,4,4,0,0,1,1.88.59,1.19,1.19,0,0,1,.89-1.59,1.56,1.56,0,0,1,1.22.33,3.69,3.69,0,0,1,.56-1.56c.74-1.09,2.2-.81,3.12-.15a6.15,6.15,0,0,1,1.71,2.08,3.55,3.55,0,0,1,1.64-2.8,2.13,2.13,0,0,1,2.77,1.36,4.12,4.12,0,0,1,.16,2.32c.53-.39,1.13-.47,1.52.36,0,.1.07.2.1.3,1.14-1,2.56-1.25,3.77.34,1,1.35-.24,2.77-1.63,3.64a3.18,3.18,0,0,1,1.64.92,1,1,0,0,1,.18,1.23.71.71,0,0,1-.41.26c1.42.63,2.66,1.85,2.09,3.29-.69,1.72-2.28,1.5-3.69.75a.77.77,0,0,1-.07.27c-.43.88-1.27.57-2,.05a2.05,2.05,0,0,1,.06,1.5,2.38,2.38,0,0,1-2.6,1.23,4.85,4.85,0,0,1-3.66-2.69,2.9,2.9,0,0,1-2.46,2.53,2.13,2.13,0,0,1-2.44-1.59,5.31,5.31,0,0,1-.69.74,4.41,4.41,0,0,1-5.08.31,2.64,2.64,0,0,1-1-3.79A2.83,2.83,0,0,1,10.59,210.13Z" transform="translate(9.31 -188.04)"/><path class="cls-5" d="M5.8,215.48a3.51,3.51,0,0,1-1.72-2.25A2.7,2.7,0,0,1,5,210.88a3.55,3.55,0,0,1,.44-.35l.25,0a3.3,3.3,0,0,0-.52,2.42,3.24,3.24,0,0,0,2.06,2.21,5,5,0,0,0,1.25.27C7.72,216,6.63,217,7,218.09s1.65,1.21,2.93.85a1,1,0,0,0,.37,1.36c.78.51,1.63,0,2.36-.72a4,4,0,0,0,.08,1,2.11,2.11,0,0,0,1.88,1.81c2,.05,2.88-1.57,3.5-3.25.08,1.11.39,2.41,1.45,2.2S21,220.12,21.17,219c.71,1.27,2,2.29,3.19,2.08a1.75,1.75,0,0,0,1.45-1.72,5,5,0,0,0,1.55,1.54c.7.41,1.95.52,2.32-.44a2,2,0,0,0-.14-1.67c.76.51,1.66.89,2,.17a1.79,1.79,0,0,0,0-1.78,3.87,3.87,0,0,0,1.73.22,1.89,1.89,0,0,0,1.56-2,3.5,3.5,0,0,0-1.31-2.88l.29.12h0a3.77,3.77,0,0,1,1.84,3.44A2.22,2.22,0,0,1,33.9,218a1.45,1.45,0,0,1,.19.92c-.09.58-.9.54-1.3.44h0c.68.77,1.26,1.71.81,2.63-.62,1.31-2.24,1.17-3.35.67.28.59.32,1.13-.18,1.46-.72.49-2,.06-2.79-.34a3.62,3.62,0,0,1-2,1.1,3.86,3.86,0,0,1-2.22-.36,1.33,1.33,0,0,1-.54.57c-1,.61-2.45,0-3.41-.46a3.83,3.83,0,0,1-2.46,1.11,3.63,3.63,0,0,1-2.22-.66c-.73.55-1.86,1.22-2.66.88-.56-.23-.63-.76-.47-1.39-1,.7-2.55,1.16-3.42,0-.62-.81-.24-1.84.28-2.73h0c-.38.17-1.16.37-1.36-.18a1.35,1.35,0,0,1,0-.93,2.23,2.23,0,0,1-2.08-1.5A3.76,3.76,0,0,1,5.8,215.48Z" transform="translate(9.31 -188.04)"/><path class="cls-6" d="M28.5,202.48c.12-.38.47-.6,1.14-.42a1.61,1.61,0,0,1,.94,2.32C29.71,205.48,28.23,203.37,28.5,202.48Z" transform="translate(9.31 -188.04)"/><path class="cls-6" d="M30.38,210.46c.06-.21.25-.33.62-.23a.88.88,0,0,1,.51,1.25C31,212.08,30.23,210.94,30.38,210.46Z" transform="translate(9.31 -188.04)"/><path class="cls-6" d="M27,218.51c.06-.2.25-.32.62-.23a.89.89,0,0,1,.51,1.26C27.69,220.13,26.89,219,27,218.51Z" transform="translate(9.31 -188.04)"/><path class="cls-6" d="M29.68,216.32c0-.08.1-.12.23-.09s.31.31.19.46S29.63,216.49,29.68,216.32Z" transform="translate(9.31 -188.04)"/><path class="cls-6" d="M21.68,209.44c1-.64,2.22.86,2.46,1.69.3,1.05-.43,1.65-1.42,1.17C22,212,20.56,210.14,21.68,209.44Z" transform="translate(9.31 -188.04)"/><path class="cls-6" d="M9.78,217.2c.39-.24.86.33,1,.65s-.16.63-.54.45S9.35,217.47,9.78,217.2Z" transform="translate(9.31 -188.04)"/><path class="cls-6" d="M12.48,202.22c.7-.43,1.54.6,1.7,1.17.21.73-.29,1.15-1,.82C12.7,204,11.71,202.71,12.48,202.22Z" transform="translate(9.31 -188.04)"/><path class="cls-4" d="M61.72,217.66a1.27,1.27,0,0,0,1.17.88.83.83,0,0,0,0,.54c.1.31.56.21.77.11h0c-.3.51-.53,1.09-.19,1.56.49.67,1.38.43,2,0-.1.35-.07.66.25.8s1.11-.17,1.53-.48a2.08,2.08,0,0,0,1.26.41,2.26,2.26,0,0,0,1.42-.61c.54.29,1.37.64,1.94.3a.79.79,0,0,0,.31-.32,2.29,2.29,0,0,0,1.27.23,2.1,2.1,0,0,0,1.17-.6c.47.23,1.17.49,1.59.22s.27-.49.12-.83c.63.29,1.55.39,1.93-.35.26-.52-.06-1.06-.44-1.51h0c.23.06.69.09.74-.24a.84.84,0,0,0-.09-.52,1.28,1.28,0,0,0,1-1.06,2.12,2.12,0,0,0-1-2,2,2,0,0,0,.73-1.44,1.54,1.54,0,0,0-.77-1.23,3.17,3.17,0,0,0-.49-.24.83.83,0,0,0-.2-.76,1.33,1.33,0,0,0-.3-.28c.93-.61,1.62-1.53,1-2.34a2.75,2.75,0,0,0-2.12-1,2.48,2.48,0,0,0-1,.2,1.39,1.39,0,0,0,0-1.07.85.85,0,0,0-1-.34.49.49,0,0,0,0-.12,1.48,1.48,0,0,0-.62-1.43c-1-.52-1.83.28-2.29,1.3a3.07,3.07,0,0,0-.59-1l0,0a1.88,1.88,0,0,0-.56-.41c-.85-.35-2.36-.29-2.53.87,0,.14,0,.3,0,.47-.6-.72-1.39-1.12-2.18-.53a1.48,1.48,0,0,0-.39,1.51l0,.11a.85.85,0,0,0-.92.5,1.41,1.41,0,0,0,.22,1,2.58,2.58,0,0,0-1.07,0,2.77,2.77,0,0,0-1.93,1.35c-.47.9.36,1.7,1.38,2.15a1.54,1.54,0,0,0-.25.32.85.85,0,0,0-.08.78,4.48,4.48,0,0,0-.44.32,1.53,1.53,0,0,0-.56,1.34,2,2,0,0,0,.95,1.31A2.13,2.13,0,0,0,61.72,217.66Z" transform="translate(9.31 -188.04)"/><path class="cls-5" d="M61.72,217.66a1.27,1.27,0,0,0,1.17.88.83.83,0,0,0,0,.54c.1.31.56.21.77.11h0c-.3.51-.53,1.09-.19,1.56.49.67,1.38.43,2,0-.1.35-.07.66.25.8s1.11-.17,1.53-.48a2.08,2.08,0,0,0,1.26.41,2.26,2.26,0,0,0,1.42-.61c.54.29,1.37.64,1.94.3a.79.79,0,0,0,.31-.32,2.29,2.29,0,0,0,1.27.23,2.1,2.1,0,0,0,1.17-.6c.47.23,1.17.49,1.59.22s.27-.49.12-.83c.63.29,1.55.39,1.93-.35.26-.52-.06-1.06-.44-1.51h0c.23.06.69.09.74-.24a.84.84,0,0,0-.09-.52,1.28,1.28,0,0,0,1-1.06,2.12,2.12,0,0,0-1-2,2,2,0,0,0,.73-1.44,1.54,1.54,0,0,0-.77-1.23,3.17,3.17,0,0,0-.49-.24.83.83,0,0,0-.2-.76,1.33,1.33,0,0,0-.3-.28c.93-.61,1.62-1.53,1-2.34a2.75,2.75,0,0,0-2.12-1,2.48,2.48,0,0,0-1,.2,1.39,1.39,0,0,0,0-1.07.85.85,0,0,0-1-.34.49.49,0,0,0,0-.12,1.48,1.48,0,0,0-.62-1.43c-1-.52-1.83.28-2.29,1.3a3.07,3.07,0,0,0-.59-1l0,0a1.88,1.88,0,0,0-.56-.41c-.85-.35-2.36-.29-2.53.87,0,.14,0,.3,0,.47-.6-.72-1.39-1.12-2.18-.53a1.48,1.48,0,0,0-.39,1.51l0,.11a.85.85,0,0,0-.92.5,1.41,1.41,0,0,0,.22,1,2.58,2.58,0,0,0-1.07,0,2.77,2.77,0,0,0-1.93,1.35c-.47.9.36,1.7,1.38,2.15a1.54,1.54,0,0,0-.25.32.85.85,0,0,0-.08.78,4.48,4.48,0,0,0-.44.32,1.53,1.53,0,0,0-.56,1.34,2,2,0,0,0,.95,1.31A2.13,2.13,0,0,0,61.72,217.66Zm3.48-5.12c-1-.52-2.16-1.63-1.34-2.72.43-.57,1.32-.46,2-.27a3,3,0,0,1-.65-1.59.85.85,0,0,1,.94-.81,2.27,2.27,0,0,1,1.07.36c-.08-.41,0-.82.52-.9a.92.92,0,0,1,.7.2,2.12,2.12,0,0,1,.33-.88,1.23,1.23,0,0,1,1.78-.05,3.33,3.33,0,0,1,1,1.2,2,2,0,0,1,1-1.58,1.22,1.22,0,0,1,1.57.81,2.3,2.3,0,0,1,.07,1.33.5.5,0,0,1,.86.22.84.84,0,0,1,0,.17,1.35,1.35,0,0,1,2.15.23c.57.79-.16,1.59-1,2.06a1.83,1.83,0,0,1,.93.55.57.57,0,0,1,.09.7.38.38,0,0,1-.24.15c.81.38,1.5,1.08,1.16,1.9-.41,1-1.32.83-2.11.39a.38.38,0,0,1,0,.15c-.26.5-.73.31-1.13,0a1.16,1.16,0,0,1,0,.86,1.37,1.37,0,0,1-1.5.67,2.79,2.79,0,0,1-2.06-1.58,1.64,1.64,0,0,1-1.43,1.42,1.23,1.23,0,0,1-1.38-.94,2.63,2.63,0,0,1-.4.42,2.51,2.51,0,0,1-2.9.12,1.52,1.52,0,0,1-.5-2.18A1.62,1.62,0,0,1,65.2,212.54Z" transform="translate(9.31 -188.04)"/><path class="cls-5" d="M62.4,215.55a2,2,0,0,1-.95-1.31A1.53,1.53,0,0,1,62,212.9l.25-.19h.14a1.91,1.91,0,0,0-.32,1.38,1.81,1.81,0,0,0,1.15,1.28,2.54,2.54,0,0,0,.71.17c-.45.33-1.08.9-.87,1.51s.93.71,1.67.52a.58.58,0,0,0,.19.79c.44.3.93,0,1.36-.39a2.39,2.39,0,0,0,0,.6,1.22,1.22,0,0,0,1.05,1.06c1.12,0,1.67-.87,2-1.82,0,.64.2,1.38.81,1.27s.82-.71.92-1.35A2,2,0,0,0,72.93,219a1,1,0,0,0,.86-1,2.78,2.78,0,0,0,.86.91c.4.24,1.11.31,1.33-.23a1.17,1.17,0,0,0-.06-1c.43.29.93.52,1.16.12a1,1,0,0,0,0-1,2.27,2.27,0,0,0,1,.14c.6-.08.85-.54.91-1.11a2,2,0,0,0-.72-1.65l.16.07h0a2.12,2.12,0,0,1,1,2,1.28,1.28,0,0,1-1,1.06.84.84,0,0,1,.09.52c-.05.33-.51.3-.74.24h0c.38.45.7,1,.44,1.51-.38.74-1.3.64-1.93.35.15.34.17.64-.12.83s-1.12,0-1.59-.22a2.1,2.1,0,0,1-1.17.6,2.29,2.29,0,0,1-1.27-.23.79.79,0,0,1-.31.32c-.57.34-1.4,0-1.94-.3a2.26,2.26,0,0,1-1.42.61,2.08,2.08,0,0,1-1.26-.41c-.42.31-1.07.68-1.53.48s-.35-.45-.25-.8c-.58.39-1.47.63-2,0-.34-.47-.11-1.05.19-1.56h0c-.21.1-.67.2-.77-.11a.83.83,0,0,1,0-.54,1.27,1.27,0,0,1-1.17-.88A2.13,2.13,0,0,1,62.4,215.55Z" transform="translate(9.31 -188.04)"/><path class="cls-6" d="M75.51,208.37c.07-.21.27-.34.66-.23s.87.9.51,1.33C76.16,210.1,75.34,208.88,75.51,208.37Z" transform="translate(9.31 -188.04)"/><path class="cls-6" d="M76.49,213c0-.12.15-.19.36-.13a.51.51,0,0,1,.27.73C76.85,213.88,76.4,213.22,76.49,213Z" transform="translate(9.31 -188.04)"/><path class="cls-6" d="M74.49,217.51c0-.12.15-.18.36-.13s.48.49.28.73S74.4,217.78,74.49,217.51Z" transform="translate(9.31 -188.04)"/><path class="cls-6" d="M76,216.29s0-.07.13,0,.17.17.1.26S76,216.38,76,216.29Z" transform="translate(9.31 -188.04)"/><path class="cls-6" d="M71.53,212.27c.58-.35,1.26.51,1.39,1s-.26.94-.82.66C71.69,213.71,70.89,212.66,71.53,212.27Z" transform="translate(9.31 -188.04)"/><path class="cls-6" d="M64.66,216.57c.22-.14.48.2.53.38s-.1.36-.32.25S64.41,216.72,64.66,216.57Z" transform="translate(9.31 -188.04)"/><path class="cls-6" d="M66.36,208.05c.4-.25.87.35,1,.68s-.18.65-.57.46S65.91,208.32,66.36,208.05Z" transform="translate(9.31 -188.04)"/><path class="cls-9" d="M361.44,240.42V226.58c-31.34-6.5-102.52-12.8-185.31-12.8s-154,6.3-185.31,12.8v13.84Z" transform="translate(9.31 -188.04)"/><path class="cls-10" d="M361.44,240.55H-9.18a.13.13,0,0,1-.13-.13V226.58a.12.12,0,0,1,.1-.12c16.38-3.4,42.44-6.53,73.38-8.84,34.81-2.59,73.53-4,112-4s77.14,1.37,112,4c30.94,2.31,57,5.44,73.37,8.84a.12.12,0,0,1,.1.12v13.84A.12.12,0,0,1,361.44,240.55Zm-370.5-.25H361.31V226.68c-42.43-8.77-125.71-12.77-185.18-12.77s-142.76,4-185.19,12.77Z" transform="translate(9.31 -188.04)"/><g class="cls-11"><path class="cls-12" d="M176.13,213.78l-6.73,0c3.48.31,7,.6,10.44.9,10.25.87,20.49,1.86,30.74,2.6a94.51,94.51,0,0,1,12.56,1.56A27.56,27.56,0,0,1,233.72,223a.12.12,0,0,1,0,.17,4,4,0,0,1-2.36,1.75,19.4,19.4,0,0,1-4.66.89c-6.24.56-12.54,0-18.77-.43-3.58-.23-7.17-.23-10.76-.32-6-.15-11.89-.33-17.84-.44-11.76-.23-23.51-.05-35.27.17-5.73.1-11.48,0-17.21.2-4.12.14-8.77.93-12.59-1a.12.12,0,0,1,0-.21c5.35-2.5,11.41-2.52,17-4.06-20.22-1.3-40.22,3.26-60.41,3.29-.14,0-.18-.22,0-.25,5.92-.93,11.64-2.84,17.56-3.76-11.2,0-22.29,2.23-33.5,2-.13,0-.17-.21,0-.24,9-1.8,18.19-3,27.35-4l3.94-.42c-42.35,2.43-76.29,6.32-95.4,10.28v13.84H361.44V226.58C330.1,220.08,258.92,213.78,176.13,213.78Z" transform="translate(9.31 -188.04)"/></g><g class="cls-11"><path class="cls-12" d="M265.86,216.29c2.81.47,5.61,1,8.39,1.53,2.11.44,20.66,4.06,17.31,8.59-1.05,1.42-3,2.13-4.63,2.69a108.39,108.39,0,0,1-11.85,3.3,237.45,237.45,0,0,1-27.28,4.46c-9.22,1-18.47,1.62-27.72,2.21q-12.11.78-24.21,1.35H361.44V226.58C342.3,222.61,308.3,218.72,265.86,216.29Z" transform="translate(9.31 -188.04)"/><path class="cls-12" d="M71.91,239.8c-8-1.67-15.91-3.8-23.8-6-3-.81-5.91-1.75-8.93-2.28-2.4-.42-4.81-.77-7.17-1.38-1.45-.37-3.68-.84-4.51-2.26a2.79,2.79,0,0,1-.24-2.29c.75-2.18,3.18-3.65,5.06-4.74l.63-.35c-17.6,1.85-32,3.94-42.13,6.05v13.84H75.09C74,240.22,73,240,71.91,239.8Z" transform="translate(9.31 -188.04)"/></g><path class="cls-13" d="M234.15,210c-.7-.92-5-4.41-4.93-4.46,1.54-.79,4.52,1,5.75,1.83A10.35,10.35,0,0,1,237.7,210c.19-2.47-1.45-7-1.35-7,1.92.41,3.74,3.77,3.81,6.29,1.54-7.65,7.48-5.86,7.36-5.77a13.32,13.32,0,0,0-3.23,3.95c-.14.26-.26.53-.38.81a8.84,8.84,0,0,1,2.44-1.53c1.7-.84,4.43.13,4.35.18a42.9,42.9,0,0,0-4.42,2.76,8.54,8.54,0,0,0-.95,1.19,6,6,0,0,1,1.84-.34c2.58-.07,3.25,1.13,3.29,1.23a7.77,7.77,0,0,0-2.29-.18,7.89,7.89,0,0,0-3.19,1.26,7.44,7.44,0,0,0-2.6,3.49l-7.55-.1a7.28,7.28,0,0,0-5.06-3.7l0,0c1.1-1,2.83-.05,3.14,0-.92-2-4.54-2.78-4.72-3S230.28,208,234.15,210Z" transform="translate(9.31 -188.04)"/><path class="cls-14" d="M232,212.77a16.54,16.54,0,0,1,1.7,1.22c.12.1.27-.08.21-.2a3.65,3.65,0,0,0-1.22-1.33l.27.1c-.92-2-4.54-2.78-4.72-3t.09-.09a7.8,7.8,0,0,1,4,1.13,6.74,6.74,0,0,1,3.27,3.41c.06.15.3.13.3,0a5.18,5.18,0,0,0-2.49-4.4c.26.11.53.22.81.37-.67-.88-4.61-4.09-4.91-4.43a10.91,10.91,0,0,1,5.2,3.08,8.25,8.25,0,0,1,1.78,2.33,13.9,13.9,0,0,1,.88,2.95.15.15,0,0,0,.29,0,7.24,7.24,0,0,0-.51-4.91,9,9,0,0,1,.82,1c.19-2.47-1.45-7-1.35-7l.09,0a10.38,10.38,0,0,1,2,4.16,14.94,14.94,0,0,1,.57,3.59c0,1.13-.19,2.24-.22,3.37a.15.15,0,0,0,.28.08,12,12,0,0,0,1.09-4.76c0-.12,0-.25,0-.37.82-3.82,2.76-5.21,4.43-5.65a7.16,7.16,0,0,0-1.37,1.12,7.3,7.3,0,0,0-1.76,2.72,8.08,8.08,0,0,0-.41,3.27c0,.15.21.14.27.05a15.31,15.31,0,0,0,1-2.08,11,11,0,0,1,1.54-2.28,14.64,14.64,0,0,1,2.14-1.87,10.9,10.9,0,0,1,1.26-.67,13.07,13.07,0,0,0-3,3.76c-.13.25-.25.51-.36.77a6.24,6.24,0,0,0-.81,1.31,13.69,13.69,0,0,0-1.64,4.16c0,.16.21.19.28.07a25.8,25.8,0,0,1,1.88-2.76,11.67,11.67,0,0,1,2.52-2.18,12.46,12.46,0,0,1,3.14-1.51s.63-.15,1.13-.23a33.45,33.45,0,0,0-4.15,2.59,8.54,8.54,0,0,0-.95,1.19,6.36,6.36,0,0,1,1.41-.31,4.51,4.51,0,0,0-1.67.79,6.66,6.66,0,0,0-2.51,2.95.15.15,0,0,0,.25.15,7.83,7.83,0,0,1,3.71-2.43l.12,0a6.51,6.51,0,0,0-1.66.85,7.44,7.44,0,0,0-2.6,3.49l-7.55-.1a7.28,7.28,0,0,0-5-3.69A3,3,0,0,1,232,212.77Z" transform="translate(9.31 -188.04)"/><path class="cls-15" d="M243.14,206c0-.36.55-.93.74-1.15a3.7,3.7,0,0,1,1.4-1,2.16,2.16,0,0,1,.43-.14c.18,0,.29.06.17.23s-2.64,2.41-2.73,2.13A.11.11,0,0,1,243.14,206Z" transform="translate(9.31 -188.04)"/><path class="cls-16" d="M248.43,211a1,1,0,0,1,.79.05c.17.17-.13.23-.28.25s-.43,0-.53-.1S248.36,211.05,248.43,211Z" transform="translate(9.31 -188.04)"/><path class="cls-15" d="M245.81,207.66c.1-.28.64-.58.8-.66a3,3,0,0,1,1.36-.3.61.61,0,0,1,.35.05c.31.15-.18.34-.31.38a8.44,8.44,0,0,0-1.26.58,2.28,2.28,0,0,1-.53.24c-.13,0-.37,0-.41-.15A.17.17,0,0,1,245.81,207.66Z" transform="translate(9.31 -188.04)"/><path class="cls-15" d="M237.87,204.32a3.29,3.29,0,0,1,1.29,2c.11.32.82,2.46.25,2.6-.13,0-.28-.19-.3-.29-.18-.73-.22-1.47-.43-2.2a11.36,11.36,0,0,0-.88-2C237.77,204.35,237.79,204.28,237.87,204.32Z" transform="translate(9.31 -188.04)"/><path class="cls-15" d="M232.79,206.63a4.18,4.18,0,0,1,2.48,1.13,5.13,5.13,0,0,1,1.44,1.69,1.27,1.27,0,0,1,.11,1c0,.12-.23-.05-.27-.1a11,11,0,0,0-1.61-1.86c-.65-.58-1.45-1-2.07-1.57C232.83,206.92,232.64,206.65,232.79,206.63Z" transform="translate(9.31 -188.04)"/><path class="cls-15" d="M231.43,209.45a.35.35,0,0,1,.16-.09,1.62,1.62,0,0,1,.91.17c.2.07,1,.41.87.75-.11.19-.65,0-.81,0a2.94,2.94,0,0,1-.95-.35C231.45,209.79,231.32,209.58,231.43,209.45Z" transform="translate(9.31 -188.04)"/><path class="cls-17" d="M238.78,212.65c-.4-.53-2.91-2.56-2.86-2.59.89-.47,2.62.59,3.33,1.06a5.88,5.88,0,0,1,1.59,1.56,16,16,0,0,0-.79-4.07c1.12.23,2.18,2.19,2.22,3.65.89-4.44,4.34-3.41,4.27-3.35a7.6,7.6,0,0,0-1.87,2.3,3.88,3.88,0,0,0-.22.46,5.26,5.26,0,0,1,1.42-.89,3.61,3.61,0,0,1,2.52.11,23.93,23.93,0,0,0-2.57,1.61,5.65,5.65,0,0,0-.55.68,3.5,3.5,0,0,1,1.07-.2c1.5,0,1.88.66,1.91.72a4.24,4.24,0,0,0-1.33-.1,4.49,4.49,0,0,0-1.85.73,4.25,4.25,0,0,0-1.51,2l-4.38,0a4.27,4.27,0,0,0-2.94-2.15,0,0,0,0,1,0,0c.64-.57,1.64,0,1.82,0-.54-1.17-2.64-1.61-2.74-1.73S236.53,211.51,238.78,212.65Z" transform="translate(9.31 -188.04)"/><path class="cls-14" d="M237.51,214.28a8.75,8.75,0,0,1,1,.71c.08,0,.16-.05.13-.12a2.11,2.11,0,0,0-.71-.77l.16.06c-.54-1.17-2.64-1.61-2.74-1.73s0,0,0-.05a4.35,4.35,0,0,1,2.3.65,3.94,3.94,0,0,1,1.9,2c0,.09.17.08.17,0a3,3,0,0,0-1.44-2.56,3.92,3.92,0,0,1,.47.22c-.39-.51-2.68-2.38-2.85-2.57a6.25,6.25,0,0,1,3,1.79,4.7,4.7,0,0,1,1,1.35,7.4,7.4,0,0,1,.51,1.72.09.09,0,0,0,.17,0,4.25,4.25,0,0,0-.3-2.87,5.59,5.59,0,0,1,.48.61,16,16,0,0,0-.79-4.07h.06a6.21,6.21,0,0,1,1.18,2.42,8.14,8.14,0,0,1,.33,2.09c0,.65-.1,1.29-.13,2,0,.09.13.13.17,0a6.92,6.92,0,0,0,.63-2.77c0-.07,0-.14,0-.21.47-2.22,1.6-3,2.57-3.28a3.91,3.91,0,0,0-.79.65,4.37,4.37,0,0,0-1,1.58,4.72,4.72,0,0,0-.24,1.9c0,.09.12.08.16,0a8.3,8.3,0,0,0,.58-1.2,5.93,5.93,0,0,1,.9-1.32,7.57,7.57,0,0,1,1.24-1.09,5.72,5.72,0,0,1,.73-.39,7.52,7.52,0,0,0-1.75,2.19,3,3,0,0,0-.21.44,3.71,3.71,0,0,0-.47.76,8.05,8.05,0,0,0-1,2.41.09.09,0,0,0,.17.05,14.54,14.54,0,0,1,1.09-1.6,6.57,6.57,0,0,1,1.46-1.27,7.35,7.35,0,0,1,1.83-.88s.36-.09.65-.14a19.69,19.69,0,0,0-2.41,1.52,5.65,5.65,0,0,0-.55.68,3.88,3.88,0,0,1,.82-.18,2.55,2.55,0,0,0-1,.46,3.85,3.85,0,0,0-1.46,1.71c0,.09.09.16.15.09a4.63,4.63,0,0,1,2.15-1.41l.07,0a3.81,3.81,0,0,0-1,.5,4.25,4.25,0,0,0-1.51,2l-4.38,0a4.3,4.3,0,0,0-2.91-2.15A1.72,1.72,0,0,1,237.51,214.28Z" transform="translate(9.31 -188.04)"/><path class="cls-16" d="M244,210.33c0-.21.32-.54.43-.67a2.26,2.26,0,0,1,.81-.59,1,1,0,0,1,.25-.08c.11,0,.18,0,.1.14s-1.53,1.39-1.58,1.23A0,0,0,0,1,244,210.33Z" transform="translate(9.31 -188.04)"/><path class="cls-16" d="M247.07,213.26a.56.56,0,0,1,.46,0c.1.09-.07.13-.16.14s-.25,0-.31-.05S247,213.28,247.07,213.26Z" transform="translate(9.31 -188.04)"/><path class="cls-16" d="M245.55,211.31c.06-.16.37-.33.47-.38a1.75,1.75,0,0,1,.78-.18.38.38,0,0,1,.21,0c.18.08-.11.19-.18.22a4.39,4.39,0,0,0-.73.33,1.06,1.06,0,0,1-.31.14c-.08,0-.22,0-.24-.08A.14.14,0,0,1,245.55,211.31Z" transform="translate(9.31 -188.04)"/><path class="cls-16" d="M240.94,209.47a2.19,2.19,0,0,1,.89,1.29,3.51,3.51,0,0,1,.21.72c.12.45.21.93,0,1s-.19-.12-.21-.19c-.13-.47-.17-1-.32-1.44a7.3,7.3,0,0,0-.62-1.29S240.89,209.45,240.94,209.47Z" transform="translate(9.31 -188.04)"/><path class="cls-16" d="M238.07,210.71a2.48,2.48,0,0,1,1.44.65,3,3,0,0,1,.83,1,.77.77,0,0,1,.07.61c0,.07-.14,0-.16-.06a6,6,0,0,0-.94-1.08c-.37-.34-.84-.56-1.2-.91C238.09,210.88,238,210.71,238.07,210.71Z" transform="translate(9.31 -188.04)"/><path class="cls-16" d="M237.2,212.35a.19.19,0,0,1,.09,0,.89.89,0,0,1,.53.1c.11,0,.6.24.5.43s-.37,0-.47,0a1.59,1.59,0,0,1-.55-.2C237.21,212.55,237.13,212.43,237.2,212.35Z" transform="translate(9.31 -188.04)"/><path class="cls-18" d="M244.5,215.58a1,1,0,0,0-.05-.42c-.64-1.79-3.4-.54-3.83.78s2.17,1,2.78.88a1.43,1.43,0,0,0,1-.66A.81.81,0,0,0,244.5,215.58Z" transform="translate(9.31 -188.04)"/><path class="cls-19" d="M241.93,215.58a.28.28,0,0,0,0-.09c-.14-.39-.74-.12-.83.17s.47.22.6.19a.31.31,0,0,0,.23-.14A.19.19,0,0,0,241.93,215.58Z" transform="translate(9.31 -188.04)"/><path class="cls-18" d="M235.37,216.05a.53.53,0,0,0,0-.22c-.32-.92-1.74-.28-2,.4s1.12.52,1.43.45a.72.72,0,0,0,.52-.33A.45.45,0,0,0,235.37,216.05Z" transform="translate(9.31 -188.04)"/><path class="cls-19" d="M234.05,216.05s0,0,0-.05c-.07-.2-.38-.06-.43.09s.25.11.31.1a.16.16,0,0,0,.12-.08A.06.06,0,0,0,234.05,216.05Z" transform="translate(9.31 -188.04)"/><path class="cls-20" d="M239.36,215.56a1,1,0,0,0-.05-.43c-.64-1.82-3.45-.55-3.89.8-.39,1.17,2.21,1,2.83.89a1.48,1.48,0,0,0,1-.67A.84.84,0,0,0,239.36,215.56Z" transform="translate(9.31 -188.04)"/><path class="cls-21" d="M236.75,215.56a.13.13,0,0,0,0-.09c-.14-.4-.75-.12-.84.17s.48.22.61.19a.33.33,0,0,0,.23-.14A.19.19,0,0,0,236.75,215.56Z" transform="translate(9.31 -188.04)"/><path class="cls-18" d="M240.85,216.07a.49.49,0,0,0,0-.21c-.32-.92-1.74-.28-2,.4s1.12.51,1.43.45a.75.75,0,0,0,.52-.34A.43.43,0,0,0,240.85,216.07Z" transform="translate(9.31 -188.04)"/><path class="cls-19" d="M239.54,216.07a.06.06,0,0,0,0,0c-.07-.2-.38-.07-.43.08s.25.12.31.1a.19.19,0,0,0,.12-.07A.15.15,0,0,0,239.54,216.07Z" transform="translate(9.31 -188.04)"/><path class="cls-13" d="M108,211.08c-.5-.64-3.53-3.1-3.48-3.13,1.09-.57,3.18.71,4,1.28a7.51,7.51,0,0,1,1.93,1.89c.12-1.74-1-4.94-1-4.93,1.35.28,2.64,2.65,2.69,4.43,1.08-5.39,5.26-4.13,5.18-4.07a9.46,9.46,0,0,0-2.28,2.78c-.09.19-.18.38-.26.57a6.25,6.25,0,0,1,1.71-1.07,4.35,4.35,0,0,1,3.07.13,28.62,28.62,0,0,0-3.12,1.94,6.15,6.15,0,0,0-.66.83,4.27,4.27,0,0,1,1.29-.24c1.82,0,2.29.8,2.32.87a5.78,5.78,0,0,0-1.62-.13,5.53,5.53,0,0,0-2.24.89,5.23,5.23,0,0,0-1.83,2.46l-5.32-.07a5.13,5.13,0,0,0-3.56-2.61,0,0,0,0,0,0,0c.78-.68,2,0,2.21,0-.65-1.42-3.19-2-3.32-2.1S105.26,209.7,108,211.08Z" transform="translate(9.31 -188.04)"/><path class="cls-14" d="M106.46,213.06a12.38,12.38,0,0,1,1.19.86c.09.07.19,0,.15-.14a2.61,2.61,0,0,0-.86-.94l.19.08c-.65-1.42-3.19-2-3.32-2.1s0,0,.06-.07a5.51,5.51,0,0,1,2.79.8A4.82,4.82,0,0,1,109,214a.11.11,0,0,0,.21,0,3.66,3.66,0,0,0-1.76-3.1c.19.08.38.16.58.26-.48-.61-3.25-2.88-3.46-3.11a7.64,7.64,0,0,1,3.66,2.17,5.9,5.9,0,0,1,1.25,1.64,9.24,9.24,0,0,1,.62,2.08.1.1,0,0,0,.2,0,5.08,5.08,0,0,0-.36-3.47,8.19,8.19,0,0,1,.59.73c.12-1.74-1-4.94-1-4.93l.07,0a7.38,7.38,0,0,1,1.43,2.92,9.89,9.89,0,0,1,.4,2.53c0,.8-.13,1.58-.15,2.38a.11.11,0,0,0,.2.05,8.37,8.37,0,0,0,.76-3.35,2.17,2.17,0,0,0,0-.26c.58-2.69,1.94-3.67,3.12-4a5.15,5.15,0,0,0-1,.79,5.48,5.48,0,0,0-1.24,1.91,5.86,5.86,0,0,0-.29,2.31.11.11,0,0,0,.2,0,10.33,10.33,0,0,0,.7-1.46,7.3,7.3,0,0,1,1.09-1.6,9.4,9.4,0,0,1,1.5-1.32,5.42,5.42,0,0,1,.89-.47,9.31,9.31,0,0,0-2.13,2.64c-.09.18-.17.36-.25.55a4.3,4.3,0,0,0-.57.92,9.8,9.8,0,0,0-1.16,2.92c0,.12.15.14.2.06a19.62,19.62,0,0,1,1.32-1.95,8.14,8.14,0,0,1,1.78-1.53,8.53,8.53,0,0,1,2.21-1.07s.44-.1.8-.16a23.16,23.16,0,0,0-2.93,1.83,6.15,6.15,0,0,0-.66.83,4.73,4.73,0,0,1,1-.22,3.38,3.38,0,0,0-1.18.56,4.76,4.76,0,0,0-1.77,2.08.11.11,0,0,0,.18.1,5.66,5.66,0,0,1,2.61-1.71l.09,0a4.46,4.46,0,0,0-1.17.6,5.23,5.23,0,0,0-1.83,2.46l-5.32-.07a5.12,5.12,0,0,0-3.52-2.6A2.13,2.13,0,0,1,106.46,213.06Z" transform="translate(9.31 -188.04)"/><path class="cls-15" d="M114.32,208.28c0-.26.39-.66.53-.81a2.58,2.58,0,0,1,1-.72,1.76,1.76,0,0,1,.3-.1c.13,0,.21,0,.12.16s-1.86,1.7-1.92,1.5Z" transform="translate(9.31 -188.04)"/><path class="cls-16" d="M118,211.83a.71.71,0,0,1,.56,0c.12.12-.09.17-.2.17s-.29,0-.36-.06S118,211.86,118,211.83Z" transform="translate(9.31 -188.04)"/><path class="cls-15" d="M116.2,209.46c.07-.19.45-.4.57-.46a2.2,2.2,0,0,1,1-.21.55.55,0,0,1,.25,0c.22.1-.13.24-.22.27a5.91,5.91,0,0,0-.89.4,1.37,1.37,0,0,1-.37.17c-.09,0-.26,0-.29-.1A.21.21,0,0,1,116.2,209.46Z" transform="translate(9.31 -188.04)"/><path class="cls-15" d="M110.61,207.11a2.38,2.38,0,0,1,.91,1.39c.08.23.58,1.74.18,1.84-.1,0-.2-.14-.22-.21-.12-.52-.15-1-.3-1.55a8.38,8.38,0,0,0-.62-1.4S110.55,207.08,110.61,207.11Z" transform="translate(9.31 -188.04)"/><path class="cls-15" d="M107,208.74a3,3,0,0,1,1.74.8,3.43,3.43,0,0,1,1,1.19.86.86,0,0,1,.08.73c0,.09-.16,0-.19-.07a7.1,7.1,0,0,0-1.13-1.31c-.46-.41-1-.68-1.46-1.11C107.07,209,106.93,208.75,107,208.74Z" transform="translate(9.31 -188.04)"/><path class="cls-15" d="M106.08,210.72l.11-.06a1.18,1.18,0,0,1,.64.12c.14.05.73.29.61.53s-.45,0-.57,0a2.2,2.2,0,0,1-.66-.25C106.09,211,106,210.82,106.08,210.72Z" transform="translate(9.31 -188.04)"/><path class="cls-17" d="M111.25,213c-.28-.37-2-1.8-2-1.82.63-.33,1.84.41,2.34.74a4.36,4.36,0,0,1,1.13,1.1,12,12,0,0,0-.56-2.87c.79.17,1.53,1.55,1.56,2.58.63-3.13,3.06-2.4,3-2.36A5.28,5.28,0,0,0,115.4,212c-.06.11-.11.22-.16.33a4.24,4.24,0,0,1,1-.63,2.54,2.54,0,0,1,1.78.08,18.35,18.35,0,0,0-1.81,1.13,4.11,4.11,0,0,0-.39.48,2.76,2.76,0,0,1,.76-.14c1,0,1.32.47,1.34.51a3,3,0,0,0-.94-.07,3.11,3.11,0,0,0-1.3.51,3,3,0,0,0-1.06,1.43l-3.09,0a3,3,0,0,0-2.07-1.51h0c.45-.4,1.16,0,1.28,0-.38-.82-1.86-1.13-1.93-1.22S109.67,212.18,111.25,213Z" transform="translate(9.31 -188.04)"/><path class="cls-14" d="M110.36,214.13a6.72,6.72,0,0,1,.69.5s.12,0,.09-.08a1.49,1.49,0,0,0-.5-.55l.11,0c-.38-.82-1.86-1.13-1.93-1.22l0,0a3.1,3.1,0,0,1,1.62.46,2.79,2.79,0,0,1,1.34,1.39.06.06,0,0,0,.12,0,2.12,2.12,0,0,0-1-1.8,2.41,2.41,0,0,1,.33.15c-.27-.36-1.88-1.68-2-1.81a4.4,4.4,0,0,1,2.12,1.26,3.35,3.35,0,0,1,.73.95,5.62,5.62,0,0,1,.36,1.21c0,.06.1.06.12,0a3,3,0,0,0-.22-2,3.54,3.54,0,0,1,.35.42,12,12,0,0,0-.56-2.87h0a4.39,4.39,0,0,1,.83,1.71,5.56,5.56,0,0,1,.23,1.46c0,.47-.07.92-.09,1.38,0,.06.09.09.12,0a5.05,5.05,0,0,0,.45-1.95v-.15c.33-1.57,1.13-2.13,1.81-2.31a2.74,2.74,0,0,0-.56.45,3.08,3.08,0,0,0-.72,1.12,3.39,3.39,0,0,0-.17,1.34c0,.06.09.05.12,0a6.66,6.66,0,0,0,.4-.85,5.25,5.25,0,0,1,.63-.93,5.34,5.34,0,0,1,.88-.76,3.63,3.63,0,0,1,.51-.28A5.43,5.43,0,0,0,115.4,212a1.87,1.87,0,0,0-.15.32,2.62,2.62,0,0,0-.33.53,5.64,5.64,0,0,0-.67,1.7c0,.07.08.08.11,0a12.64,12.64,0,0,1,.77-1.14,5.15,5.15,0,0,1,1-.89,5.48,5.48,0,0,1,1.29-.62s.25-.06.46-.09a13.88,13.88,0,0,0-1.7,1.06,4.11,4.11,0,0,0-.39.48,2.85,2.85,0,0,1,.58-.12,1.71,1.71,0,0,0-.68.32,2.69,2.69,0,0,0-1,1.21c0,.05.06.11.1.06a3.2,3.2,0,0,1,1.52-1l0,0a2.92,2.92,0,0,0-.68.35,3,3,0,0,0-1.06,1.43l-3.09,0a3,3,0,0,0-2-1.51A1.21,1.21,0,0,1,110.36,214.13Z" transform="translate(9.31 -188.04)"/><path class="cls-16" d="M114.93,211.35c0-.15.23-.38.3-.47a1.57,1.57,0,0,1,.57-.42,1.27,1.27,0,0,1,.18-.06c.08,0,.12,0,.07.1s-1.08,1-1.12.87Z" transform="translate(9.31 -188.04)"/><path class="cls-16" d="M117.09,213.41a.39.39,0,0,1,.32,0c.07.07,0,.09-.11.1a.29.29,0,0,1-.22,0S117.06,213.42,117.09,213.41Z" transform="translate(9.31 -188.04)"/><path class="cls-16" d="M116,212c0-.12.26-.24.33-.27a1.16,1.16,0,0,1,.55-.12.2.2,0,0,1,.15,0c.12.06-.08.14-.13.15a3.48,3.48,0,0,0-.52.24.64.64,0,0,1-.21.09c-.06,0-.15,0-.17-.05A.06.06,0,0,1,116,212Z" transform="translate(9.31 -188.04)"/><path class="cls-16" d="M112.78,210.74a1.59,1.59,0,0,1,.62.91,2.13,2.13,0,0,1,.14.51c.1.31.16.66,0,.69s-.14-.08-.15-.13c-.09-.33-.12-.68-.23-1a6.4,6.4,0,0,0-.43-.92A0,0,0,0,1,112.78,210.74Z" transform="translate(9.31 -188.04)"/><path class="cls-16" d="M110.75,211.62a1.67,1.67,0,0,1,1,.45,2.17,2.17,0,0,1,.59.69.5.5,0,0,1,.05.43c0,.05-.1,0-.11,0a4.39,4.39,0,0,0-.66-.76c-.27-.24-.6-.4-.85-.64C110.77,211.73,110.69,211.62,110.75,211.62Z" transform="translate(9.31 -188.04)"/><path class="cls-16" d="M110.14,212.77a.09.09,0,0,1,.06,0,.83.83,0,0,1,.38.07c.08,0,.42.17.35.31s-.26,0-.33,0a1.3,1.3,0,0,1-.39-.14C110.14,212.91,110.09,212.82,110.14,212.77Z" transform="translate(9.31 -188.04)"/><path class="cls-18" d="M115.28,215.05a.73.73,0,0,0,0-.3c-.45-1.27-2.4-.38-2.71.55s1.54.71,2,.62a1,1,0,0,0,.72-.46A.58.58,0,0,0,115.28,215.05Z" transform="translate(9.31 -188.04)"/><path class="cls-19" d="M113.47,215.05a.15.15,0,0,0,0-.07c-.09-.27-.52-.08-.58.12s.33.16.42.14a.29.29,0,0,0,.16-.1A.1.1,0,0,0,113.47,215.05Z" transform="translate(9.31 -188.04)"/><path class="cls-18" d="M108.85,215.37a.39.39,0,0,0,0-.15c-.22-.65-1.22-.19-1.38.28s.79.37,1,.32a.52.52,0,0,0,.37-.24A.36.36,0,0,0,108.85,215.37Z" transform="translate(9.31 -188.04)"/><path class="cls-19" d="M107.93,215.37a0,0,0,0,0,0,0c0-.14-.27,0-.3.06s.17.08.22.07a.11.11,0,0,0,.08-.05A.07.07,0,0,0,107.93,215.37Z" transform="translate(9.31 -188.04)"/><path class="cls-20" d="M111.66,215a.73.73,0,0,0,0-.3c-.46-1.29-2.43-.39-2.74.56s1.55.72,2,.63a1.05,1.05,0,0,0,.73-.47A.6.6,0,0,0,111.66,215Z" transform="translate(9.31 -188.04)"/><path class="cls-21" d="M109.83,215a.17.17,0,0,0,0-.07c-.1-.28-.53-.08-.6.13s.34.15.44.13a.21.21,0,0,0,.16-.1A.28.28,0,0,0,109.83,215Z" transform="translate(9.31 -188.04)"/><path class="cls-18" d="M112.71,215.39a.39.39,0,0,0,0-.15c-.23-.65-1.22-.2-1.38.28s.79.36,1,.32a.53.53,0,0,0,.37-.24A.3.3,0,0,0,112.71,215.39Z" transform="translate(9.31 -188.04)"/><path class="cls-19" d="M111.78,215.39v0c0-.14-.27-.05-.3.06s.17.08.22.07a.14.14,0,0,0,.08-.05A0,0,0,0,0,111.78,215.39Z" transform="translate(9.31 -188.04)"/><path class="cls-22" d="M203.56,219.48a.85.85,0,0,0,.17-.25c.15-.44-.4-.61-.84-.29a4.92,4.92,0,0,0-.53.42,1.48,1.48,0,0,0-1.26-.31c-.32.1-.6.26-.6.54s.33.35.69.4c-.48.19-.89.46-.86.81s.88.15,1.1.08a2.91,2.91,0,0,0,.95-.51.76.76,0,0,0,.6.57,1,1,0,0,0,.81-.19.47.47,0,0,0,.15-.52c.33,0,.61-.16.68-.37C204.77,219.44,204.17,219.39,203.56,219.48Z" transform="translate(9.31 -188.04)"/><path class="cls-23" d="M203.56,219.27a.74.74,0,0,0,.17-.25c.15-.44-.4-.61-.84-.29a5.29,5.29,0,0,0-.53.43,1.45,1.45,0,0,0-1.26-.32c-.32.1-.6.27-.6.54s.33.34.69.4c-.48.19-.89.46-.86.81s.88.15,1.1.08a3.12,3.12,0,0,0,.95-.51.76.76,0,0,0,.6.57,1,1,0,0,0,.81-.19.47.47,0,0,0,.15-.52c.33,0,.61-.15.68-.38C204.77,219.23,204.17,219.18,203.56,219.27Z" transform="translate(9.31 -188.04)"/><path class="cls-24" d="M203,219.56c0,.16-.26.29-.57.29s-.58-.13-.58-.29.26-.3.58-.3S203,219.39,203,219.56Z" transform="translate(9.31 -188.04)"/><path class="cls-22" d="M316.75,223a.67.67,0,0,0,.13-.2c.12-.36-.32-.5-.68-.24a5.08,5.08,0,0,0-.43.34,1.16,1.16,0,0,0-1-.25c-.26.08-.49.21-.5.44s.27.28.57.33c-.39.14-.72.36-.7.65s.71.12.9.07a2.63,2.63,0,0,0,.77-.42c0,.21.17.37.49.46a.74.74,0,0,0,.65-.15.35.35,0,0,0,.12-.42c.27,0,.5-.13.56-.3C317.73,222.91,317.24,222.88,316.75,223Z" transform="translate(9.31 -188.04)"/><path class="cls-23" d="M316.75,222.77a.54.54,0,0,0,.13-.19c.12-.36-.32-.5-.68-.24a5.08,5.08,0,0,0-.43.34,1.19,1.19,0,0,0-1-.25c-.26.08-.49.22-.5.44s.27.28.57.33c-.39.15-.72.36-.7.65s.71.12.9.06a2.6,2.6,0,0,0,.77-.41c0,.21.17.37.49.46a.74.74,0,0,0,.65-.15.35.35,0,0,0,.12-.42c.27,0,.5-.13.56-.31C317.73,222.74,317.24,222.71,316.75,222.77Z" transform="translate(9.31 -188.04)"/><path class="cls-24" d="M316.29,223c0,.13-.21.24-.47.24s-.47-.11-.47-.24.21-.24.47-.24S316.29,222.88,316.29,223Z" transform="translate(9.31 -188.04)"/><path class="cls-22" d="M150.85,217.9a.91.91,0,0,0,.21-.3c.17-.55-.5-.76-1-.36a6.89,6.89,0,0,0-.65.52,1.77,1.77,0,0,0-1.55-.38c-.39.11-.74.32-.75.66s.41.42.86.5c-.59.22-1.1.56-1.05,1s1.07.18,1.34.1a4.1,4.1,0,0,0,1.17-.62.93.93,0,0,0,.74.68,1.13,1.13,0,0,0,1-.22.56.56,0,0,0,.19-.64c.41-.06.75-.19.84-.46C152.33,217.85,151.59,217.8,150.85,217.9Z" transform="translate(9.31 -188.04)"/><path class="cls-23" d="M150.85,217.64a.82.82,0,0,0,.21-.3c.17-.54-.5-.75-1-.36a6.89,6.89,0,0,0-.65.52,1.8,1.8,0,0,0-1.55-.38c-.39.11-.74.33-.75.66s.41.42.86.5c-.59.22-1.1.56-1.05,1s1.07.18,1.34.1a3.87,3.87,0,0,0,1.17-.62.93.93,0,0,0,.74.69,1.13,1.13,0,0,0,1-.23.56.56,0,0,0,.19-.64c.41,0,.75-.19.84-.46C152.33,217.59,151.59,217.54,150.85,217.64Z" transform="translate(9.31 -188.04)"/><path class="cls-24" d="M150.15,218c0,.2-.32.36-.71.36s-.71-.16-.71-.36.32-.37.71-.37S150.15,217.8,150.15,218Z" transform="translate(9.31 -188.04)"/><path class="cls-22" d="M142.19,222.42a1.05,1.05,0,0,0,.14-.2c.11-.36-.33-.5-.69-.24a5.26,5.26,0,0,0-.42.34,1.22,1.22,0,0,0-1-.25c-.26.08-.49.22-.49.44s.27.28.56.33c-.39.14-.72.37-.69.65s.71.12.89.07a2.71,2.71,0,0,0,.77-.41.6.6,0,0,0,.49.45.73.73,0,0,0,.65-.15.37.37,0,0,0,.13-.42c.26,0,.49-.13.55-.3C143.17,222.38,142.68,222.35,142.19,222.42Z" transform="translate(9.31 -188.04)"/><path class="cls-23" d="M142.19,222.25a.81.81,0,0,0,.14-.2c.11-.36-.33-.5-.69-.24a4,4,0,0,0-.42.35,1.19,1.19,0,0,0-1-.26c-.26.08-.49.22-.49.44s.27.28.56.33c-.39.15-.72.37-.69.65s.71.12.89.06a2.29,2.29,0,0,0,.77-.41.6.6,0,0,0,.49.46.73.73,0,0,0,.65-.15.37.37,0,0,0,.13-.42c.26,0,.49-.13.55-.31C143.17,222.21,142.68,222.18,142.19,222.25Z" transform="translate(9.31 -188.04)"/><path class="cls-24" d="M141.73,222.48c0,.14-.21.24-.47.24s-.47-.1-.47-.24.21-.24.47-.24S141.73,222.35,141.73,222.48Z" transform="translate(9.31 -188.04)"/><path class="cls-22" d="M67.57,219.73c.09.27.43.4.84.46a.56.56,0,0,0,.19.64,1.13,1.13,0,0,0,1,.22.92.92,0,0,0,.74-.69,3.83,3.83,0,0,0,1.16.62c.28.09,1.31.34,1.35-.1s-.46-.76-1-1c.45-.07.86-.21.86-.49s-.36-.55-.75-.67a1.8,1.8,0,0,0-1.55.39,6.89,6.89,0,0,0-.65-.52c-.54-.4-1.21-.19-1,.36a.91.91,0,0,0,.21.3C68.12,219.15,67.39,219.21,67.57,219.73Z" transform="translate(9.31 -188.04)"/><path class="cls-23" d="M67.57,219.46c.09.28.43.42.84.47a.56.56,0,0,0,.19.64,1.13,1.13,0,0,0,1,.23,1,1,0,0,0,.74-.69,4.32,4.32,0,0,0,1.16.62c.28.08,1.31.33,1.35-.1s-.46-.77-1-1c.45-.07.86-.21.86-.49s-.36-.55-.75-.66a1.77,1.77,0,0,0-1.55.38,6.89,6.89,0,0,0-.65-.52c-.54-.39-1.21-.18-1,.36a.91.91,0,0,0,.21.3C68.12,218.89,67.39,219,67.57,219.46Z" transform="translate(9.31 -188.04)"/><path class="cls-24" d="M69.57,219.36c0,.2.32.36.71.36s.71-.16.71-.36-.32-.37-.71-.37S69.57,219.16,69.57,219.36Z" transform="translate(9.31 -188.04)"/><path class="cls-22" d="M76.67,224.08c.06.18.29.27.55.31a.37.37,0,0,0,.13.42A.73.73,0,0,0,78,225a.6.6,0,0,0,.49-.46,2.51,2.51,0,0,0,.77.42c.18.05.86.22.89-.07s-.3-.51-.69-.65c.29,0,.56-.15.56-.33s-.23-.36-.49-.44a1.18,1.18,0,0,0-1,.25,5.26,5.26,0,0,0-.42-.34c-.36-.26-.8-.12-.69.24a.73.73,0,0,0,.14.2C77,223.71,76.55,223.74,76.67,224.08Z" transform="translate(9.31 -188.04)"/><path class="cls-23" d="M76.67,223.91c.06.18.29.27.55.31a.37.37,0,0,0,.13.42.73.73,0,0,0,.65.15.6.6,0,0,0,.49-.46,2.48,2.48,0,0,0,.77.41c.18.06.86.22.89-.06s-.3-.51-.69-.66c.29,0,.56-.14.56-.32s-.23-.36-.49-.44a1.18,1.18,0,0,0-1,.26,4,4,0,0,0-.42-.35c-.36-.26-.8-.12-.69.24a.73.73,0,0,0,.14.2C77,223.54,76.55,223.57,76.67,223.91Z" transform="translate(9.31 -188.04)"/><path class="cls-24" d="M78,223.84c0,.13.21.24.47.24s.47-.11.47-.24-.21-.24-.47-.24S78,223.71,78,223.84Z" transform="translate(9.31 -188.04)"/><path class="cls-22" d="M257.91,224.51a.49.49,0,0,0,.14-.2c.12-.36-.33-.5-.69-.23a3.45,3.45,0,0,0-.42.34,1.17,1.17,0,0,0-1-.25c-.27.07-.5.21-.5.43s.27.28.57.33c-.4.15-.73.37-.7.65s.71.13.89.07a2.48,2.48,0,0,0,.77-.41.64.64,0,0,0,.49.46.79.79,0,0,0,.66-.15.39.39,0,0,0,.12-.42c.27,0,.49-.13.55-.31C258.89,224.48,258.41,224.44,257.91,224.51Z" transform="translate(9.31 -188.04)"/><path class="cls-23" d="M257.91,224.34a.43.43,0,0,0,.14-.2c.12-.35-.33-.49-.69-.23a3.45,3.45,0,0,0-.42.34,1.17,1.17,0,0,0-1-.25c-.27.07-.5.21-.5.43s.27.28.57.33c-.4.15-.73.37-.7.66s.71.12.89.06a2.48,2.48,0,0,0,.77-.41.64.64,0,0,0,.49.46.79.79,0,0,0,.66-.15.4.4,0,0,0,.12-.43c.27,0,.49-.12.55-.3C258.89,224.31,258.41,224.27,257.91,224.34Z" transform="translate(9.31 -188.04)"/><path class="cls-24" d="M257.45,224.58c0,.13-.21.24-.47.24s-.47-.11-.47-.24.21-.24.47-.24S257.45,224.44,257.45,224.58Z" transform="translate(9.31 -188.04)"/><path class="cls-22" d="M263.43,222.4a.8.8,0,0,0,.2-.29c.17-.52-.47-.72-1-.34a5.39,5.39,0,0,0-.61.49,1.72,1.72,0,0,0-1.48-.36c-.37.11-.71.31-.71.63s.39.4.82.47c-.57.21-1,.53-1,.94s1,.17,1.29.1a3.87,3.87,0,0,0,1.11-.6.88.88,0,0,0,.7.66,1.1,1.1,0,0,0,.94-.22.52.52,0,0,0,.17-.6c.39-.05.71-.19.8-.44C264.84,222.35,264.14,222.3,263.43,222.4Z" transform="translate(9.31 -188.04)"/><path class="cls-23" d="M263.43,222.15a.7.7,0,0,0,.2-.28c.17-.52-.47-.72-1-.34a4.45,4.45,0,0,0-.61.49,1.76,1.76,0,0,0-1.48-.37c-.37.11-.71.31-.71.63s.39.4.82.47c-.57.22-1,.54-1,.95s1,.17,1.29.09a4.09,4.09,0,0,0,1.11-.59.88.88,0,0,0,.7.66,1.1,1.1,0,0,0,.94-.22.53.53,0,0,0,.17-.61c.39-.05.71-.18.8-.44C264.84,222.1,264.14,222.05,263.43,222.15Z" transform="translate(9.31 -188.04)"/><path class="cls-24" d="M262.77,222.49c0,.19-.3.34-.67.34s-.68-.15-.68-.34.31-.35.68-.35S262.77,222.3,262.77,222.49Z" transform="translate(9.31 -188.04)"/><path class="cls-13" d="M272.89,218.24c-.7-.91-5-4.41-4.93-4.45,1.54-.8,4.51,1,5.74,1.82a10.43,10.43,0,0,1,2.74,2.69c.18-2.48-1.46-7-1.35-7,1.91.4,3.74,3.77,3.81,6.29,1.53-7.66,7.48-5.87,7.36-5.77a13,13,0,0,0-3.23,3.95,8.65,8.65,0,0,0-.38.81,8.87,8.87,0,0,1,2.44-1.54c1.7-.83,4.43.14,4.35.19A41.34,41.34,0,0,0,285,218a8.53,8.53,0,0,0-.94,1.18,6.65,6.65,0,0,1,1.83-.34c2.59-.06,3.25,1.14,3.3,1.24a6.36,6.36,0,0,0-5.48,1.08,7.34,7.34,0,0,0-2.6,3.48l-7.55-.09a7.25,7.25,0,0,0-5.06-3.7v0c1.11-1,2.84-.06,3.15,0-.93-2-4.54-2.77-4.73-3S269,216.28,272.89,218.24Z" transform="translate(9.31 -188.04)"/><path class="cls-14" d="M270.71,221.06a15.4,15.4,0,0,1,1.69,1.22c.13.09.28-.08.21-.21a3.73,3.73,0,0,0-1.22-1.33l.28.1c-.93-2-4.54-2.77-4.73-3,0,0,0,0,.1-.1a7.75,7.75,0,0,1,3.95,1.14,6.71,6.71,0,0,1,3.28,3.4.15.15,0,0,0,.3,0,5.2,5.2,0,0,0-2.49-4.4c.26.11.53.23.81.37-.67-.87-4.61-4.09-4.91-4.42a10.92,10.92,0,0,1,5.19,3.08,7.9,7.9,0,0,1,1.78,2.33,12.68,12.68,0,0,1,.88,3,.16.16,0,0,0,.3,0,7.27,7.27,0,0,0-.52-4.92,8.41,8.41,0,0,1,.83,1c.18-2.48-1.46-7-1.35-7l.09,0a10.49,10.49,0,0,1,2,4.16,14.55,14.55,0,0,1,.58,3.59c0,1.13-.19,2.25-.23,3.38a.16.16,0,0,0,.29.08,12.22,12.22,0,0,0,1.09-4.76v-.37c.83-3.82,2.77-5.22,4.44-5.65a6.53,6.53,0,0,0-1.37,1.12,7.26,7.26,0,0,0-1.76,2.71,8,8,0,0,0-.41,3.28c0,.15.2.13.27,0a13.58,13.58,0,0,0,1-2.07,11.46,11.46,0,0,1,1.55-2.28,13.17,13.17,0,0,1,2.14-1.87,9,9,0,0,1,1.26-.67,12.9,12.9,0,0,0-3,3.76,6.82,6.82,0,0,0-.37.77,7.47,7.47,0,0,0-.81,1.3,14.14,14.14,0,0,0-1.63,4.16c0,.16.2.19.28.08a26.2,26.2,0,0,1,1.87-2.76,11.76,11.76,0,0,1,2.53-2.19,12.1,12.1,0,0,1,3.14-1.5,11.49,11.49,0,0,1,1.13-.23A32.46,32.46,0,0,0,285,218a8.53,8.53,0,0,0-.94,1.18,6.83,6.83,0,0,1,1.41-.31,4.67,4.67,0,0,0-1.67.79,6.76,6.76,0,0,0-2.51,3,.15.15,0,0,0,.25.16,7.85,7.85,0,0,1,3.7-2.43l.13,0a6.38,6.38,0,0,0-1.66.86,7.34,7.34,0,0,0-2.6,3.48l-7.55-.09a7.32,7.32,0,0,0-5-3.7A3,3,0,0,1,270.71,221.06Z" transform="translate(9.31 -188.04)"/><path class="cls-15" d="M281.87,214.25c0-.36.56-.93.75-1.15a3.63,3.63,0,0,1,1.4-1,2,2,0,0,1,.43-.15c.18,0,.29.07.17.23s-2.64,2.41-2.74,2.14A.11.11,0,0,0,281.87,214.25Z" transform="translate(9.31 -188.04)"/><path class="cls-16" d="M287.16,219.3a1,1,0,0,1,.79,0c.18.16-.13.23-.28.24s-.42,0-.52-.09S287.1,219.34,287.16,219.3Z" transform="translate(9.31 -188.04)"/><path class="cls-15" d="M284.55,215.94c.1-.28.64-.57.8-.65a3,3,0,0,1,1.35-.31.81.81,0,0,1,.35.05c.32.16-.17.35-.3.39a8.11,8.11,0,0,0-1.27.58,2.08,2.08,0,0,1-.53.23c-.12,0-.36,0-.41-.14A.2.2,0,0,1,284.55,215.94Z" transform="translate(9.31 -188.04)"/><path class="cls-15" d="M276.6,212.6a3.31,3.31,0,0,1,1.29,2c.12.33.83,2.47.26,2.61-.13,0-.28-.19-.31-.29-.17-.74-.21-1.48-.42-2.2a12.27,12.27,0,0,0-.88-2C276.5,212.64,276.53,212.56,276.6,212.6Z" transform="translate(9.31 -188.04)"/><path class="cls-15" d="M271.53,214.92a4.18,4.18,0,0,1,2.48,1.13,5,5,0,0,1,1.43,1.69,1.26,1.26,0,0,1,.12,1c-.06.12-.24-.05-.27-.1a10.67,10.67,0,0,0-1.61-1.87c-.65-.58-1.45-1-2.07-1.57C271.57,215.21,271.38,214.93,271.53,214.92Z" transform="translate(9.31 -188.04)"/><path class="cls-15" d="M270.17,217.73a.27.27,0,0,1,.16-.08,1.61,1.61,0,0,1,.91.16c.19.07,1,.42.86.75s-.64,0-.81,0a3.13,3.13,0,0,1-.94-.35C270.18,218.08,270.05,217.87,270.17,217.73Z" transform="translate(9.31 -188.04)"/><path class="cls-17" d="M277.52,220.93c-.41-.52-2.91-2.56-2.87-2.58.9-.47,2.62.59,3.34,1.06a6,6,0,0,1,1.59,1.56,17,17,0,0,0-.79-4.07c1.12.23,2.18,2.18,2.21,3.65.9-4.45,4.35-3.41,4.28-3.35a7.74,7.74,0,0,0-1.88,2.29c-.07.15-.15.31-.22.47a5.42,5.42,0,0,1,1.42-.89,3.62,3.62,0,0,1,2.52.1,25.52,25.52,0,0,0-2.56,1.61,4.89,4.89,0,0,0-.55.69,3.5,3.5,0,0,1,1.07-.2c1.5,0,1.88.66,1.91.72a4.29,4.29,0,0,0-1.33-.1,4.6,4.6,0,0,0-1.86.72,4.34,4.34,0,0,0-1.51,2l-4.38-.06a4.25,4.25,0,0,0-2.94-2.15,0,0,0,0,0,0,0c.64-.56,1.65,0,1.83,0-.54-1.16-2.64-1.61-2.75-1.73S275.26,219.8,277.52,220.93Z" transform="translate(9.31 -188.04)"/><path class="cls-14" d="M276.25,222.57a9.68,9.68,0,0,1,1,.7c.08.06.16,0,.12-.11a2,2,0,0,0-.7-.78l.16.06c-.54-1.16-2.64-1.61-2.75-1.73l.06-.05a4.42,4.42,0,0,1,2.29.66,3.88,3.88,0,0,1,1.91,2,.09.09,0,0,0,.17,0,3,3,0,0,0-1.45-2.55l.48.21c-.4-.51-2.68-2.37-2.85-2.57a6.38,6.38,0,0,1,3,1.79,4.7,4.7,0,0,1,1,1.36,7.69,7.69,0,0,1,.52,1.71c0,.08.14.09.17,0a4.28,4.28,0,0,0-.31-2.86,4.85,4.85,0,0,1,.49.61,17,17,0,0,0-.79-4.07h.06a6.14,6.14,0,0,1,1.18,2.42,8.6,8.6,0,0,1,.33,2.08c0,.66-.11,1.3-.13,2,0,.08.12.13.16,0a7,7,0,0,0,.64-2.77v-.22c.48-2.22,1.61-3,2.58-3.27a4.3,4.3,0,0,0-.8.64,4.22,4.22,0,0,0-1,1.58,4.77,4.77,0,0,0-.24,1.91c0,.08.12.07.16,0a7.9,7.9,0,0,0,.57-1.21,7,7,0,0,1,.9-1.32,8.14,8.14,0,0,1,1.25-1.09,5.06,5.06,0,0,1,.73-.38,7.51,7.51,0,0,0-1.76,2.18l-.21.45a4.12,4.12,0,0,0-.47.75,8.47,8.47,0,0,0-1,2.42c0,.1.12.11.16,0a17.59,17.59,0,0,1,1.1-1.61,6.28,6.28,0,0,1,1.46-1.26,6.81,6.81,0,0,1,1.82-.88s.37-.09.66-.14a18.94,18.94,0,0,0-2.41,1.51,4.89,4.89,0,0,0-.55.69,3.88,3.88,0,0,1,.82-.18,2.69,2.69,0,0,0-1,.45,3.81,3.81,0,0,0-1.46,1.72c0,.08.09.15.14.09a4.54,4.54,0,0,1,2.16-1.41l.07,0a4,4,0,0,0-1,.49,4.34,4.34,0,0,0-1.51,2l-4.38-.06a4.24,4.24,0,0,0-2.91-2.14A1.69,1.69,0,0,1,276.25,222.57Z" transform="translate(9.31 -188.04)"/><path class="cls-16" d="M282.73,218.61c0-.2.33-.53.44-.66a2.07,2.07,0,0,1,.81-.59,1,1,0,0,1,.25-.08c.11,0,.17,0,.1.13s-1.54,1.4-1.59,1.24S282.74,218.62,282.73,218.61Z" transform="translate(9.31 -188.04)"/><path class="cls-16" d="M285.81,221.54a.62.62,0,0,1,.45,0c.11.1-.07.14-.16.15a.44.44,0,0,1-.3-.05C285.75,221.61,285.76,221.57,285.81,221.54Z" transform="translate(9.31 -188.04)"/><path class="cls-16" d="M284.29,219.6c0-.16.37-.34.46-.39a1.93,1.93,0,0,1,.79-.17.53.53,0,0,1,.21,0c.17.09-.11.2-.18.22a5,5,0,0,0-.74.34,1.2,1.2,0,0,1-.31.13c-.07,0-.21,0-.24-.08A.11.11,0,0,1,284.29,219.6Z" transform="translate(9.31 -188.04)"/><path class="cls-16" d="M279.68,217.76a2.2,2.2,0,0,1,.89,1.28,3.76,3.76,0,0,1,.2.73c.13.45.22.93,0,1s-.19-.12-.21-.19c-.13-.48-.17-1-.32-1.45a9,9,0,0,0-.62-1.29S279.63,217.74,279.68,217.76Z" transform="translate(9.31 -188.04)"/><path class="cls-16" d="M276.8,219a2.36,2.36,0,0,1,1.44.65,3,3,0,0,1,.83,1,.75.75,0,0,1,.07.62c0,.07-.14,0-.15-.07a6.45,6.45,0,0,0-.94-1.08c-.37-.34-.84-.56-1.2-.91C276.83,219.16,276.72,219,276.8,219Z" transform="translate(9.31 -188.04)"/><path class="cls-16" d="M275.94,220.63l.09,0a1.11,1.11,0,0,1,.53.1c.11,0,.6.25.5.44s-.38,0-.47,0a2,2,0,0,1-.55-.2C275.94,220.84,275.87,220.72,275.94,220.63Z" transform="translate(9.31 -188.04)"/><path class="cls-18" d="M283.23,223.87a1.14,1.14,0,0,0,0-.42c-.64-1.8-3.4-.54-3.84.78-.38,1.16,2.18,1,2.79.88a1.46,1.46,0,0,0,1-.66A.81.81,0,0,0,283.23,223.87Z" transform="translate(9.31 -188.04)"/><path class="cls-19" d="M280.67,223.87a.28.28,0,0,0,0-.09c-.14-.39-.74-.12-.84.17s.48.22.61.19a.31.31,0,0,0,.22-.14A.19.19,0,0,0,280.67,223.87Z" transform="translate(9.31 -188.04)"/><path class="cls-18" d="M274.1,224.33a.49.49,0,0,0,0-.21c-.32-.92-1.74-.28-2,.4s1.11.51,1.42.45a.75.75,0,0,0,.53-.34A.38.38,0,0,0,274.1,224.33Z" transform="translate(9.31 -188.04)"/><path class="cls-19" d="M272.79,224.33v0c-.07-.21-.38-.06-.43.08s.24.12.31.1a.14.14,0,0,0,.11-.07A.08.08,0,0,0,272.79,224.33Z" transform="translate(9.31 -188.04)"/><path class="cls-20" d="M278.09,223.84a1,1,0,0,0,0-.42c-.65-1.83-3.46-.55-3.9.79-.38,1.18,2.22,1,2.84.89a1.43,1.43,0,0,0,1-.66A.77.77,0,0,0,278.09,223.84Z" transform="translate(9.31 -188.04)"/><path class="cls-21" d="M275.49,223.85a.31.31,0,0,0,0-.1c-.14-.4-.75-.12-.85.18s.49.22.62.19a.31.31,0,0,0,.22-.14A.15.15,0,0,0,275.49,223.85Z" transform="translate(9.31 -188.04)"/><path class="cls-18" d="M279.58,224.36a.53.53,0,0,0,0-.22c-.32-.92-1.74-.27-2,.4s1.11.52,1.42.45a.71.71,0,0,0,.53-.33A.43.43,0,0,0,279.58,224.36Z" transform="translate(9.31 -188.04)"/><path class="cls-19" d="M278.27,224.36a.09.09,0,0,0,0-.05c-.07-.2-.37-.06-.42.09s.24.11.31.1a.13.13,0,0,0,.11-.08A.06.06,0,0,0,278.27,224.36Z" transform="translate(9.31 -188.04)"/><path class="cls-25" d="M228.83,225.22s-14.47,1.87-8.35,2.71,91.6,1.46,101-2.5S259.23,223.14,228.83,225.22Z" transform="translate(9.31 -188.04)"/><path class="cls-26" d="M225.08,208.13l-.09-4.75s9.68,0,21.62,0,54.38,1.92,65.1,1.78c0,0,5.22-.84,7.33,3.1,1.17,2.17,4.66,12.55-3.8,16.22a39,39,0,0,1-7.76,1.27c-5.08.42-80,.14-82.54,0S225.08,208.13,225.08,208.13Z" transform="translate(9.31 -188.04)"/><path class="cls-27" d="M277.84,226.1c-22.66,0-51.32-.14-52.91-.22a.8.8,0,0,1-.56-.32c-1.77-2.18.46-16.83.55-17.46l-.09-4.71a.13.13,0,0,1,0-.12.17.17,0,0,1,.12-.05c.09,0,9.82-.05,21.62-.05,5.65,0,17.89.42,30.85.87,14.05.49,28.6,1,34.25.92,0,0,5.31-.86,7.48,3.19.64,1.2,2.73,6.63,1.14,11.21a8.73,8.73,0,0,1-5,5.23,38.69,38.69,0,0,1-7.81,1.29C305.27,226.06,290.14,226.1,277.84,226.1Zm-52.68-22.55.09,4.58c0,.18-2.3,15.15-.62,17.22a.4.4,0,0,0,.32.19c1.59.09,30.23.23,52.89.23,12.3,0,27.42,0,29.63-.23a39.17,39.17,0,0,0,7.72-1.26,8.39,8.39,0,0,0,4.82-5c1.56-4.46-.48-9.77-1.11-10.95-2.06-3.83-7.15-3-7.16-3h-1.28c-6.33,0-19.89-.47-33-.93-12.95-.45-25.19-.87-30.84-.87C235.66,203.5,226.5,203.54,225.16,203.55Z" transform="translate(9.31 -188.04)"/><path class="cls-28" d="M230.1,207.56c-1-2.76-3.29-4.93-6.35-4-4.54,1.4-5.44,6.29-5.65,10.39s.41,9.78,4.86,11.39c5.18,1.86,7.6-3.84,8.17-7.72A21.44,21.44,0,0,0,230.1,207.56Z" transform="translate(9.31 -188.04)"/><path class="cls-27" d="M224.9,225.88h0a5.85,5.85,0,0,1-2-.37c-4.75-1.71-5.15-8-5-11.55.19-3.82,1-9.06,5.76-10.54a5.18,5.18,0,0,1,1.48-.23c2.19,0,4.09,1.61,5.08,4.31a21.66,21.66,0,0,1,1,10.16,14.23,14.23,0,0,1-1.87,5.37A5.37,5.37,0,0,1,224.9,225.88Zm.28-22.36a4.51,4.51,0,0,0-1.38.22c-4.57,1.41-5.35,6.52-5.53,10.23-.18,3.49.21,9.59,4.75,11.23a5.45,5.45,0,0,0,1.88.35c3.86,0,5.63-5,6.07-7.94a21.38,21.38,0,0,0-1-10C229,205.05,227.23,203.52,225.18,203.52Z" transform="translate(9.31 -188.04)"/><path class="cls-29" d="M230.1,207.56a8.35,8.35,0,0,0-.76-1.56c1.8,4.54,1.38,11.92-.93,15.66a5.28,5.28,0,0,1-8,1.39,5.51,5.51,0,0,1-.93-.87,6.34,6.34,0,0,0,3.5,3.18c5.18,1.86,7.6-3.84,8.17-7.72A21.44,21.44,0,0,0,230.1,207.56Z" transform="translate(9.31 -188.04)"/><path class="cls-30" d="M229.19,210.38c-.47-2.34-1.84-4.93-4.45-5.26a3.39,3.39,0,0,0-3.37,1.35c-2.58,2.38-2.82,7.37-2.59,10.43.17,2.32.72,5.68,2.69,7.14a4.11,4.11,0,0,0,5.07-.26C230.1,220.64,230.05,214.64,229.19,210.38Zm-7.79,13c-1.47-1.16-1.9-4.48-2.11-6.19-.36-2.84-.34-7.23,1.57-9.86l.07-.05a3.71,3.71,0,0,1,5.51-.88c1.83,1.3,2.31,3.39,2.62,5.47.56,3.71.2,8-2,11.11C225.59,225.06,223,224.65,221.4,223.36Z" transform="translate(9.31 -188.04)"/><path class="cls-30" d="M227.48,211.46c-.17-1.24-.52-4.09-2-4.58-1.15-.37-1.82-.59-2.47-.23,0,0,0,0,0,0l-.09.07a2.53,2.53,0,0,0-.26.22c-2.66,2.27-2.93,6.77-2.64,10,.16,1.76.3,4.25,1.61,5.56a2.82,2.82,0,0,0,4-.07C228.24,219.68,228,214.89,227.48,211.46Zm-1.09,9.44c-1.12,2.8-4.26,2.27-5.19,0a15.28,15.28,0,0,1-.86-4.3c-.29-2.73-.11-6.63,1.73-9,0,.07.11.07.21-.05.9-1.06,2.55-.7,3.42.25s1.16,2.63,1.41,3.92A16.51,16.51,0,0,1,226.39,220.9Z" transform="translate(9.31 -188.04)"/><path class="cls-30" d="M225.57,212.83a8.71,8.71,0,0,0-1.82-4.65c-.61-.68-1-.33-1.35.26-.05.1,0,.14,0,.14-1.64,2-1.41,5.21-1.42,7.65,0,1.51.68,6.68,3.07,4.59.86-.75,1.18-2.32,1.45-3.35A11.51,11.51,0,0,0,225.57,212.83Zm-.13,3.19c0,.78-.88,5.64-2.72,4.63-1.34-.74-1.28-4.12-1.29-5.4,0-2.22-.25-5.12,1.33-7,.66-.36,1.72,1.76,1.84,2.08a21,21,0,0,1,.69,2.73A11.88,11.88,0,0,1,225.44,216Z" transform="translate(9.31 -188.04)"/><path class="cls-30" d="M223.2,209.53s-.06,0-.09,0a1,1,0,0,0-.3.23c.06-.11.11-.22.18-.33s0-.09-.07,0a7.11,7.11,0,0,0-1.11,4.44c0,1-.06,4.42,1.14,4.79.05,0,.13-.05.16-.08.81-.76.69-2.21.78-3.23C224.06,213.49,224.14,211.17,223.2,209.53Zm-.75,1.08c0,.12,0,.24,0,.36-.06.52-.21,1.34-.26,2.16A8.11,8.11,0,0,1,222.45,210.61Zm1.17,5.37a16.44,16.44,0,0,1-.27,1.71l-.56,0a4.73,4.73,0,0,1-.22-1c-.09-.56-.19-1.15-.27-1.75a1.36,1.36,0,0,0,.37.6s.06,0,.08,0c.86-.41.81-2.85.25-3.45-.06-.07-.25.16-.19.24.5.63.15,2,.09,2.67-.44-.16-.56-.55-.38-1.16a11,11,0,0,1,0-1.62c0-.19.25-3,.71-1.93a7.58,7.58,0,0,1,.49,3C223.72,214.24,223.7,215.11,223.62,216Z" transform="translate(9.31 -188.04)"/><path class="cls-27" d="M310.12,219.13c-1.49-.08-3,.18-4.44.19s-3.1,0-4.65-.07c-3.37-.05-6.74-.23-10.11-.45a153.55,153.55,0,0,0-19.66.11c-3.13.21-6.28.35-9.41.61-1.5.13-2.94-.09-4.43-.06s-3.17.12-4.77,0c-3.31-.23-6.61-.25-9.92-.34-1.64,0-3.28-.1-4.93-.09a15.81,15.81,0,0,0-1.67.12c-.88.09-2.29.44-3.1,0,0,0-.11.11-.08.13,1,.69,2.32.28,3.44.23a47.93,47.93,0,0,1,5.08.2c3.3.21,6.6.28,9.89.52a102.56,102.56,0,0,0,18.2-.58,122.72,122.72,0,0,1,20.19-.46c3.39.21,6.77.43,10.16.48s6.71-.06,10.09-.28C310.07,219.36,310.19,219.13,310.12,219.13Z" transform="translate(9.31 -188.04)"/><path class="cls-27" d="M294.4,223c-.43-.84-1.86-1-2.55-1.16a19.1,19.1,0,0,0-4.4-.36c-2.43,0-4.81-.4-7.24-.29-.39,0-1.78-.08-1.9.62s4.24.93,4.59.94c.07,0,.18-.25.11-.25a15.14,15.14,0,0,1-4.43-.57c-.4-.12.64-.53.6-.53a6.19,6.19,0,0,1,1-.06c.82,0,1.64,0,2.46.09s1.66.33,2.5.41c1,.11,2,.06,3.07.1a24,24,0,0,1,3,.33,5,5,0,0,1,2.5,1,12.77,12.77,0,0,1-1.44,0c-1,0-1.93.18-2.88.29a46.29,46.29,0,0,1-6.33.32,25.48,25.48,0,0,1-6-.93c-1.66-.45-3.71-.34-5.21-1.42-.81-.58.7-.66,1-.71,1.24-.19,2.49-.37,3.74-.45.87,0,1.74,0,2.6.05s1.9-.18,2.86-.16c2,0,4.09.17,6.13.26a53.69,53.69,0,0,1,5.74,1s.13-.15.08-.17a48,48,0,0,0-12.48-1.61c-1.87,0-3.77,0-5.65.18a31.84,31.84,0,0,0-3.34.55,2,2,0,0,0-1.25.65c-.05.07-.15.23-.09.33a2.8,2.8,0,0,0,1.83,1.11c1,.25,2.07.42,3.1.66a43.47,43.47,0,0,0,6.75,1.22,44.77,44.77,0,0,0,6.34-.17c1.29-.1,2.57-.3,3.86-.29a1.7,1.7,0,0,0,1.19-.28C294.32,223.45,294.5,223.15,294.4,223Z" transform="translate(9.31 -188.04)"/><path class="cls-27" d="M263.56,222.76c-2.72-.43-5.4-.88-8.13-1.09s-5.37-.13-8-.15-5.08-.29-7.64-.12c-2.87.2-5.6,1.09-8.46.39,0,0-.12.14-.07.16,2.52.81,4.83.27,7.4.06a36.67,36.67,0,0,1,8.44.2c2.63.38,5.37,0,8,.18s5.57.58,8.38.57C263.51,223,263.62,222.77,263.56,222.76Z" transform="translate(9.31 -188.04)"/><path class="cls-27" d="M274.06,224.42c-2.41-.1-4.81.09-7.21,0a37,37,0,0,1-6.55-.68s-.1.11-.06.12a31.47,31.47,0,0,0,13.71.81C274,224.67,274.13,224.42,274.06,224.42Z" transform="translate(9.31 -188.04)"/><path class="cls-27" d="M313.84,221.16a79.77,79.77,0,0,0-8.46.34,35.41,35.41,0,0,1-4.71.26c-.67,0-1.34-.06-2-.1a4.88,4.88,0,0,1-1.58-.09s-.14.15-.1.18c.81.56,2.15.37,3,.45a29.29,29.29,0,0,0,4.19-.07,77,77,0,0,0,9.47-.62C313.77,221.5,313.94,221.17,313.84,221.16Z" transform="translate(9.31 -188.04)"/><path class="cls-27" d="M280.63,207.67c-8.19,0-16.4.53-24.55-.67a80.61,80.61,0,0,0-12.23-.47c-1.95,0-3.91,0-5.86,0-1,0-2,.09-3.05.15a3.2,3.2,0,0,0-1.72.3c-.06,0-.17.29-.05.23.71-.4,1.69-.07,2.44-.13a26.83,26.83,0,0,1,3,.07c1.95.07,3.91.12,5.87.14a85.81,85.81,0,0,1,12.09.76,40.76,40.76,0,0,0,11.07.55,124.82,124.82,0,0,1,12.95-.78S280.67,207.67,280.63,207.67Z" transform="translate(9.31 -188.04)"/><path class="cls-27" d="M311.41,210.12c-5.21-.31-10.4-.74-15.62-.63-5.46.12-10.9.34-16.35.27,0,0-.11.14-.06.14,5.21.19,10.42.12,15.64.26,2.68.08,5.37,0,8.05,0s5.47.27,8.2.25C311.35,210.41,311.5,210.13,311.41,210.12Z" transform="translate(9.31 -188.04)"/><path class="cls-27" d="M313.32,206.2a7.17,7.17,0,0,0-2.4.06c-1.35.11-2.69.24-4,.28-2.26.07-4.53.05-6.79.08,0,0-.11.14-.07.14,2.21.09,4.42.19,6.64.25a23.39,23.39,0,0,0,6.47-.35C313.22,206.63,313.48,206.24,313.32,206.2Z" transform="translate(9.31 -188.04)"/><path class="cls-27" d="M252.29,212a37.21,37.21,0,0,0-8-.23c-1.38.19-2.79.08-4.17.24a25.52,25.52,0,0,1-4.6.34c-.05,0-.12.14-.08.15a23.12,23.12,0,0,0,3.72-.09c1.39,0,2.77-.09,4.16-.07s2.78-.22,4.17-.15a42.61,42.61,0,0,0,4.66,0C252.24,212.21,252.35,212,252.29,212Z" transform="translate(9.31 -188.04)"/><path class="cls-27" d="M295.12,213.38c-1.5-.16-3-.36-4.49-.43a27,27,0,0,0-4.11.36,49.43,49.43,0,0,1-9.5,0c-3-.26-6.1-.11-9.15-.26-1.51-.08-3,0-4.54,0a18.05,18.05,0,0,1-4-.09s-.09.1-.06.12a14.48,14.48,0,0,0,3.83.37c1.49.12,3,.12,4.46.19,3,.14,6.09.11,9.12.35a48.73,48.73,0,0,0,8.71,0c1.67-.16,3.33-.51,5-.56s3.07.11,4.6.19C295.09,213.55,295.17,213.39,295.12,213.38Z" transform="translate(9.31 -188.04)"/><path class="cls-27" d="M316.53,212.67c-1.48,0-2.95.08-4.43.16a25.82,25.82,0,0,1-4.65.07s-.12.14-.07.15a22.12,22.12,0,0,0,4.53.18,21.36,21.36,0,0,0,4.45-.14C316.46,213.07,316.66,212.66,316.53,212.67Z" transform="translate(9.31 -188.04)"/><path class="cls-31" d="M315.69,218c-3.86.42-7.74-.12-11.61.07a39.27,39.27,0,0,1-5.53,0c-2.78,0-5.56-.16-8.34-.25-4.11-.13-8.22-.07-12.32.09-8.2.3-16.39.47-24.58.73-3.94.13-8,.82-12,.49-2.38-.2-5.28-.77-6.67-3s-1.36-4.6-2.17-6.89-2.94-5.33-5.61-6h-.61a7.85,7.85,0,0,1,3.06,3.29,18.83,18.83,0,0,1,1.88,9.88A10.47,10.47,0,0,1,230.1,221a15.43,15.43,0,0,1-2.52,3.46,7.3,7.3,0,0,1-2.11,1.24c7.19.15,77.11.4,82,0a39,39,0,0,0,7.76-1.27c4.5-1.95,5.62-5.81,5.5-9.32C319.8,217.2,317.93,217.79,315.69,218Z" transform="translate(9.31 -188.04)"/><path class="cls-32" d="M302.73,226.4H310a4.07,4.07,0,0,1,3-1.85,4.38,4.38,0,0,0-1.88-.9,5.55,5.55,0,0,1,2-.7,4.76,4.76,0,0,0-4.36-.27,11.56,11.56,0,0,1,2.41-3c-3.24-.42-5,2.58-5,2.58-.25-1.7,1.2-3.79,1.2-3.79a5.85,5.85,0,0,0-2.65,3.89,3.55,3.55,0,0,0-2.51-1.89c1.79,1.51,1.26,3,1.26,3a2.83,2.83,0,0,0-3.57-.52,3,3,0,0,1,2.2,1.24c-1.38-.2-2.75,2-2.75,2a3.41,3.41,0,0,1,3.23.21Z" transform="translate(9.31 -188.04)"/><path class="cls-33" d="M302.73,226.4H310a4.07,4.07,0,0,1,3-1.85,4.38,4.38,0,0,0-1.88-.9,5.55,5.55,0,0,1,2-.7,4.76,4.76,0,0,0-4.36-.27,11.56,11.56,0,0,1,2.41-3c-3.24-.42-5,2.58-5,2.58-.25-1.7,1.2-3.79,1.2-3.79a5.85,5.85,0,0,0-2.65,3.89,3.55,3.55,0,0,0-2.51-1.89c1.79,1.51,1.26,3,1.26,3a2.83,2.83,0,0,0-3.57-.52,3,3,0,0,1,2.2,1.24c-1.38-.2-2.75,2-2.75,2a3.41,3.41,0,0,1,3.23.21Z" transform="translate(9.31 -188.04)"/><path class="cls-34" d="M309.62,226.4a7.76,7.76,0,0,1,2.58-2.07,4.5,4.5,0,0,0-2.63-.07,4.06,4.06,0,0,1,2.84-1.4c-2-.66-4.8,1.84-4.8,1.84.21-2.13,3.18-4.87,3.18-4.87-3.28,0-4.74,4-4.74,4-.72-1.87.61-4.39.61-4.39-.94,1.12-1.32,4-1.32,4a3.77,3.77,0,0,0-1.33-1.66,20.24,20.24,0,0,1,1.57,3.56A5.7,5.7,0,0,0,302,223a5.32,5.32,0,0,1,3,2.82,4,4,0,0,0-4.46-.35c1.54-.62,3,.61,3.32,1Z" transform="translate(9.31 -188.04)"/><path class="cls-35" d="M313.21,206.21a6.35,6.35,0,0,0-2.46-.12c-1.61,0-3.22,0-4.83,0-3.32-.1-6.66-.43-10-.42s-6.64-.22-9.94-.34c-3.58-.13-7.15-.21-10.72-.49a165.29,165.29,0,0,0-20.64-.22c-2.84.14-5.66.39-8.49.37,0-.06,0-.11-.06-.11-1.38-.18-2.77-.14-4.16-.23a23.39,23.39,0,0,0-3.83-.12c-1.08.14-2.17-.09-3.25.06h0l-.53-.09s-.08,0-.1.09a4.76,4.76,0,0,0-2.31,0c-.12,0-.42.37-.27.51a4.06,4.06,0,0,0,2.24.46c1.78.1,3.53.46,5.3.66a99.26,99.26,0,0,1,10.54,2,63.37,63.37,0,0,0,11.09,1.12c3.94.18,8,.26,11.9.13,1.65-.05,3.31-.2,5-.34,2-.18,4.05-.14,6-.47A63.12,63.12,0,0,1,294,208.1a66.74,66.74,0,0,0,9.69-.64c1.49-.22,3.08.07,4.59-.07s3.48-.09,4.76-.76C313.05,206.6,313.36,206.28,313.21,206.21Z" transform="translate(9.31 -188.04)"/><path class="cls-35" d="M277.84,215.66a8.22,8.22,0,0,0-2.68-.31c-1.32-.09-2.64,0-4-.2a77.92,77.92,0,0,0-8.78-.05c-2.93,0-5.77-.74-8.66-1.09-.64-.08-1.28-.12-1.92-.15-.88-.19-1.76-.36-2.65-.49a11.94,11.94,0,0,0-4.69,0,28.47,28.47,0,0,1-5.93,1c-.27,0-.92.72-.52.86a14.25,14.25,0,0,0,4.65.53,32.5,32.5,0,0,1,5.2.7,71.37,71.37,0,0,0,10.61,1.21,82.26,82.26,0,0,0,10.41-.46c1.73-.18,3.47-.31,5.2-.52a9.29,9.29,0,0,0,3.55-.75S278,215.71,277.84,215.66Z" transform="translate(9.31 -188.04)"/><path class="cls-35" d="M302.58,214.32a40.66,40.66,0,0,1-7.56.32,20.93,20.93,0,0,0-4.75.58,8.49,8.49,0,0,0,2.42.14,15.13,15.13,0,0,1,3.2.44,44.32,44.32,0,0,0,6.1.55c4.22.31,8.64-.83,12.82-1.19.11,0,.4-.33.3-.44C310.94,214.43,306.74,213.76,302.58,214.32Z" transform="translate(9.31 -188.04)"/><path class="cls-36" d="M228.11,205.61a.12.12,0,0,0-.1-.06c-2.18-2.75-6.44-1.23-8,1.83a17.81,17.81,0,0,0-1.56,6.18,17.08,17.08,0,0,0,.9,7.13c0,.14.3-.17.28-.27a18.77,18.77,0,0,1-.28-4.79c0-.27.06-.53.1-.79a1.07,1.07,0,0,0,.32.51c.12.1.33-.2.34-.3a11.61,11.61,0,0,1,.88-3.16c.38-.83,1.52-3.74,2.61-3.8.91-.05,1.69.75,2.38,1.24.93.67.72,1.94,1.25,2.82,0,.09.18-.1.19-.14a7.61,7.61,0,0,0-.35-3.9,2.52,2.52,0,0,0,1,.26c.21,0,.45-.37.56-.49C229.32,207.09,228.54,206.26,228.11,205.61Z" transform="translate(9.31 -188.04)"/></g></g></g></svg>