<svg xmlns="http://www.w3.org/2000/svg" xmlns:xlink="http://www.w3.org/1999/xlink" viewBox="0 0 1155.17 378.1"><defs><style>.cls-1{fill:none;}.cls-2{isolation:isolate;}.cls-3{clip-path:url(#clip-path);}.cls-4{fill:url(#Áåçûìÿííûé_ãðàäèåíò_241);}.cls-5{mix-blend-mode:screen;}.cls-6{fill:url(#Áåçûìÿííûé_ãðàäèåíò_240);}.cls-7{fill:url(#Áåçûìÿííûé_ãðàäèåíò_239);}.cls-8{fill:url(#Áåçûìÿííûé_ãðàäèåíò_238);}.cls-9{fill:url(#Áåçûìÿííûé_ãðàäèåíò_237);}.cls-10{fill:#80d5c9;}.cls-11{fill:#61c6b4;}</style><clipPath id="clip-path" transform="translate(11.11 16.08)"><rect class="cls-1" width="1000" height="500"/></clipPath><linearGradient id="Áåçûìÿííûé_ãðàäèåíò_241" x1="511.11" y1="333.12" x2="511.11" y2="-22.05" gradientUnits="userSpaceOnUse"><stop offset="0" stop-color="#eaffed"/><stop offset="0.08" stop-color="#e2ffed"/><stop offset="0.22" stop-color="#cbffee"/><stop offset="0.38" stop-color="#a5fff0"/><stop offset="0.48" stop-color="#8cfff1"/><stop offset="0.55" stop-color="#82fef1"/><stop offset="0.67" stop-color="#67fcf1"/><stop offset="0.82" stop-color="#3bf7f2"/><stop offset="1" stop-color="#00f2f2"/></linearGradient><linearGradient id="Áåçûìÿííûé_ãðàäèåíò_240" x1="402.71" y1="72.11" x2="516.07" y2="203.85" gradientTransform="matrix(0.97, 0.24, -0.24, 0.97, 566.18, -118.08)" gradientUnits="userSpaceOnUse"><stop offset="0" stop-color="#effffb"/><stop offset="1"/></linearGradient><linearGradient id="Áåçûìÿííûé_ãðàäèåíò_239" x1="122.55" y1="156.38" x2="77.61" y2="284.04" gradientTransform="matrix(-1, 0, 0, 1, 1038.22, 0)" xlink:href="#Áåçûìÿííûé_ãðàäèåíò_240"/><linearGradient id="Áåçûìÿííûé_ãðàäèåíò_238" x1="871.96" y1="106.79" x2="923.47" y2="200.21" gradientTransform="matrix(-0.98, 0.21, 0.21, 0.98, 986.51, -187.89)" xlink:href="#Áåçûìÿííûé_ãðàäèåíò_240"/><linearGradient id="Áåçûìÿííûé_ãðàäèåíò_237" x1="878.57" y1="-3.63" x2="944.95" y2="136.29" gradientTransform="matrix(-1, 0, 0, 1, 1038.22, 0)" xlink:href="#Áåçûìÿííûé_ãðàäèåíò_240"/></defs><title>school_sky</title><g class="cls-2"><g id="layer_1" data-name="layer 1"><g class="cls-3"><rect class="cls-4" x="3.69" width="1014.84" height="360.82"/><g class="cls-5"><path class="cls-6" d="M964.34,134.05A74.81,74.81,0,0,0,922.77,98.7c-6.85-2.33-15-3.45-20.85.82-4.58,3.34-6.56,9.19-7.55,14.77a66.69,66.69,0,0,0,7.72,44.39c-4.2-2-8.36-6.45-12-9.31s-7.56-5.61-12.07-6.68-9.77-.13-12.78,3.39-2.65,9.8,1.37,12.11c-10.26-1.6-23.05-.77-33.4,0a16.92,16.92,0,0,0-6.5,1.44,6.21,6.21,0,0,0-3.6,5.26c0,4.13,5,6.08,9,7l23,5c-2.84-2.34-9.79,1.47-11.61,4.68s-1.08,7.39,1,10.46,5.18,5.22,8.36,7.08c22.13,12.94,48.94,15,74.55,13.9,3.14,9,14.07,10.67,23.57,11.68a222.27,222.27,0,0,0,88.13-8.49c4.35-1.33,9.24-3.36,10.57-7.71s-1.85-9.05-6-11-8.84-1.89-13.38-1.78c35-3.3,66.21-11.93,96.24-30.22,5-3,9.89-6.46,13.34-11.17s5.26-11,3.49-16.52-7.77-9.85-13.46-8.53c9.06-1.17,10.53-12.57,10.06-21.69s-6.79-17.26-14.77-21.72-17.38-5.69-26.52-5.54c-35.08.56-69,21.89-84.79,53.23,4.12-5.59,5.32-12.6,5.48-19.55s-2.77-14.14-8.45-18.14c-8.43-5.93-20.62-3.37-28.61,3.14S968.87,124.79,964.34,134.05Z" transform="translate(11.11 16.08)"/></g><g class="cls-5"><path class="cls-7" d="M1073,151.84c-.25-8.74-7.8-15.5-15.53-19.59-8.47-4.48-18.07-7.16-27.64-6.52s-19.07,4.81-25.17,12.2c-7.88,9.54-9.23,23.17-6.49,35.24s9.07,23,15.3,33.64c-4.41-1.54-11-3.37-15.62-3.07s-9.4,2.37-12,6.25-2.45,9.69,1,12.81c-4.47-7-13-6.9-21.28-6.18a23.35,23.35,0,0,0-19.05,13.9c-13-22.35-25.18-43.48-47.7-56.17-5.46-3.08-12.23-5.44-17.84-2.65-4.61,2.29-7.1,7.59-7.44,12.71s1.07,10.2,2.49,15.14c-9.64-8.11-21.57-6.74-33.51-2.74-6.24,2.09-12.23,6.3-14.37,12.53-2.2,6.4.16,13.65,4.36,19s10,9,15.71,12.67c-18.28-4.24-35.48-1-52.18,7.58-2.36,1.2-4.92,2.9-5.23,5.53-.28,2.45,1.52,4.6,3.28,6.32a78.23,78.23,0,0,0,23.66,15.86c-5.65.76-3.54,8.86-.8,13.85s8.36,7.59,13.66,9.68c54.32,21.38,114.46,22.88,172.63,17.94,17.9-1.52,36.42-3.84,51.69-13.31,21.83-13.54,33.18-39.79,35.14-65.4S1073.73,177.52,1073,151.84Z" transform="translate(11.11 16.08)"/></g><g class="cls-5"><path class="cls-8" d="M-.37,123.17A70.43,70.43,0,0,1,42.82,76.43c7.25-2.62,15.57-4,22.5-.56,7.52,3.69,11.59,12.06,13.46,20.23a64,64,0,0,1-12.53,53.81c6.8-9,16.94-14.09,27.24-18.63a17.07,17.07,0,0,1,7.65-1.87c2.64.13,5.38,1.58,6.31,4.06s-.66,5.79-3.3,6c12.26-18.92,36.67-27.69,59.19-29,6.82-.39,14.19.4,19.38,4.82,5.61,4.79,7.39,13.1,5.56,20.24s-6.77,13.17-12.6,17.68c18.92-4.42,42.16-7.6,60.21-.38,5.62,2.25,11.08,5.89,13.53,11.43s.74,13.17-4.78,15.67c6.51.24,13.54,1.44,19.37,4.35s10.51,9.19,9.41,15.61c-1.29,7.57-9.38,11.74-16.65,14.24a174.48,174.48,0,0,1-67.12,9.17c1.54,4.08-.34,7.22-3.14,10.56s-6.71,5.53-10.65,7.41a115.3,115.3,0,0,1-84,5.73C76,260.62,54.57,271.1,35.17,263.19,11.65,253.6-3.19,229-7.24,203.88S-7.11,147.66-.37,123.17Z" transform="translate(11.11 16.08)"/></g><g class="cls-5"><path class="cls-9" d="M-2.47,75.53A103.23,103.23,0,0,1,78.67,31.84c6.5-.15,13.16.36,19.11,3s11.14,7.59,12.66,13.91c8.53-9.93,27.27-10.95,39-5.19s18.73,19.91,16.13,32.74c10.39-8.54,27.83-3.19,39.28,3.86S223.21,100.48,224,113.9c.53,9.16-2,19.12-9.16,24.84-5.43,4.33-12.64,5.6-19.52,6.6a617,617,0,0,1-153.91,3C26.73,146.78,11.3,144.36-.1,135-15.17,122.63-13.58,91.56-2.47,75.53Z" transform="translate(11.11 16.08)"/></g><path class="cls-10" d="M267.68,346a274.87,274.87,0,0,0,5-57.18c-.12-6.73-1.6-14.32-8.34-17.93.61-4.91-3.62-9.76-9.19-11.31a19.5,19.5,0,0,0-16.33,3.26,18.1,18.1,0,0,0-7.4,12.53c-.15-2.26-3.24-3.72-5.9-3.42a13.35,13.35,0,0,0-6.8,3.41c-1.92,1.58-3.69,3.28-6.16,4.18,2.08-3.16.58-7.62-3.16-9.38s-9-.45-11.12,2.69c-.86-5-8-8.37-13.45-6.48s-8.08,8.32-4.58,12.37c-3.61-2.25-8.9-2-12.65.09a14.42,14.42,0,0,0-6.93,9.4c-.87,3.71-3.26,6.59-2.49,10.32.3-2.45-2.8-4.47-5.73-4.45s-5.57,1.46-7.88,3-2.25,2.12-5.05,2.87c1.33-4.55,2.67-9.18,2.3-13.85a14.86,14.86,0,0,0-7.38-12c-4.64-2.55-11.17-4.11-14.33-.27a20.36,20.36,0,0,0,4-12.17,4.78,4.78,0,0,0-1.42-3.86c-2.09-1.73-5.75-.64-7.75,1.18s-3.6,4.28-5.92,5.79a59.06,59.06,0,0,0-7.1-22.15,6.08,6.08,0,0,0-3.42-3.31c-2.29-.65-4.64.83-6.28,2.33C84,249.09,79.81,259.53,82,269.51a21.06,21.06,0,0,0-5.68-5.65c-2.41-1.44-5.76-2-8.32-.8a8.59,8.59,0,0,0-4.07,5.22,25,25,0,0,0,3.81,24.18c-1.15-2.38-4.68-3.71-7.55-2.85s-5.29,2.91-4.42,5.37c-1.15-2.27-1-4.84-1.74-7.24s-2.74-4.89-5.66-5-5.21,2.42-6.26,4.8-.53,5.16-2.7,6.92c-.9-12-2.43-25.21-12.73-33.53-3.38-2.72-7.93-4.8-12.56-4.29-5.54.62-9.6,4.67-12.49,8.7A53.07,53.07,0,0,0-7.93,305.6C-4.6,324.23-8.26,344-2,362,88.82,355.63,176.65,349,267.68,346Z" transform="translate(11.11 16.08)"/><path class="cls-11" d="M31.08,321.06a7.79,7.79,0,0,0,1.62-4A6.39,6.39,0,0,0,31.08,321.06Z" transform="translate(11.11 16.08)"/><path class="cls-11" d="M-8.68,295.08q.18,1.49.45,3a44.3,44.3,0,0,0,1.36,5.36l-.78-17A51.34,51.34,0,0,0-8.68,295.08Z" transform="translate(11.11 16.08)"/><path class="cls-11" d="M84.75,320.14c.26-.67.51-1.34.71-2A3.43,3.43,0,0,0,84.75,320.14Z" transform="translate(11.11 16.08)"/><path class="cls-11" d="M-7.77,306.64C-4.74,325-8.15,344.28-2,362c90.79-6.4,178.62-13,269.65-16q2.13-11,3.34-22.12a89.3,89.3,0,0,1-19,0,27.21,27.21,0,0,1-7.29-1.31c-2.28-.86-6.42-1.52-7-3.57-1.19,3-4.9,5.13-8.64,5a9.36,9.36,0,0,1-8-6.55c-4,5.4-11.63,8.71-19.14,8.25s-12.46-4.66-15.47-10.48a19.41,19.41,0,0,1-9.2,12,26.34,26.34,0,0,1-16.52,3.26,12.17,12.17,0,0,1-5.88-2.07c-1.59-1.22-3.56-1.61-2.83-3.32a8.4,8.4,0,0,1-8,3c-3-.5-4.53-3.1-5-5.69-2.58,4.28-9.2,6.47-14.54,4.8s-7-7.91-5.67-12.57c-3.37,6.91-11,12.23-19.69,13.72-3.49.6-7.36.56-10.32-1.11-2.29-1.29-4.29-4.53-4.17-7.08a34.54,34.54,0,0,1-14,16.38c-2.89,1.82-6.54,3.35-10,2.46a8.48,8.48,0,0,1-5.53-4.87c-1-2.18-.57-5.56-.7-7.88-2.48,5.13-10.74,7.56-16.47,4.84-4.19-2-7.23-6.17-7-10-2.44,3.23-7.22,5.34-11.89,5.3C12.8,326.3,7,323.08,2.72,319.05a36.89,36.89,0,0,1-9.59-15.64l0,.39C-7.16,304.75-7.47,305.69-7.77,306.64Z" transform="translate(11.11 16.08)"/><path class="cls-10" d="M769.11,346a297.33,297.33,0,0,1-4.56-57.18c.11-6.73,1.47-14.32,7.66-17.93-.56-4.91,3.33-9.76,8.44-11.31a16.76,16.76,0,0,1,15,3.26,18.44,18.44,0,0,1,6.8,12.53c.14-2.26,3-3.72,5.43-3.42s4.47,1.83,6.24,3.41,3.39,3.28,5.65,4.18a6.87,6.87,0,0,1,2.91-9.38,8.24,8.24,0,0,1,10.22,2.69c.79-5,7.3-8.37,12.35-6.48s7.42,8.32,4.21,12.37c3.31-2.25,8.17-2,11.62.09a14.37,14.37,0,0,1,6.36,9.4c.81,3.71,3,6.59,2.3,10.32-.29-2.45,2.57-4.47,5.26-4.45s5.11,1.46,7.23,3,2.07,2.12,4.64,2.87c-1.22-4.55-2.45-9.18-2.11-13.85s2.51-9.46,6.78-12,10.26-4.11,13.16-.27a21.6,21.6,0,0,1-3.65-12.17,5.09,5.09,0,0,1,1.31-3.86c1.92-1.73,5.29-.64,7.12,1.18s3.31,4.28,5.44,5.79a62.7,62.7,0,0,1,6.52-22.15c.69-1.36,1.58-2.83,3.14-3.31,2.11-.65,4.26.83,5.78,2.33,7.5,7.44,11.33,17.88,9.34,27.86a20.37,20.37,0,0,1,5.22-5.65c2.21-1.44,5.29-2,7.64-.8,2,1.06,3.08,3.17,3.74,5.22a26.78,26.78,0,0,1-3.5,24.18,5.89,5.89,0,0,1,6.94-2.85c2.64.85,4.86,2.91,4.06,5.37,1.05-2.27,1-4.84,1.6-7.24s2.51-4.89,5.2-5,4.78,2.42,5.74,4.8.49,5.16,2.49,6.92c.82-12,2.23-25.21,11.69-33.53,3.11-2.72,7.28-4.8,11.54-4.29,5.09.62,8.81,4.67,11.47,8.7a56.76,56.76,0,0,1,8.76,40.22c-3.07,18.63.3,38.35-5.48,56.43C933.41,355.63,852.73,349,769.11,346Z" transform="translate(11.11 16.08)"/><path class="cls-11" d="M986.45,321.06a8.27,8.27,0,0,1-1.49-4A6.71,6.71,0,0,1,986.45,321.06Z" transform="translate(11.11 16.08)"/><path class="cls-11" d="M1023,295.08q-.16,1.49-.42,3a47.77,47.77,0,0,1-1.24,5.36l.71-17A55.71,55.71,0,0,1,1023,295.08Z" transform="translate(11.11 16.08)"/><path class="cls-11" d="M937.15,320.14c-.24-.67-.47-1.34-.66-2A3.6,3.6,0,0,1,937.15,320.14Z" transform="translate(11.11 16.08)"/><path class="cls-11" d="M1022.14,306.64c-2.78,18.32.35,37.64-5.33,55.39-83.4-6.4-164.08-13-247.7-16q-2-11-3.08-22.12a75.45,75.45,0,0,0,17.45,0,23.16,23.16,0,0,0,6.7-1.31c2.09-.86,5.9-1.52,6.43-3.57a8.16,8.16,0,0,0,7.94,5c3.43-.17,6.58-3.47,7.31-6.55,3.64,5.4,10.68,8.71,17.58,8.25s11.45-4.66,14.22-10.48a19.26,19.26,0,0,0,8.44,12,22.56,22.56,0,0,0,15.17,3.26,10.63,10.63,0,0,0,5.41-2.07c1.46-1.22,3.27-1.61,2.6-3.32a7.42,7.42,0,0,0,7.33,3c2.8-.5,4.15-3.1,4.58-5.69,2.36,4.28,8.45,6.47,13.36,4.8s6.46-7.91,5.2-12.57c3.1,6.91,10.11,12.23,18.09,13.72,3.2.6,6.76.56,9.48-1.11a9,9,0,0,0,3.83-7.08A34,34,0,0,0,950,336.52c2.66,1.82,6,3.35,9.18,2.46a8,8,0,0,0,5.08-4.86c.88-2.19.53-5.57.65-7.89,2.28,5.13,9.86,7.56,15.12,4.84,3.85-2,6.64-6.17,6.46-10a13.52,13.52,0,0,0,10.93,5.3c5.87-.06,11.23-3.28,15.13-7.31a37.59,37.59,0,0,0,8.81-15.64l0,.39Z" transform="translate(11.11 16.08)"/></g></g></g></svg>